#N canvas 185 72 1058 616 10;
#X floatatom 96 300 5 0 20000 0 - - -;
#X obj 96 319 sig~;
#X obj 96 462 *~;
#X obj 166 379 hsl 100 20 0 1 0 0 empty empty empty -2 -8 0 10 -203904
-1 -1 0 0;
#X floatatom 163 404 5 0 0 0 - - -;
#X obj 163 445 line~;
#X obj 125 462 *~;
#X obj 96 494 dac~;
#X msg 163 423 \$1 20;
#X obj 96 18 loadbang;
#X msg 96 275 60;
#X obj 330 460 *~;
#X obj 400 377 hsl 100 20 0 1 0 0 empty empty empty -2 -8 0 10 -203904
-1 -1 0 0;
#X floatatom 397 402 5 0 0 0 - - -;
#X obj 397 443 line~;
#X obj 359 460 *~;
#X obj 330 492 dac~;
#X msg 397 421 \$1 20;
#X obj 544 461 *~;
#X obj 614 378 hsl 100 20 0 1 0 0 empty empty empty -2 -8 0 10 -203904
-1 -1 0 0;
#X floatatom 611 403 5 0 0 0 - - -;
#X obj 611 444 line~;
#X obj 573 461 *~;
#X obj 544 493 dac~;
#X msg 611 422 \$1 20;
#X obj 785 459 *~;
#X obj 855 376 hsl 100 20 0 1 0 0 empty empty empty -2 -8 0 10 -203904
-1 -1 0 0;
#X floatatom 852 401 5 0 0 0 - - -;
#X obj 852 442 line~;
#X obj 814 459 *~;
#X obj 785 491 dac~;
#X msg 852 420 \$1 20;
#X obj 96 352 s_osc 1 sine;
#X obj 244 32 bng 30 250 50 0 empty empty reset -15 14 0 20 -261234
-1 -1;
#X obj 163 80 inlet;
#X obj 397 81 inlet;
#X obj 611 81 inlet;
#X obj 852 76 inlet;
#X obj 330 350 s_osc 2 sine;
#X obj 544 345 s_osc 3 sine;
#X obj 785 345 s_osc 4 sine;
#X floatatom 330 301 5 0 20000 0 - - -;
#X obj 330 320 sig~;
#X floatatom 544 296 5 0 20000 0 - - -;
#X obj 544 315 sig~;
#X floatatom 785 293 5 0 20000 0 - - -;
#X obj 785 312 sig~;
#X msg 330 274 240;
#X msg 785 266 480;
#X obj 178 261 s red_choice;
#X obj 31 556 r red_choice;
#X obj 403 262 s yellow_choice;
#X obj 85 532 r yellow_choice;
#X obj 626 269 s blue_choice;
#X obj 171 542 r blue_choice;
#X obj 867 272 s green_choice;
#X obj 283 549 r green_choice;
#X obj 666 15 e_fbdelay;
#X text 299 8 - gestion des étapes;
#X obj 28 27 inlet;
#X msg 395 220 0.08;
#X obj 170 52 bng 20 250 50 0 empty empty empty 17 7 0 10 -258113 -1
-1;
#X obj 404 56 bng 20 250 50 0 empty empty empty 17 7 0 10 -257985 -1
-1;
#X obj 615 52 bng 20 250 50 0 empty empty empty 17 7 0 10 -4160 -1
-1;
#X obj 857 48 bng 20 250 50 0 empty empty empty 17 7 0 10 -4034 -1
-1;
#X msg 128 84 0;
#X msg 579 81 0;
#X msg 822 78 0;
#X msg 367 81 0;
#X msg 544 268 360;
#X msg 157 216 0.3;
#X obj 176 239 delay 500;
#X obj 407 241 delay 500;
#X obj 623 246 delay 500;
#X obj 866 249 delay 500;
#X obj 163 105 counter;
#X floatatom 163 127 5 0 0 0 - - -;
#X floatatom 208 168 5 0 0 0 - - -;
#X obj 208 143 > 1;
#X obj 163 149 sel 1;
#X obj 163 175 bng 15 250 50 0 empty empty empty 17 7 0 10 -262144
-1 -1;
#X obj 394 109 counter;
#X floatatom 394 131 5 0 0 0 - - -;
#X obj 394 153 sel 1;
#X obj 394 179 bng 15 250 50 0 empty empty empty 17 7 0 10 -262144
-1 -1;
#X obj 604 112 counter;
#X floatatom 604 134 5 0 0 0 - - -;
#X obj 604 156 sel 1;
#X obj 604 182 bng 15 250 50 0 empty empty empty 17 7 0 10 -262144
-1 -1;
#X obj 852 103 counter;
#X floatatom 852 125 5 0 0 0 - - -;
#X obj 852 147 sel 1;
#X obj 852 173 bng 15 250 50 0 empty empty empty 17 7 0 10 -262144
-1 -1;
#X floatatom 441 168 5 0 0 0 - - -;
#X obj 441 143 > 1;
#X floatatom 656 169 5 0 0 0 - - -;
#X obj 656 144 > 1;
#X floatatom 894 168 5 0 0 0 - - -;
#X obj 894 143 > 1;
#X msg 854 224 0.05;
#X obj 32 584 QA_GestionQuestions;
#X msg 610 222 0.08;
#X obj 905 26 e_tremolo;
#X obj 944 56 e_reverb;
#X obj 941 117 e_pitchshift;
#X obj 966 171 e_chorus;
#X obj 267 195 sel 2 3 4 5;
#X connect 0 0 1 0;
#X connect 1 0 32 0;
#X connect 2 0 7 0;
#X connect 3 0 4 0;
#X connect 4 0 8 0;
#X connect 5 0 2 1;
#X connect 5 0 6 1;
#X connect 6 0 7 1;
#X connect 8 0 5 0;
#X connect 9 0 10 0;
#X connect 9 0 33 0;
#X connect 9 0 47 0;
#X connect 9 0 69 0;
#X connect 9 0 48 0;
#X connect 10 0 0 0;
#X connect 11 0 16 0;
#X connect 12 0 13 0;
#X connect 13 0 17 0;
#X connect 14 0 11 1;
#X connect 14 0 15 1;
#X connect 15 0 16 1;
#X connect 17 0 14 0;
#X connect 18 0 23 0;
#X connect 19 0 20 0;
#X connect 20 0 24 0;
#X connect 21 0 18 1;
#X connect 21 0 22 1;
#X connect 22 0 23 1;
#X connect 24 0 21 0;
#X connect 25 0 30 0;
#X connect 26 0 27 0;
#X connect 27 0 31 0;
#X connect 28 0 25 1;
#X connect 28 0 29 1;
#X connect 29 0 30 1;
#X connect 31 0 28 0;
#X connect 32 0 2 0;
#X connect 32 0 6 0;
#X connect 33 0 65 0;
#X connect 33 0 68 0;
#X connect 33 0 66 0;
#X connect 33 0 67 0;
#X connect 33 0 75 3;
#X connect 33 0 81 3;
#X connect 33 0 85 3;
#X connect 33 0 89 3;
#X connect 34 0 75 0;
#X connect 35 0 81 0;
#X connect 36 0 85 0;
#X connect 37 0 89 0;
#X connect 38 0 11 0;
#X connect 38 0 15 0;
#X connect 39 0 22 0;
#X connect 39 0 18 0;
#X connect 40 0 29 0;
#X connect 40 0 25 0;
#X connect 41 0 42 0;
#X connect 42 0 38 0;
#X connect 43 0 44 0;
#X connect 44 0 39 0;
#X connect 45 0 46 0;
#X connect 46 0 40 0;
#X connect 47 0 41 0;
#X connect 48 0 45 0;
#X connect 50 0 100 2;
#X connect 52 0 100 3;
#X connect 54 0 100 4;
#X connect 56 0 100 5;
#X connect 59 0 33 0;
#X connect 60 0 12 0;
#X connect 60 0 72 0;
#X connect 65 0 3 0;
#X connect 66 0 19 0;
#X connect 67 0 26 0;
#X connect 68 0 12 0;
#X connect 69 0 43 0;
#X connect 70 0 3 0;
#X connect 70 0 71 0;
#X connect 71 0 49 0;
#X connect 72 0 51 0;
#X connect 73 0 53 0;
#X connect 74 0 55 0;
#X connect 75 0 76 0;
#X connect 76 0 78 0;
#X connect 76 0 79 0;
#X connect 78 0 77 0;
#X connect 79 0 80 0;
#X connect 80 0 70 0;
#X connect 81 0 82 0;
#X connect 82 0 83 0;
#X connect 82 0 94 0;
#X connect 83 0 84 0;
#X connect 84 0 60 0;
#X connect 85 0 86 0;
#X connect 86 0 87 0;
#X connect 86 0 96 0;
#X connect 87 0 88 0;
#X connect 88 0 101 0;
#X connect 89 0 90 0;
#X connect 90 0 91 0;
#X connect 90 0 98 0;
#X connect 91 0 92 0;
#X connect 92 0 99 0;
#X connect 94 0 93 0;
#X connect 96 0 95 0;
#X connect 98 0 97 0;
#X connect 99 0 26 0;
#X connect 99 0 74 0;
#X connect 101 0 19 0;
#X connect 101 0 73 0;
