#N canvas 59 23 1075 739 10;
#X floatatom 97 287 5 0 20000 0 - - -;
#X obj 97 306 sig~;
#X obj 84 506 *~;
#X obj 167 366 hsl 100 20 0 1 0 0 empty empty empty -2 -8 0 10 -203904
-1 -1 1188 0;
#X floatatom 164 391 5 0 0 0 - - -;
#X obj 164 432 line~;
#X obj 113 506 *~;
#X obj 85 536 dac~;
#X msg 164 410 \$1 20;
#X obj 96 18 loadbang;
#X msg 97 262 60;
#X obj 317 508 *~;
#X obj 401 364 hsl 100 20 0 1 0 0 empty empty empty -2 -8 0 10 -203904
-1 -1 396 0;
#X floatatom 398 389 5 0 0 0 - - -;
#X obj 398 430 line~;
#X obj 346 508 *~;
#X obj 317 540 dac~;
#X msg 398 408 \$1 20;
#X obj 544 506 *~;
#X obj 615 365 hsl 100 20 0 1 0 0 empty empty empty -2 -8 0 10 -203904
-1 -1 396 0;
#X floatatom 612 390 5 0 0 0 - - -;
#X obj 612 431 line~;
#X obj 573 506 *~;
#X obj 544 538 dac~;
#X msg 612 409 \$1 20;
#X obj 776 510 *~;
#X obj 856 363 hsl 100 20 0 1 0 0 empty empty empty -2 -8 0 10 -203904
-1 -1 198 0;
#X floatatom 853 388 5 0 0 0 - - -;
#X obj 853 429 line~;
#X obj 805 510 *~;
#X obj 776 542 dac~;
#X msg 853 407 \$1 20;
#X obj 97 339 s_osc 1 sine;
#X obj 244 32 bng 30 250 50 0 empty empty reset -15 14 0 20 -261234
-1 -1;
#X obj 163 80 inlet;
#X obj 397 81 inlet;
#X obj 611 81 inlet;
#X obj 852 76 inlet;
#X obj 331 337 s_osc 2 sine;
#X obj 545 332 s_osc 3 sine;
#X obj 786 332 s_osc 4 sine;
#X floatatom 331 288 5 0 20000 0 - - -;
#X obj 331 307 sig~;
#X floatatom 545 283 5 0 20000 0 - - -;
#X obj 545 302 sig~;
#X floatatom 786 280 5 0 20000 0 - - -;
#X obj 786 299 sig~;
#X msg 331 261 240;
#X msg 786 253 480;
#X obj 208 300 s red_choice;
#X obj 8 632 r red_choice;
#X obj 433 299 s yellow_choice;
#X obj -1 655 r yellow_choice;
#X obj 670 295 s blue_choice;
#X obj 17 679 r blue_choice;
#X obj 895 306 s green_choice;
#X obj 20 706 r green_choice;
#X obj 28 27 inlet;
#X obj 170 52 bng 20 250 50 0 empty empty empty 17 7 0 10 -258113 -1
-1;
#X obj 404 56 bng 20 250 50 0 empty empty empty 17 7 0 10 -257985 -1
-1;
#X obj 615 52 bng 20 250 50 0 empty empty empty 17 7 0 10 -4160 -1
-1;
#X obj 857 48 bng 20 250 50 0 empty empty empty 17 7 0 10 -4034 -1
-1;
#X msg 545 255 360;
#X obj 199 266 delay 500;
#X obj 423 267 delay 500;
#X obj 649 265 delay 500;
#X obj 887 276 delay 500;
#X obj 163 105 counter;
#X floatatom 163 127 5 0 0 0 - - -;
#X obj 163 175 bng 15 250 50 0 empty empty empty 17 7 0 10 -262144
-1 -1;
#X obj 394 109 counter;
#X floatatom 394 131 5 0 0 0 - - -;
#X obj 394 179 bng 15 250 50 0 empty empty empty 17 7 0 10 -262144
-1 -1;
#X obj 604 112 counter;
#X floatatom 604 134 5 0 0 0 - - -;
#X obj 604 182 bng 15 250 50 0 empty empty empty 17 7 0 10 -262144
-1 -1;
#X obj 852 103 counter;
#X floatatom 852 125 5 0 0 0 - - -;
#X obj 852 173 bng 15 250 50 0 empty empty empty 17 7 0 10 -262144
-1 -1;
#X obj 988 442 e_chorus;
#X obj 163 149 sel 0 1;
#X obj 522 190 bng 20 250 50 0 empty empty empty 17 7 0 10 -262130
-1 -1;
#X text 515 214 vide;
#X obj 394 153 sel 0 1;
#X obj 604 156 sel 0 1;
#X obj 852 147 sel 0 1;
#X obj 77 398 spigot~;
#X obj 124 375 tgl 15 0 empty empty empty 17 7 0 10 -262144 -1 -1 1
1;
#X obj 312 394 spigot~;
#X obj 359 371 tgl 15 0 empty empty empty 17 7 0 10 -262144 -1 -1 1
1;
#X obj 536 396 spigot~;
#X obj 583 373 tgl 15 0 empty empty empty 17 7 0 10 -262144 -1 -1 1
1;
#X obj 760 393 spigot~;
#X obj 807 370 tgl 15 0 empty empty empty 17 7 0 10 -262144 -1 -1 0
1;
#N canvas 23 77 477 663 red_traitements 0;
#X obj 53 96 e_tremolo;
#X msg 156 112 dry 0;
#X obj 53 57 inlet~;
#X obj 49 567 outlet~;
#X obj 356 28 loadbang;
#X obj 116 567 outlet~;
#X text 33 17 tremolo;
#X msg 130 85 freq 0.02;
#X obj 407 91 inlet;
#X text 414 75 reset;
#X obj 268 94 inlet;
#X obj 73 220 spigot~;
#X obj 122 189 tgl 15 0 empty empty empty 17 7 0 10 -262144 -1 -1 0
1;
#N canvas 367 130 628 576 red_delai 0;
#X obj 32 49 inlet~;
#X obj 38 532 outlet~;
#X obj 91 542 outlet~;
#X msg 191 248 feedback \$1;
#X obj 191 194 / 100;
#X obj 191 88 vsl 15 100 0 100 0 0 empty empty feedback 0 -9 1 10 -262144
-1 -1 8712 0;
#X obj 438 92 vsl 15 100 0 2000 0 0 empty empty delay_time(ms) 0 -9
1 10 -262144 -1 -1 8167 0;
#X msg 438 248 delay \$1;
#X floatatom 445 201 8 0 0 0 - - -;
#X floatatom 208 218 5 0 0 0 - - -;
#X obj 514 64 vsl 15 128 0 127 0 0 empty empty delay_frequency 0 -9
1 10 -262144 -1 -1 6000 0;
#X msg 514 248 delayfreq \$1;
#X obj 514 198 mtof;
#X floatatom 552 201 5 0 0 1 pitch - -;
#X obj 278 56 vsl 15 128 0 127 0 0 empty empty lowpass_cutoff_fr. 0
-9 1 10 -262144 -1 -1 12000 0;
#X obj 278 190 mtof;
#X floatatom 292 218 8 0 0 0 - - -;
#X msg 278 248 lpfreq \$1;
#X floatatom 530 228 8 0 0 1 freq - -;
#X msg 359 248 input \$1;
#X obj 359 194 / 100;
#X obj 359 88 vsl 15 100 0 100 0 0 empty empty inputlevel 0 -9 1 10
-262144 -1 -1 9504 0;
#X floatatom 376 218 5 0 0 0 - - -;
#X obj 112 253 sig~ 0;
#X obj 112 147 vsl 15 100 0 2000 0 0 empty empty delay_time(ms) -10
-9 1 10 -262144 -1 -1 0 0;
#X obj 244 325 hsl 50 15 0 1 0 0 empty empty empty -2 -8 0 10 -262144
-1 -1 0 0;
#X floatatom 241 343 5 0 0 0 - - -;
#X msg 241 360 dry \$1;
#X obj 533 345 loadbang;
#X msg 342 377 0;
#X msg 258 26 120;
#X msg 360 48 96;
#X msg 433 55 1650;
#X msg 189 52 88;
#X obj 483 396 tgl 15 0 empty empty empty 17 7 0 10 -262144 -1 -1 0
1;
#X obj 324 428 random 1800;
#X obj 323 450 + 20;
#X obj 111 46 inlet;
#X msg 459 366 0;
#X obj 115 464 spigot~;
#X obj 180 436 tgl 15 0 empty empty empty 17 7 0 10 -262144 -1 -1 0
1;
#X text 110 26 reset;
#N canvas 46 103 677 485 red_pitch 0;
#X obj 66 55 inlet~;
#X obj 71 435 outlet~;
#X obj 176 436 outlet~;
#X obj 104 236 e_pitchshift;
#X msg 219 169 pitch \$1;
#X floatatom 219 148 5 0 0 0 - - -;
#X obj 271 62 loadbang;
#X obj 323 385 line 0 3500;
#X floatatom 350 361 5 0 0 0 - - -;
#X floatatom 396 362 5 0 0 0 - - -;
#X floatatom 318 411 5 0 0 0 - - -;
#X obj 529 138 tgl 15 0 empty empty empty 17 7 0 10 -262144 -1 -1 0
1;
#X floatatom 582 141 5 0 0 0 - - -;
#X floatatom 517 225 5 0 0 0 - - -;
#X obj 517 193 random 4;
#X obj 519 259 sel 0 1 2 3;
#X msg 469 350 12 1500;
#X obj 557 87 inlet;
#X msg 542 114 0;
#X text 563 62 reset;
#X obj 388 111 bng 15 250 50 0 empty empty empty 17 7 0 10 -262144
-1 -1;
#X obj 385 133 delay 3600;
#X obj 171 310 spigot~;
#X obj 235 297 tgl 15 0 empty empty empty 17 7 0 10 -262144 -1 -1 0
1;
#N canvas 542 102 626 532 red_rvrb 0;
#X obj 31 71 inlet~;
#X obj 57 476 outlet~;
#X obj 115 476 outlet~;
#X obj 124 228 freeverb~;
#X msg 325 151 roomsize \$1;
#X msg 325 196 damping \$1;
#X msg 325 240 width \$1;
#X msg 325 284 wet \$1;
#X msg 325 328 dry \$1;
#X msg 378 390 freeze \$1;
#X msg 384 437 bypass \$1;
#X obj 384 418 tgl 15 0 empty empty empty 0 -6 0 8 -262144 -1 -1 0
1;
#X obj 378 371 tgl 15 0 empty empty empty 0 -6 0 8 -262144 -1 -1 0
1;
#X obj 337 305 hsl 60 18 0 1 0 1 empty empty dry 2 9 1 12 -225271 -1
-1 0 0;
#X obj 337 261 hsl 60 18 0 1 0 1 empty empty wet 2 9 1 12 -225271 -1
-1 0 0;
#X obj 337 217 hsl 60 18 0 1 0 1 empty empty width 2 9 1 12 -262131
-1 -1 4130 0;
#X obj 337 173 hsl 60 18 0 2 0 1 empty empty damping 2 9 1 12 -261689
-1 -1 1770 0;
#X obj 337 128 hsl 60 18 0.11 1.1 0 1 empty empty roomsize 2 9 1 12
-261689 -1 -1 4708 0;
#X floatatom 307 132 3 0 0 0 - - -;
#X floatatom 307 177 3 0 0 0 - - -;
#X floatatom 307 222 3 0 0 0 - - -;
#X floatatom 307 265 3 0 0 0 - - -;
#X floatatom 307 309 3 0 0 0 - - -;
#X obj 444 55 loadbang;
#X msg 420 178 0.6;
#X msg 418 311 0;
#X msg 421 127 0.9;
#X msg 414 218 0.7;
#X obj 189 67 inlet;
#X text 187 47 reset;
#X obj 526 255 bng 20 250 50 0 empty empty empty 17 7 0 10 -204786
-1 -1;
#X obj 500 342 line;
#X floatatom 490 366 5 0 0 0 - - -;
#X msg 338 358 0;
#X msg 421 267 0;
#X msg 530 311 0 500;
#X text 24 15 reverb;
#X obj 520 218 r red_7;
#X obj 486 416 r open_freeze;
#X msg 490 291 0.8 25000;
#X connect 0 0 3 0;
#X connect 0 0 3 1;
#X connect 3 0 1 0;
#X connect 3 1 2 0;
#X connect 4 0 3 0;
#X connect 5 0 3 0;
#X connect 6 0 3 0;
#X connect 7 0 3 0;
#X connect 8 0 3 0;
#X connect 9 0 3 0;
#X connect 10 0 3 0;
#X connect 11 0 10 0;
#X connect 12 0 9 0;
#X connect 13 0 8 0;
#X connect 13 0 22 0;
#X connect 14 0 7 0;
#X connect 14 0 21 0;
#X connect 15 0 6 0;
#X connect 15 0 20 0;
#X connect 16 0 5 0;
#X connect 16 0 19 0;
#X connect 17 0 4 0;
#X connect 17 0 18 0;
#X connect 23 0 26 0;
#X connect 23 0 24 0;
#X connect 23 0 27 0;
#X connect 23 0 34 0;
#X connect 23 0 25 0;
#X connect 24 0 16 0;
#X connect 25 0 13 0;
#X connect 26 0 17 0;
#X connect 27 0 15 0;
#X connect 28 0 33 0;
#X connect 28 0 35 0;
#X connect 30 0 39 0;
#X connect 31 0 32 0;
#X connect 32 0 14 0;
#X connect 33 0 12 0;
#X connect 34 0 14 0;
#X connect 35 0 31 0;
#X connect 37 0 30 0;
#X connect 38 0 12 0;
#X connect 39 0 31 0;
#X restore 190 384 pd red_rvrb;
#X msg 317 281 3 3500;
#X msg 370 308 5 1000;
#X msg 431 320 7 3000;
#X msg 237 121 12;
#X obj 522 166 metro 6000;
#X text 32 14 pitchshifter;
#X obj 462 87 r red_6;
#X obj 237 250 r red_7;
#X connect 0 0 3 0;
#X connect 3 0 1 0;
#X connect 3 0 2 0;
#X connect 3 0 22 0;
#X connect 4 0 3 1;
#X connect 5 0 4 0;
#X connect 6 0 28 0;
#X connect 7 0 10 0;
#X connect 8 0 7 1;
#X connect 9 0 7 2;
#X connect 10 0 5 0;
#X connect 11 0 29 0;
#X connect 12 0 29 1;
#X connect 13 0 15 0;
#X connect 14 0 13 0;
#X connect 15 0 25 0;
#X connect 15 1 26 0;
#X connect 15 2 27 0;
#X connect 15 3 16 0;
#X connect 16 0 7 0;
#X connect 17 0 18 0;
#X connect 17 0 20 0;
#X connect 17 0 24 1;
#X connect 18 0 11 0;
#X connect 18 0 23 0;
#X connect 20 0 21 0;
#X connect 21 0 28 0;
#X connect 22 0 1 0;
#X connect 22 0 2 0;
#X connect 22 1 24 0;
#X connect 23 0 22 1;
#X connect 24 0 1 0;
#X connect 24 1 2 0;
#X connect 25 0 7 0;
#X connect 26 0 7 0;
#X connect 27 0 7 0;
#X connect 28 0 5 0;
#X connect 29 0 14 0;
#X connect 31 0 11 0;
#X connect 32 0 23 0;
#X restore 162 504 pd red_pitch;
#X obj 541 386 r red_4;
#X obj 53 310 e_fbdelay delai1 2000;
#X obj 434 439 metro 3500;
#X msg 507 31 60;
#X text 22 11 delai;
#X obj 160 405 r red_5;
#X connect 0 0 44 0;
#X connect 3 0 44 2;
#X connect 4 0 3 0;
#X connect 4 0 9 0;
#X connect 5 0 4 0;
#X connect 6 0 7 0;
#X connect 6 0 8 0;
#X connect 7 0 44 2;
#X connect 10 0 12 0;
#X connect 10 0 13 0;
#X connect 11 0 44 2;
#X connect 12 0 11 0;
#X connect 12 0 18 0;
#X connect 14 0 15 0;
#X connect 15 0 17 0;
#X connect 15 0 16 0;
#X connect 17 0 44 2;
#X connect 19 0 44 2;
#X connect 20 0 22 0;
#X connect 20 0 19 0;
#X connect 21 0 20 0;
#X connect 23 0 44 1;
#X connect 24 0 23 0;
#X connect 25 0 26 0;
#X connect 26 0 27 0;
#X connect 27 0 44 2;
#X connect 28 0 29 0;
#X connect 28 0 33 0;
#X connect 28 0 30 0;
#X connect 28 0 31 0;
#X connect 28 0 32 0;
#X connect 28 0 46 0;
#X connect 29 0 25 0;
#X connect 30 0 14 0;
#X connect 31 0 21 0;
#X connect 32 0 6 0;
#X connect 33 0 5 0;
#X connect 34 0 45 0;
#X connect 35 0 36 0;
#X connect 36 0 6 0;
#X connect 37 0 38 0;
#X connect 37 0 42 1;
#X connect 38 0 34 0;
#X connect 38 0 40 0;
#X connect 39 0 1 0;
#X connect 39 0 2 0;
#X connect 39 1 42 0;
#X connect 40 0 39 1;
#X connect 42 0 1 0;
#X connect 42 1 2 0;
#X connect 43 0 34 0;
#X connect 44 0 1 0;
#X connect 44 0 2 0;
#X connect 44 0 39 0;
#X connect 45 0 35 0;
#X connect 46 0 10 0;
#X connect 48 0 40 0;
#X restore 151 271 pd red_delai;
#X msg 375 138 0;
#X connect 0 0 11 0;
#X connect 1 0 0 1;
#X connect 2 0 0 0;
#X connect 4 0 7 0;
#X connect 4 0 1 0;
#X connect 7 0 0 1;
#X connect 8 0 14 0;
#X connect 10 0 12 0;
#X connect 11 0 3 0;
#X connect 11 0 5 0;
#X connect 11 1 13 0;
#X connect 12 0 11 1;
#X connect 13 0 3 0;
#X connect 13 1 5 0;
#X connect 14 0 12 0;
#X connect 14 0 13 1;
#X restore 134 457 pd red_traitements;
#N canvas 613 87 472 540 yellow_traitements 0;
#X obj 53 128 e_tremolo;
#X msg 156 144 dry 0;
#X obj 43 87 inlet~;
#X obj 43 476 outlet~;
#X obj 361 62 loadbang;
#X obj 126 478 outlet~;
#X msg 130 117 freq 4.2;
#X text 27 17 tremolo;
#N canvas 549 69 625 552 yellow_delai 0;
#X obj 25 32 inlet~;
#X obj 31 515 outlet~;
#X obj 84 525 outlet~;
#X obj 46 293 e_fbdelay delai2 2000;
#X msg 184 231 feedback \$1;
#X obj 184 177 / 100;
#X obj 184 71 vsl 15 100 0 100 0 0 empty empty feedback 0 -9 1 10 -262144
-1 -1 8712 0;
#X obj 431 75 vsl 15 100 0 2000 0 0 empty empty delay_time(ms) 0 -9
1 10 -262144 -1 -1 5732 0;
#X msg 431 231 delay \$1;
#X floatatom 438 184 8 0 0 0 - - -;
#X floatatom 201 201 5 0 0 0 - - -;
#X obj 507 47 vsl 15 128 0 127 0 0 empty empty delay_frequency 0 -9
1 10 -262144 -1 -1 8000 0;
#X msg 507 231 delayfreq \$1;
#X obj 507 181 mtof;
#X floatatom 545 184 5 0 0 1 pitch - -;
#X obj 271 39 vsl 15 128 0 127 0 0 empty empty lowpass_cutoff_fr. 0
-9 1 10 -262144 -1 -1 12000 0;
#X obj 271 173 mtof;
#X floatatom 285 201 8 0 0 0 - - -;
#X msg 271 231 lpfreq \$1;
#X floatatom 523 211 8 0 0 1 freq - -;
#X msg 352 231 input \$1;
#X obj 352 177 / 100;
#X obj 352 71 vsl 15 100 0 100 0 0 empty empty inputlevel 0 -9 1 10
-262144 -1 -1 9504 0;
#X floatatom 369 201 5 0 0 0 - - -;
#X obj 105 236 sig~ 0;
#X obj 105 130 vsl 15 100 0 2000 0 0 empty empty delay_time(ms) -10
-9 1 10 -262144 -1 -1 0 0;
#X obj 237 308 hsl 50 15 0 1 0 0 empty empty empty -2 -8 0 10 -262144
-1 -1 0 0;
#X floatatom 234 326 5 0 0 0 - - -;
#X msg 234 343 dry \$1;
#X obj 526 328 loadbang;
#X msg 335 360 0;
#X msg 251 9 120;
#X msg 353 31 96;
#X msg 426 38 1650;
#X msg 500 14 80;
#X msg 182 35 88;
#X obj 476 379 tgl 15 0 empty empty empty 17 7 0 10 -262144 -1 -1 1
1;
#X obj 317 411 random 1800;
#X obj 316 433 + 20;
#X obj 427 422 metro 1500;
#X obj 104 29 inlet;
#X msg 452 349 0;
#N canvas 46 103 677 485 yellow_pitch 0;
#X obj 53 28 inlet~;
#X obj 58 408 outlet~;
#X obj 163 409 outlet~;
#X obj 91 209 e_pitchshift;
#X msg 206 142 pitch \$1;
#X floatatom 206 121 5 0 0 0 - - -;
#X msg 224 94 7;
#X obj 258 35 loadbang;
#X obj 310 358 line 0 3500;
#X floatatom 337 334 5 0 0 0 - - -;
#X floatatom 383 335 5 0 0 0 - - -;
#X floatatom 305 384 5 0 0 0 - - -;
#X obj 516 111 tgl 15 0 empty empty empty 17 7 0 10 -262144 -1 -1 0
1;
#X obj 509 139 metro 3500;
#X floatatom 569 114 5 0 0 0 - - -;
#X floatatom 504 198 5 0 0 0 - - -;
#X obj 504 166 random 4;
#X obj 506 232 sel 0 1 2 3;
#X msg 456 323 12 1500;
#X msg 418 293 5 3000;
#X msg 304 254 7 3500;
#X msg 357 281 15 1000;
#X obj 544 60 inlet;
#X msg 529 87 0;
#X text 550 35 reset;
#X obj 375 84 bng 15 250 50 0 empty empty empty 17 7 0 10 -262144 -1
-1;
#X obj 372 106 delay 3600;
#X obj 158 283 spigot~;
#X obj 222 270 tgl 15 0 empty empty empty 17 7 0 10 -262144 -1 -1 0
1;
#N canvas 542 102 626 532 yellow_rvrb 0;
#X obj 31 37 inlet~;
#X obj 57 476 outlet~;
#X obj 115 476 outlet~;
#X obj 124 194 freeverb~;
#X msg 325 117 roomsize \$1;
#X msg 325 162 damping \$1;
#X msg 325 206 width \$1;
#X msg 325 250 wet \$1;
#X msg 325 294 dry \$1;
#X msg 378 356 freeze \$1;
#X msg 384 403 bypass \$1;
#X obj 384 384 tgl 15 0 empty empty empty 0 -6 0 8 -262144 -1 -1 0
1;
#X obj 378 337 tgl 15 0 empty empty empty 0 -6 0 8 -262144 -1 -1 0
1;
#X obj 337 271 hsl 60 18 0 1 0 1 empty empty dry 2 9 1 12 -225271 -1
-1 0 0;
#X obj 337 227 hsl 60 18 0 1 0 1 empty empty wet 2 9 1 12 -225271 -1
-1 0 0;
#X obj 337 183 hsl 60 18 0 1 0 1 empty empty width 2 9 1 12 -262131
-1 -1 4130 0;
#X obj 337 139 hsl 60 18 0 2 0 1 empty empty damping 2 9 1 12 -261689
-1 -1 1770 0;
#X obj 337 94 hsl 60 18 0.11 1.1 0 1 empty empty roomsize 2 9 1 12
-261689 -1 -1 4708 0;
#X floatatom 307 98 3 0 0 0 - - -;
#X floatatom 307 143 3 0 0 0 - - -;
#X floatatom 307 188 3 0 0 0 - - -;
#X floatatom 307 231 3 0 0 0 - - -;
#X floatatom 307 275 3 0 0 0 - - -;
#X obj 444 21 loadbang;
#X msg 420 144 0.6;
#X msg 418 277 0;
#X msg 421 93 0.9;
#X msg 414 184 0.7;
#X obj 189 33 inlet;
#X text 187 13 reset;
#X obj 526 221 bng 20 250 50 0 empty empty empty 17 7 0 10 -204786
-1 -1;
#X obj 500 308 line;
#X floatatom 490 332 5 0 0 0 - - -;
#X msg 338 324 0;
#X msg 421 233 0;
#X msg 530 277 0 500;
#X obj 520 184 r yellow_7;
#X obj 496 386 r open_freeze;
#X msg 490 257 0.8 25000;
#X connect 0 0 3 0;
#X connect 0 0 3 1;
#X connect 3 0 1 0;
#X connect 3 1 2 0;
#X connect 4 0 3 0;
#X connect 5 0 3 0;
#X connect 6 0 3 0;
#X connect 7 0 3 0;
#X connect 8 0 3 0;
#X connect 9 0 3 0;
#X connect 10 0 3 0;
#X connect 11 0 10 0;
#X connect 12 0 9 0;
#X connect 13 0 8 0;
#X connect 13 0 22 0;
#X connect 14 0 7 0;
#X connect 14 0 21 0;
#X connect 15 0 6 0;
#X connect 15 0 20 0;
#X connect 16 0 5 0;
#X connect 16 0 19 0;
#X connect 17 0 4 0;
#X connect 17 0 18 0;
#X connect 23 0 26 0;
#X connect 23 0 24 0;
#X connect 23 0 27 0;
#X connect 23 0 34 0;
#X connect 23 0 25 0;
#X connect 24 0 16 0;
#X connect 25 0 13 0;
#X connect 26 0 17 0;
#X connect 27 0 15 0;
#X connect 28 0 33 0;
#X connect 28 0 35 0;
#X connect 30 0 38 0;
#X connect 31 0 32 0;
#X connect 32 0 14 0;
#X connect 33 0 12 0;
#X connect 34 0 14 0;
#X connect 35 0 31 0;
#X connect 36 0 30 0;
#X connect 37 0 12 0;
#X connect 38 0 31 0;
#X restore 177 357 pd yellow_rvrb;
#X obj 449 60 r yellow_6;
#X obj 224 223 r yellow_7;
#X connect 0 0 3 0;
#X connect 3 0 1 0;
#X connect 3 0 2 0;
#X connect 3 0 27 0;
#X connect 4 0 3 1;
#X connect 5 0 4 0;
#X connect 6 0 5 0;
#X connect 7 0 6 0;
#X connect 8 0 11 0;
#X connect 9 0 8 1;
#X connect 10 0 8 2;
#X connect 11 0 5 0;
#X connect 12 0 13 0;
#X connect 13 0 16 0;
#X connect 14 0 13 1;
#X connect 15 0 17 0;
#X connect 16 0 15 0;
#X connect 17 0 20 0;
#X connect 17 1 21 0;
#X connect 17 2 19 0;
#X connect 17 3 18 0;
#X connect 18 0 8 0;
#X connect 19 0 8 0;
#X connect 20 0 8 0;
#X connect 21 0 8 0;
#X connect 22 0 23 0;
#X connect 22 0 25 0;
#X connect 22 0 29 1;
#X connect 23 0 12 0;
#X connect 23 0 28 0;
#X connect 25 0 26 0;
#X connect 26 0 6 0;
#X connect 27 0 1 0;
#X connect 27 0 2 0;
#X connect 27 1 29 0;
#X connect 28 0 27 1;
#X connect 29 0 1 0;
#X connect 29 1 2 0;
#X connect 30 0 12 0;
#X connect 31 0 28 0;
#X restore 155 487 pd yellow_pitch;
#X obj 108 447 spigot~;
#X obj 173 419 tgl 15 0 empty empty empty 17 7 0 10 -262144 -1 -1 0
1;
#X text 103 9 reset;
#X obj 534 369 r yellow_4;
#X obj 153 388 r yellow_5;
#X connect 0 0 3 0;
#X connect 3 0 1 0;
#X connect 3 0 2 0;
#X connect 3 0 43 0;
#X connect 4 0 3 2;
#X connect 5 0 4 0;
#X connect 5 0 10 0;
#X connect 6 0 5 0;
#X connect 7 0 8 0;
#X connect 7 0 9 0;
#X connect 8 0 3 2;
#X connect 11 0 13 0;
#X connect 11 0 14 0;
#X connect 12 0 3 2;
#X connect 13 0 12 0;
#X connect 13 0 19 0;
#X connect 15 0 16 0;
#X connect 16 0 18 0;
#X connect 16 0 17 0;
#X connect 18 0 3 2;
#X connect 20 0 3 2;
#X connect 21 0 23 0;
#X connect 21 0 20 0;
#X connect 22 0 21 0;
#X connect 24 0 3 1;
#X connect 25 0 24 0;
#X connect 26 0 27 0;
#X connect 27 0 28 0;
#X connect 28 0 3 2;
#X connect 29 0 30 0;
#X connect 29 0 35 0;
#X connect 29 0 31 0;
#X connect 29 0 32 0;
#X connect 29 0 33 0;
#X connect 29 0 34 0;
#X connect 30 0 26 0;
#X connect 31 0 15 0;
#X connect 32 0 22 0;
#X connect 33 0 7 0;
#X connect 34 0 11 0;
#X connect 35 0 6 0;
#X connect 36 0 39 0;
#X connect 37 0 38 0;
#X connect 38 0 7 0;
#X connect 39 0 37 0;
#X connect 40 0 41 0;
#X connect 40 0 42 1;
#X connect 41 0 36 0;
#X connect 41 0 44 0;
#X connect 42 0 1 0;
#X connect 42 1 2 0;
#X connect 43 0 1 0;
#X connect 43 0 2 0;
#X connect 43 1 42 0;
#X connect 44 0 43 1;
#X connect 46 0 36 0;
#X connect 47 0 44 0;
#X restore 132 257 pd yellow_delai;
#X obj 54 206 spigot~;
#X obj 103 175 tgl 15 0 empty empty empty 17 7 0 10 -262144 -1 -1 1
1;
#X obj 123 66 inlet;
#X obj 219 55 inlet;
#X msg 219 101 0;
#X text 215 39 reset;
#X connect 0 0 9 0;
#X connect 1 0 0 1;
#X connect 2 0 0 0;
#X connect 4 0 6 0;
#X connect 4 0 1 0;
#X connect 6 0 0 1;
#X connect 8 0 3 0;
#X connect 8 1 5 0;
#X connect 9 0 3 0;
#X connect 9 0 5 0;
#X connect 9 1 8 0;
#X connect 10 0 9 1;
#X connect 11 0 10 0;
#X connect 12 0 13 0;
#X connect 13 0 10 0;
#X connect 13 0 8 1;
#X restore 364 454 pd yellow_traitements;
#N canvas 15 82 544 619 blue_traitements 0;
#X obj 55 100 e_tremolo;
#X msg 158 116 dry 0;
#X obj 61 60 inlet~;
#X obj 59 567 outlet~;
#X obj 364 31 loadbang;
#X obj 135 569 outlet~;
#X msg 132 89 freq 1.6;
#X text 48 18 tremolo;
#X obj 83 230 spigot~;
#X obj 132 199 tgl 15 0 empty empty empty 17 7 0 10 -262144 -1 -1 0
1;
#N canvas 367 130 628 576 blue_delai 0;
#X obj 32 49 inlet~;
#X obj 38 532 outlet~;
#X obj 91 542 outlet~;
#X msg 191 248 feedback \$1;
#X obj 191 194 / 100;
#X obj 191 88 vsl 15 100 0 100 0 0 empty empty feedback 0 -9 1 10 -262144
-1 -1 8712 0;
#X obj 438 92 vsl 15 100 0 2000 0 0 empty empty delay_time(ms) 0 -9
1 10 -262144 -1 -1 8167 0;
#X msg 438 248 delay \$1;
#X floatatom 445 201 8 0 0 0 - - -;
#X floatatom 208 218 5 0 0 0 - - -;
#X obj 514 64 vsl 15 128 0 127 0 0 empty empty delay_frequency 0 -9
1 10 -262144 -1 -1 10500 0;
#X msg 514 248 delayfreq \$1;
#X obj 514 198 mtof;
#X floatatom 552 201 5 0 0 1 pitch - -;
#X obj 278 56 vsl 15 128 0 127 0 0 empty empty lowpass_cutoff_fr. 0
-9 1 10 -262144 -1 -1 12000 0;
#X obj 278 190 mtof;
#X floatatom 292 218 8 0 0 0 - - -;
#X msg 278 248 lpfreq \$1;
#X floatatom 530 228 8 0 0 1 freq - -;
#X msg 359 248 input \$1;
#X obj 359 194 / 100;
#X obj 359 88 vsl 15 100 0 100 0 0 empty empty inputlevel 0 -9 1 10
-262144 -1 -1 9504 0;
#X floatatom 376 218 5 0 0 0 - - -;
#X obj 112 253 sig~ 0;
#X obj 112 147 vsl 15 100 0 2000 0 0 empty empty delay_time(ms) -10
-9 1 10 -262144 -1 -1 0 0;
#X obj 244 325 hsl 50 15 0 1 0 0 empty empty empty -2 -8 0 10 -262144
-1 -1 0 0;
#X floatatom 241 343 5 0 0 0 - - -;
#X msg 241 360 dry \$1;
#X obj 533 345 loadbang;
#X msg 342 377 0;
#X msg 258 26 120;
#X msg 360 48 96;
#X msg 433 55 1650;
#X msg 189 52 88;
#X obj 483 396 tgl 15 0 empty empty empty 17 7 0 10 -262144 -1 -1 0
1;
#X obj 324 428 random 1800;
#X obj 323 450 + 20;
#X obj 111 46 inlet;
#X msg 459 366 0;
#X obj 115 464 spigot~;
#X obj 180 436 tgl 15 0 empty empty empty 17 7 0 10 -262144 -1 -1 0
1;
#X text 110 26 reset;
#X text 22 11 delai;
#X obj 53 310 e_fbdelay delai3 2000;
#X obj 541 386 r blue_4;
#N canvas 46 103 677 485 blue_pitch 0;
#X obj 66 55 inlet~;
#X obj 71 435 outlet~;
#X obj 176 436 outlet~;
#X obj 104 236 e_pitchshift;
#X msg 219 169 pitch \$1;
#X floatatom 219 148 5 0 0 0 - - -;
#X obj 271 62 loadbang;
#X obj 323 385 line 0 3500;
#X floatatom 350 361 5 0 0 0 - - -;
#X floatatom 396 362 5 0 0 0 - - -;
#X floatatom 318 411 5 0 0 0 - - -;
#X obj 529 138 tgl 15 0 empty empty empty 17 7 0 10 -262144 -1 -1 0
1;
#X floatatom 582 141 5 0 0 0 - - -;
#X floatatom 517 225 5 0 0 0 - - -;
#X obj 517 193 random 4;
#X obj 519 259 sel 0 1 2 3;
#X msg 469 350 12 1500;
#X obj 557 87 inlet;
#X msg 542 114 0;
#X text 563 62 reset;
#X obj 388 111 bng 15 250 50 0 empty empty empty 17 7 0 10 -262144
-1 -1;
#X obj 385 133 delay 3600;
#X obj 171 310 spigot~;
#X obj 235 297 tgl 15 0 empty empty empty 17 7 0 10 -262144 -1 -1 0
1;
#X msg 317 281 3 3500;
#X msg 370 308 5 1000;
#X msg 431 320 7 3000;
#X text 32 14 pitchshifter;
#N canvas 542 102 626 532 blue_rvrb 0;
#X obj 31 71 inlet~;
#X obj 57 476 outlet~;
#X obj 115 476 outlet~;
#X obj 124 228 freeverb~;
#X msg 325 151 roomsize \$1;
#X msg 325 196 damping \$1;
#X msg 325 240 width \$1;
#X msg 325 284 wet \$1;
#X msg 325 328 dry \$1;
#X msg 378 390 freeze \$1;
#X msg 384 437 bypass \$1;
#X obj 384 418 tgl 15 0 empty empty empty 0 -6 0 8 -262144 -1 -1 0
1;
#X obj 378 371 tgl 15 0 empty empty empty 0 -6 0 8 -262144 -1 -1 0
1;
#X obj 337 305 hsl 60 18 0 1 0 1 empty empty dry 2 9 1 12 -225271 -1
-1 0 0;
#X obj 337 261 hsl 60 18 0 1 0 1 empty empty wet 2 9 1 12 -225271 -1
-1 0 0;
#X obj 337 217 hsl 60 18 0 1 0 1 empty empty width 2 9 1 12 -262131
-1 -1 4130 0;
#X obj 337 173 hsl 60 18 0 2 0 1 empty empty damping 2 9 1 12 -261689
-1 -1 1770 0;
#X obj 337 128 hsl 60 18 0.11 1.1 0 1 empty empty roomsize 2 9 1 12
-261689 -1 -1 4708 0;
#X floatatom 307 132 3 0 0 0 - - -;
#X floatatom 307 177 3 0 0 0 - - -;
#X floatatom 307 222 3 0 0 0 - - -;
#X floatatom 307 265 3 0 0 0 - - -;
#X floatatom 307 309 3 0 0 0 - - -;
#X obj 444 55 loadbang;
#X msg 420 178 0.6;
#X msg 418 311 0;
#X msg 421 127 0.9;
#X msg 414 218 0.7;
#X obj 189 67 inlet;
#X text 187 47 reset;
#X obj 526 255 bng 20 250 50 0 empty empty empty 17 7 0 10 -204786
-1 -1;
#X obj 500 342 line;
#X floatatom 490 366 5 0 0 0 - - -;
#X msg 338 358 0;
#X msg 421 267 0;
#X msg 530 311 0 500;
#X text 24 15 reverb;
#X obj 520 218 r blue_7;
#X obj 499 426 r open_freeze;
#X msg 490 291 0.8 25000;
#X connect 0 0 3 0;
#X connect 0 0 3 1;
#X connect 3 0 1 0;
#X connect 3 1 2 0;
#X connect 4 0 3 0;
#X connect 5 0 3 0;
#X connect 6 0 3 0;
#X connect 7 0 3 0;
#X connect 8 0 3 0;
#X connect 9 0 3 0;
#X connect 10 0 3 0;
#X connect 11 0 10 0;
#X connect 12 0 9 0;
#X connect 13 0 8 0;
#X connect 13 0 22 0;
#X connect 14 0 7 0;
#X connect 14 0 21 0;
#X connect 15 0 6 0;
#X connect 15 0 20 0;
#X connect 16 0 5 0;
#X connect 16 0 19 0;
#X connect 17 0 4 0;
#X connect 17 0 18 0;
#X connect 23 0 26 0;
#X connect 23 0 24 0;
#X connect 23 0 27 0;
#X connect 23 0 34 0;
#X connect 23 0 25 0;
#X connect 24 0 16 0;
#X connect 25 0 13 0;
#X connect 26 0 17 0;
#X connect 27 0 15 0;
#X connect 28 0 33 0;
#X connect 28 0 35 0;
#X connect 30 0 39 0;
#X connect 31 0 32 0;
#X connect 32 0 14 0;
#X connect 33 0 12 0;
#X connect 34 0 14 0;
#X connect 35 0 31 0;
#X connect 37 0 30 0;
#X connect 38 0 12 0;
#X connect 39 0 31 0;
#X restore 190 384 pd blue_rvrb;
#X obj 522 166 metro 1750;
#X msg 237 121 -12;
#X obj 462 87 r blue_6;
#X obj 237 250 r blue_7;
#X connect 0 0 3 0;
#X connect 3 0 1 0;
#X connect 3 0 2 0;
#X connect 3 0 22 0;
#X connect 4 0 3 1;
#X connect 5 0 4 0;
#X connect 6 0 30 0;
#X connect 7 0 10 0;
#X connect 8 0 7 1;
#X connect 9 0 7 2;
#X connect 10 0 5 0;
#X connect 11 0 29 0;
#X connect 12 0 29 1;
#X connect 13 0 15 0;
#X connect 14 0 13 0;
#X connect 15 0 24 0;
#X connect 15 1 25 0;
#X connect 15 2 26 0;
#X connect 15 3 16 0;
#X connect 16 0 7 0;
#X connect 17 0 18 0;
#X connect 17 0 20 0;
#X connect 17 0 28 1;
#X connect 18 0 11 0;
#X connect 18 0 23 0;
#X connect 20 0 21 0;
#X connect 21 0 30 0;
#X connect 22 0 1 0;
#X connect 22 0 2 0;
#X connect 22 1 28 0;
#X connect 23 0 22 1;
#X connect 24 0 7 0;
#X connect 25 0 7 0;
#X connect 26 0 7 0;
#X connect 28 0 1 0;
#X connect 28 1 2 0;
#X connect 29 0 14 0;
#X connect 30 0 5 0;
#X connect 31 0 11 0;
#X connect 32 0 23 0;
#X restore 162 504 pd blue_pitch;
#X msg 507 31 105;
#X obj 434 439 metro 1100;
#X obj 160 405 r blue_5;
#X connect 0 0 43 0;
#X connect 3 0 43 2;
#X connect 4 0 3 0;
#X connect 4 0 9 0;
#X connect 5 0 4 0;
#X connect 6 0 7 0;
#X connect 6 0 8 0;
#X connect 7 0 43 2;
#X connect 10 0 12 0;
#X connect 10 0 13 0;
#X connect 11 0 43 2;
#X connect 12 0 11 0;
#X connect 12 0 18 0;
#X connect 14 0 15 0;
#X connect 15 0 17 0;
#X connect 15 0 16 0;
#X connect 17 0 43 2;
#X connect 19 0 43 2;
#X connect 20 0 22 0;
#X connect 20 0 19 0;
#X connect 21 0 20 0;
#X connect 23 0 43 1;
#X connect 24 0 23 0;
#X connect 25 0 26 0;
#X connect 26 0 27 0;
#X connect 27 0 43 2;
#X connect 28 0 29 0;
#X connect 28 0 33 0;
#X connect 28 0 30 0;
#X connect 28 0 31 0;
#X connect 28 0 32 0;
#X connect 28 0 46 0;
#X connect 29 0 25 0;
#X connect 30 0 14 0;
#X connect 31 0 21 0;
#X connect 32 0 6 0;
#X connect 33 0 5 0;
#X connect 34 0 47 0;
#X connect 35 0 36 0;
#X connect 36 0 6 0;
#X connect 37 0 38 0;
#X connect 37 0 45 1;
#X connect 38 0 34 0;
#X connect 38 0 40 0;
#X connect 39 0 1 0;
#X connect 39 0 2 0;
#X connect 39 1 45 0;
#X connect 40 0 39 1;
#X connect 43 0 1 0;
#X connect 43 0 2 0;
#X connect 43 0 39 0;
#X connect 44 0 34 0;
#X connect 45 0 1 0;
#X connect 45 1 2 0;
#X connect 46 0 10 0;
#X connect 47 0 35 0;
#X connect 48 0 40 0;
#X restore 161 281 pd blue_delai;
#X obj 252 103 inlet;
#X obj 446 105 inlet;
#X text 440 84 reset;
#X msg 434 141 0;
#X connect 0 0 8 0;
#X connect 1 0 0 1;
#X connect 2 0 0 0;
#X connect 4 0 6 0;
#X connect 4 0 1 0;
#X connect 6 0 0 1;
#X connect 8 0 3 0;
#X connect 8 0 5 0;
#X connect 8 1 10 0;
#X connect 9 0 8 1;
#X connect 10 0 3 0;
#X connect 10 1 5 0;
#X connect 11 0 9 0;
#X connect 12 0 14 0;
#X connect 14 0 9 0;
#X connect 14 0 10 1;
#X restore 578 459 pd blue_traitements;
#N canvas 603 73 476 612 green_traitements 0;
#X obj 64 100 e_tremolo;
#X msg 167 116 dry 0;
#X msg 141 89 freq 2.3;
#X obj 65 60 inlet~;
#X obj 55 509 outlet~;
#X obj 368 31 loadbang;
#X obj 124 511 outlet~;
#X text 44 23 tremolo;
#X obj 59 241 spigot~;
#X obj 108 210 tgl 15 0 empty empty empty 17 7 0 10 -262144 -1 -1 0
1;
#N canvas 499 128 628 576 green_delai 0;
#X obj 32 49 inlet~;
#X obj 38 532 outlet~;
#X obj 91 542 outlet~;
#X msg 191 248 feedback \$1;
#X obj 191 194 / 100;
#X obj 191 88 vsl 15 100 0 100 0 0 empty empty feedback 0 -9 1 10 -262144
-1 -1 8712 0;
#X obj 438 92 vsl 15 100 0 2000 0 0 empty empty delay_time(ms) 0 -9
1 10 -262144 -1 -1 8167 0;
#X msg 438 248 delay \$1;
#X floatatom 445 201 8 0 0 0 - - -;
#X floatatom 208 218 5 0 0 0 - - -;
#X obj 514 64 vsl 15 128 0 127 0 0 empty empty delay_frequency 0 -9
1 10 -262144 -1 -1 9500 0;
#X msg 514 248 delayfreq \$1;
#X obj 514 198 mtof;
#X floatatom 552 201 5 0 0 1 pitch - -;
#X obj 278 56 vsl 15 128 0 127 0 0 empty empty lowpass_cutoff_fr. 0
-9 1 10 -262144 -1 -1 12000 0;
#X obj 278 190 mtof;
#X floatatom 292 218 8 0 0 0 - - -;
#X msg 278 248 lpfreq \$1;
#X floatatom 530 228 8 0 0 1 freq - -;
#X msg 359 248 input \$1;
#X obj 359 194 / 100;
#X obj 359 88 vsl 15 100 0 100 0 0 empty empty inputlevel 0 -9 1 10
-262144 -1 -1 9504 0;
#X floatatom 376 218 5 0 0 0 - - -;
#X obj 112 253 sig~ 0;
#X obj 112 147 vsl 15 100 0 2000 0 0 empty empty delay_time(ms) -10
-9 1 10 -262144 -1 -1 0 0;
#X obj 244 325 hsl 50 15 0 1 0 0 empty empty empty -2 -8 0 10 -262144
-1 -1 0 0;
#X floatatom 241 343 5 0 0 0 - - -;
#X msg 241 360 dry \$1;
#X obj 533 345 loadbang;
#X msg 342 377 0;
#X msg 258 26 120;
#X msg 360 48 96;
#X msg 433 55 1650;
#X msg 189 52 88;
#X obj 483 396 tgl 15 0 empty empty empty 17 7 0 10 -262144 -1 -1 0
1;
#X obj 324 428 random 1800;
#X obj 323 450 + 20;
#X obj 111 46 inlet;
#X msg 459 366 0;
#X obj 115 464 spigot~;
#X obj 180 436 tgl 15 0 empty empty empty 17 7 0 10 -262144 -1 -1 0
1;
#X text 110 26 reset;
#X text 22 11 delai;
#X obj 53 310 e_fbdelay delai4 2000;
#X obj 541 386 r green_4;
#N canvas 46 103 677 485 green_pitch 0;
#X obj 66 55 inlet~;
#X obj 71 435 outlet~;
#X obj 176 436 outlet~;
#X obj 104 236 e_pitchshift;
#X msg 219 169 pitch \$1;
#X floatatom 219 148 5 0 0 0 - - -;
#X obj 271 62 loadbang;
#X obj 323 385 line 0 3500;
#X floatatom 350 361 5 0 0 0 - - -;
#X floatatom 396 362 5 0 0 0 - - -;
#X floatatom 318 411 5 0 0 0 - - -;
#X obj 529 138 tgl 15 0 empty empty empty 17 7 0 10 -262144 -1 -1 0
1;
#X floatatom 582 141 5 0 0 0 - - -;
#X floatatom 517 225 5 0 0 0 - - -;
#X obj 517 193 random 4;
#X obj 519 259 sel 0 1 2 3;
#X msg 469 350 12 1500;
#X obj 557 87 inlet;
#X msg 542 114 0;
#X text 563 62 reset;
#X obj 388 111 bng 15 250 50 0 empty empty empty 17 7 0 10 -262144
-1 -1;
#X obj 385 133 delay 3600;
#X obj 171 310 spigot~;
#X obj 235 297 tgl 15 0 empty empty empty 17 7 0 10 -262144 -1 -1 0
1;
#X msg 317 281 3 3500;
#X msg 370 308 5 1000;
#X msg 431 320 7 3000;
#X text 32 14 pitchshifter;
#N canvas 542 102 626 532 green_rvrb 0;
#X obj 31 71 inlet~;
#X obj 57 476 outlet~;
#X obj 115 476 outlet~;
#X obj 124 228 freeverb~;
#X msg 325 151 roomsize \$1;
#X msg 325 196 damping \$1;
#X msg 325 240 width \$1;
#X msg 325 284 wet \$1;
#X msg 325 328 dry \$1;
#X msg 378 390 freeze \$1;
#X msg 384 437 bypass \$1;
#X obj 384 418 tgl 15 0 empty empty empty 0 -6 0 8 -262144 -1 -1 0
1;
#X obj 378 371 tgl 15 0 empty empty empty 0 -6 0 8 -262144 -1 -1 0
1;
#X obj 337 305 hsl 60 18 0 1 0 1 empty empty dry 2 9 1 12 -225271 -1
-1 0 0;
#X obj 337 261 hsl 60 18 0 1 0 1 empty empty wet 2 9 1 12 -225271 -1
-1 0 0;
#X obj 337 217 hsl 60 18 0 1 0 1 empty empty width 2 9 1 12 -262131
-1 -1 4130 0;
#X obj 337 173 hsl 60 18 0 2 0 1 empty empty damping 2 9 1 12 -261689
-1 -1 1770 0;
#X obj 337 128 hsl 60 18 0.11 1.1 0 1 empty empty roomsize 2 9 1 12
-261689 -1 -1 4708 0;
#X floatatom 307 132 3 0 0 0 - - -;
#X floatatom 307 177 3 0 0 0 - - -;
#X floatatom 307 222 3 0 0 0 - - -;
#X floatatom 307 265 3 0 0 0 - - -;
#X floatatom 307 309 3 0 0 0 - - -;
#X obj 444 55 loadbang;
#X msg 420 178 0.6;
#X msg 418 311 0;
#X msg 421 127 0.9;
#X msg 414 218 0.7;
#X obj 189 67 inlet;
#X text 187 47 reset;
#X obj 526 255 bng 20 250 50 0 empty empty empty 17 7 0 10 -204786
-1 -1;
#X obj 500 342 line;
#X floatatom 490 366 5 0 0 0 - - -;
#X msg 338 358 0;
#X msg 421 267 0;
#X msg 530 311 0 500;
#X text 24 15 reverb;
#X obj 520 218 r green_7;
#X obj 492 409 r open_freeze;
#X msg 490 291 0.8 25000;
#X connect 0 0 3 0;
#X connect 0 0 3 1;
#X connect 3 0 1 0;
#X connect 3 1 2 0;
#X connect 4 0 3 0;
#X connect 5 0 3 0;
#X connect 6 0 3 0;
#X connect 7 0 3 0;
#X connect 8 0 3 0;
#X connect 9 0 3 0;
#X connect 10 0 3 0;
#X connect 11 0 10 0;
#X connect 12 0 9 0;
#X connect 13 0 8 0;
#X connect 13 0 22 0;
#X connect 14 0 7 0;
#X connect 14 0 21 0;
#X connect 15 0 6 0;
#X connect 15 0 20 0;
#X connect 16 0 5 0;
#X connect 16 0 19 0;
#X connect 17 0 4 0;
#X connect 17 0 18 0;
#X connect 23 0 26 0;
#X connect 23 0 24 0;
#X connect 23 0 27 0;
#X connect 23 0 34 0;
#X connect 23 0 25 0;
#X connect 24 0 16 0;
#X connect 25 0 13 0;
#X connect 26 0 17 0;
#X connect 27 0 15 0;
#X connect 28 0 33 0;
#X connect 28 0 35 0;
#X connect 30 0 39 0;
#X connect 31 0 32 0;
#X connect 32 0 14 0;
#X connect 33 0 12 0;
#X connect 34 0 14 0;
#X connect 35 0 31 0;
#X connect 37 0 30 0;
#X connect 38 0 12 0;
#X connect 39 0 31 0;
#X restore 190 384 pd green_rvrb;
#X msg 237 121 -19;
#X obj 522 166 metro 1250;
#X obj 462 87 r green_6;
#X obj 237 250 r green_7;
#X connect 0 0 3 0;
#X connect 3 0 1 0;
#X connect 3 0 2 0;
#X connect 3 0 22 0;
#X connect 4 0 3 1;
#X connect 5 0 4 0;
#X connect 6 0 29 0;
#X connect 7 0 10 0;
#X connect 8 0 7 1;
#X connect 9 0 7 2;
#X connect 10 0 5 0;
#X connect 11 0 30 0;
#X connect 12 0 30 1;
#X connect 13 0 15 0;
#X connect 14 0 13 0;
#X connect 15 0 24 0;
#X connect 15 1 25 0;
#X connect 15 2 26 0;
#X connect 15 3 16 0;
#X connect 16 0 7 0;
#X connect 17 0 18 0;
#X connect 17 0 20 0;
#X connect 17 0 28 1;
#X connect 18 0 11 0;
#X connect 18 0 23 0;
#X connect 20 0 21 0;
#X connect 21 0 29 0;
#X connect 22 0 1 0;
#X connect 22 0 2 0;
#X connect 22 1 28 0;
#X connect 23 0 22 1;
#X connect 24 0 7 0;
#X connect 25 0 7 0;
#X connect 26 0 7 0;
#X connect 28 0 1 0;
#X connect 28 1 2 0;
#X connect 29 0 5 0;
#X connect 30 0 14 0;
#X connect 31 0 11 0;
#X connect 32 0 23 0;
#X restore 162 504 pd green_pitch;
#X msg 507 31 95;
#X obj 434 439 metro 850;
#X obj 160 405 r green_5;
#X connect 0 0 43 0;
#X connect 3 0 43 2;
#X connect 4 0 3 0;
#X connect 4 0 9 0;
#X connect 5 0 4 0;
#X connect 6 0 7 0;
#X connect 6 0 8 0;
#X connect 7 0 43 2;
#X connect 10 0 12 0;
#X connect 10 0 13 0;
#X connect 11 0 43 2;
#X connect 12 0 11 0;
#X connect 12 0 18 0;
#X connect 14 0 15 0;
#X connect 15 0 17 0;
#X connect 15 0 16 0;
#X connect 17 0 43 2;
#X connect 19 0 43 2;
#X connect 20 0 22 0;
#X connect 20 0 19 0;
#X connect 21 0 20 0;
#X connect 23 0 43 1;
#X connect 24 0 23 0;
#X connect 25 0 26 0;
#X connect 26 0 27 0;
#X connect 27 0 43 2;
#X connect 28 0 29 0;
#X connect 28 0 33 0;
#X connect 28 0 30 0;
#X connect 28 0 31 0;
#X connect 28 0 32 0;
#X connect 28 0 46 0;
#X connect 29 0 25 0;
#X connect 30 0 14 0;
#X connect 31 0 21 0;
#X connect 32 0 6 0;
#X connect 33 0 5 0;
#X connect 34 0 47 0;
#X connect 35 0 36 0;
#X connect 36 0 6 0;
#X connect 37 0 38 0;
#X connect 37 0 45 1;
#X connect 38 0 34 0;
#X connect 38 0 40 0;
#X connect 39 0 1 0;
#X connect 39 0 2 0;
#X connect 39 1 45 0;
#X connect 40 0 39 1;
#X connect 43 0 1 0;
#X connect 43 0 2 0;
#X connect 43 0 39 0;
#X connect 44 0 34 0;
#X connect 45 0 1 0;
#X connect 45 1 2 0;
#X connect 46 0 10 0;
#X connect 47 0 35 0;
#X connect 48 0 40 0;
#X restore 137 292 pd green_delai;
#X obj 222 147 inlet;
#X obj 349 147 inlet;
#X text 343 122 reset;
#X msg 352 184 0;
#X connect 0 0 8 0;
#X connect 1 0 0 1;
#X connect 2 0 0 1;
#X connect 3 0 0 0;
#X connect 5 0 2 0;
#X connect 5 0 1 0;
#X connect 8 0 4 0;
#X connect 8 0 6 0;
#X connect 8 1 10 0;
#X connect 9 0 8 1;
#X connect 10 0 4 0;
#X connect 10 1 6 0;
#X connect 11 0 9 0;
#X connect 12 0 14 0;
#X connect 14 0 9 0;
#X connect 14 0 10 1;
#X restore 812 455 pd green_traitements;
#X obj 74 113 s red_now;
#X obj 312 120 s yellow_now;
#X obj 529 118 s blue_now;
#X obj 770 111 s green_now;
#N canvas 609 222 460 322 envoi_sel 0;
#X obj 236 200 gate 4;
#X floatatom 227 173 5 0 4 0 - - -;
#X obj 148 99 r red_now;
#X obj 176 120 r yellow_now;
#X obj 213 97 r blue_now;
#X obj 261 118 r green_now;
#X msg 146 141 1;
#X msg 189 145 2;
#X msg 232 147 3;
#X msg 276 146 4;
#X obj 79 232 bng 15 250 50 0 empty empty empty 17 7 0 10 -258113 -1
-1;
#X obj 169 236 bng 15 250 50 0 empty empty empty 17 7 0 10 -257985
-1 -1;
#X obj 265 234 bng 15 250 50 0 empty empty empty 17 7 0 10 -4160 -1
-1;
#X obj 355 227 bng 15 250 50 0 empty empty empty 17 7 0 10 -4034 -1
-1;
#X obj 347 60 inlet;
#X obj 35 276 outlet;
#X obj 148 278 outlet;
#X obj 258 274 outlet;
#X obj 366 273 outlet;
#X connect 0 0 10 0;
#X connect 0 1 11 0;
#X connect 0 2 12 0;
#X connect 0 3 13 0;
#X connect 1 0 0 0;
#X connect 2 0 6 0;
#X connect 3 0 7 0;
#X connect 4 0 8 0;
#X connect 5 0 9 0;
#X connect 6 0 1 0;
#X connect 7 0 1 0;
#X connect 8 0 1 0;
#X connect 9 0 1 0;
#X connect 10 0 15 0;
#X connect 11 0 16 0;
#X connect 12 0 17 0;
#X connect 13 0 18 0;
#X connect 14 0 0 1;
#X restore 947 704 pd envoi_sel;
#X msg 628 309 0;
#X text 610 15 - counter pour chaque bouton;
#X text 606 33 - trame de fond composée/sinus solistes;
#N canvas 47 23 970 737 samples 0;
#N canvas 0 22 450 278 (subpatch) 0;
#X array office 250129 float 2;
#X coords 0 1 250129 -1 75 50 1 0 0;
#X restore 598 579 graph;
#X obj 287 583 soundfiler;
#X obj 512 420 loadbang;
#X obj -78 406 tabplay~ office;
#X obj 131 611 dac~;
#X obj 106 583 *~;
#X obj 148 580 *~;
#X obj 215 508 hsl 100 20 0 2 0 0 empty empty empty -2 -8 0 10 -262144
-1 -1 1980 0;
#X floatatom 209 536 5 0 0 0 - - -;
#X msg 201 560 \$1 20;
#X obj 203 583 line~;
#X msg 394 518 read -resize bears_beets.wav beets;
#N canvas 0 22 450 278 (subpatch) 0;
#X array galaxie 193463 float 2;
#X coords 0 1 193463 -1 75 50 1 0 0;
#X restore 598 654 graph;
#N canvas 0 22 450 278 (subpatch) 0;
#X array beets 91875 float 2;
#X coords 0 1 91875 -1 75 50 1 0 0;
#X restore 697 582 graph;
#N canvas 0 22 450 278 (subpatch) 0;
#X array no 27562 float 2;
#X coords 0 1 27562 -1 75 50 1 0 0;
#X restore 694 655 graph;
#X obj 58 409 tabplay~ galaxie;
#X obj 200 409 tabplay~ beets;
#X obj 342 404 tabplay~ no;
#X msg 126 469 stop;
#X msg 396 548 read -resize no.wav no;
#X obj -72 342 spigot;
#X obj -3 320 tgl 20 0 empty empty empty 17 7 0 10 -262144 -1 -1 0
1;
#X obj 58 342 spigot;
#X obj 143 319 tgl 20 0 empty empty empty 17 7 0 10 -262144 -1 -1 0
1;
#X obj 217 341 spigot;
#X obj 285 318 tgl 20 0 empty empty empty 17 7 0 10 -262144 -1 -1 0
1;
#X obj 340 343 spigot;
#X obj 409 328 tgl 20 0 empty empty empty 17 7 0 10 -262144 -1 -1 0
1;
#X obj -34 41 r office;
#X obj 160 37 r galaxie;
#X obj 357 586 soundfiler;
#X obj 434 588 soundfiler;
#X obj 504 591 soundfiler;
#X floatatom 281 615 10 0 0 0 - - -;
#X floatatom 352 621 10 0 0 0 - - -;
#X floatatom 431 621 10 0 0 0 - - -;
#X floatatom 507 615 10 0 0 0 - - -;
#X obj -62 486 bng 30 250 50 0 empty empty stop 4 10 0 10 -258113 -1
-1;
#X floatatom 278 685 8 0 0 0 - - -;
#X floatatom 353 689 8 0 0 0 - - -;
#X floatatom 436 689 8 0 0 0 - - -;
#X floatatom 511 693 8 0 0 0 - - -;
#X obj 278 640 / 44.1;
#X msg 285 484 0.4;
#X obj 353 644 / 44.1;
#X obj 436 644 / 44.1;
#X obj 511 648 / 44.1;
#X obj 297 42 r beets;
#X obj 428 40 r no;
#X obj 98 17 r blue_choice;
#X obj -48 654 s wait_office;
#X obj 1 686 s wait_galaxie;
#X obj 83 657 s wait_beets;
#X obj 146 685 s wait_no;
#X obj 386 17 r green_choice;
#X msg 808 58 0;
#X obj 806 32 inlet;
#X msg 396 456 read -resize office.wav office;
#X msg 397 489 read -resize galaxie.wav galaxie;
#X floatatom -27 229 5 0 0 0 - - -;
#X text 795 7 reset;
#X obj -27 179 bng 20 250 50 0 empty empty empty 17 7 0 10 -261682
-1 -1;
#X obj 14 180 bng 15 250 50 0 empty empty empty 17 7 0 10 -261234 -1
-1;
#X obj -24 257 sel 2;
#X obj -22 287 bng 15 250 50 0 empty empty empty 17 7 0 10 -262144
-1 -1;
#X obj -27 204 counter 2;
#X obj 666 60 r blue_choice;
#X obj 674 81 r green_choice;
#X obj 653 12 r red_choice;
#X obj -67 138 gate 2;
#X obj -68 167 bng 15 250 50 0 empty empty empty 17 7 0 10 -262144
-1 -1;
#X floatatom -66 116 5 0 0 0 - - -;
#X msg -80 93 1;
#X msg -46 95 2;
#X obj 658 37 r yellow_choice;
#X text -70 183 vide;
#X floatatom 124 230 5 0 0 0 - - -;
#X obj 116 180 bng 20 250 50 0 empty empty empty 17 7 0 10 -261682
-1 -1;
#X obj 166 179 bng 15 250 50 0 empty empty empty 17 7 0 10 -261234
-1 -1;
#X obj 127 258 sel 2;
#X obj 129 288 bng 15 250 50 0 empty empty empty 17 7 0 10 -262144
-1 -1;
#X obj 124 205 counter 2;
#X obj 109 113 gate 2;
#X obj 108 142 bng 15 250 50 0 empty empty empty 17 7 0 10 -262144
-1 -1;
#X floatatom 110 91 5 0 0 0 - - -;
#X msg 95 71 1;
#X msg 130 70 2;
#X text 106 158 vide;
#X obj 38 37 loadbang;
#X floatatom 267 229 5 0 0 0 - - -;
#X obj 259 178 bng 20 250 50 0 empty empty empty 17 7 0 10 -261682
-1 -1;
#X obj 309 178 bng 15 250 50 0 empty empty empty 17 7 0 10 -261234
-1 -1;
#X obj 273 291 bng 15 250 50 0 empty empty empty 17 7 0 10 -262144
-1 -1;
#X obj 267 204 counter 2;
#X obj 252 112 gate 2;
#X obj 251 141 bng 15 250 50 0 empty empty empty 17 7 0 10 -262144
-1 -1;
#X floatatom 253 90 5 0 0 0 - - -;
#X msg 238 70 1;
#X msg 273 69 2;
#X text 249 157 vide;
#X obj 253 21 r yellow_choice;
#X floatatom 399 242 5 0 0 0 - - -;
#X obj 391 191 bng 20 250 50 0 empty empty empty 17 7 0 10 -261682
-1 -1;
#X obj 441 191 bng 15 250 50 0 empty empty empty 17 7 0 10 -261234
-1 -1;
#X obj 402 270 sel 2;
#X obj 404 300 bng 15 250 50 0 empty empty empty 17 7 0 10 -262144
-1 -1;
#X obj 399 217 counter 2;
#X obj 384 125 gate 2;
#X obj 383 154 bng 15 250 50 0 empty empty empty 17 7 0 10 -262144
-1 -1;
#X floatatom 385 103 5 0 0 0 - - -;
#X msg 382 77 1;
#X msg 433 79 2;
#X text 381 170 vide;
#X obj -45 373 s no-go office;
#X obj 6 294 s go office;
#X obj 70 376 s no-go galaxie;
#X obj 238 373 s no-go beets;
#X obj 366 383 s no-go no;
#X obj 155 287 s go galaxie;
#X obj 315 285 s go beets;
#X obj 427 301 s go no;
#X obj -74 16 r red_choice;
#X obj 270 257 sel 2;
#X connect 1 0 33 0;
#X connect 2 0 57 0;
#X connect 2 0 58 0;
#X connect 2 0 11 0;
#X connect 2 0 19 0;
#X connect 2 0 43 0;
#X connect 3 0 5 0;
#X connect 3 0 6 0;
#X connect 3 1 21 0;
#X connect 3 1 72 0;
#X connect 3 1 62 0;
#X connect 5 0 4 0;
#X connect 6 0 4 1;
#X connect 7 0 8 0;
#X connect 8 0 9 0;
#X connect 9 0 10 0;
#X connect 10 0 6 1;
#X connect 10 0 5 1;
#X connect 11 0 31 0;
#X connect 15 0 5 0;
#X connect 15 0 6 0;
#X connect 15 1 23 0;
#X connect 15 1 78 0;
#X connect 15 1 85 0;
#X connect 16 0 5 0;
#X connect 16 0 6 0;
#X connect 16 1 25 0;
#X connect 16 1 91 0;
#X connect 16 1 97 0;
#X connect 17 0 5 0;
#X connect 17 0 6 0;
#X connect 17 1 27 0;
#X connect 17 1 103 0;
#X connect 17 1 110 0;
#X connect 18 0 3 0;
#X connect 18 0 15 0;
#X connect 18 0 16 0;
#X connect 18 0 17 0;
#X connect 19 0 32 0;
#X connect 20 0 3 0;
#X connect 21 0 20 1;
#X connect 22 0 15 0;
#X connect 23 0 22 1;
#X connect 24 0 16 0;
#X connect 25 0 24 1;
#X connect 26 0 17 0;
#X connect 27 0 26 1;
#X connect 28 0 61 0;
#X connect 28 0 73 0;
#X connect 29 0 86 0;
#X connect 29 0 77 0;
#X connect 30 0 34 0;
#X connect 31 0 35 0;
#X connect 32 0 36 0;
#X connect 33 0 42 0;
#X connect 34 0 44 0;
#X connect 35 0 45 0;
#X connect 36 0 46 0;
#X connect 37 0 18 0;
#X connect 38 0 50 0;
#X connect 39 0 51 0;
#X connect 40 0 52 0;
#X connect 41 0 53 0;
#X connect 42 0 38 0;
#X connect 43 0 7 0;
#X connect 44 0 39 0;
#X connect 45 0 40 0;
#X connect 46 0 41 0;
#X connect 47 0 98 0;
#X connect 47 0 90 0;
#X connect 48 0 111 0;
#X connect 48 0 102 0;
#X connect 49 0 82 1;
#X connect 54 0 107 1;
#X connect 55 0 27 0;
#X connect 55 0 25 0;
#X connect 55 0 23 0;
#X connect 55 0 21 0;
#X connect 56 0 55 0;
#X connect 56 0 72 0;
#X connect 56 0 78 0;
#X connect 56 0 62 0;
#X connect 56 0 91 0;
#X connect 56 0 103 0;
#X connect 56 0 110 0;
#X connect 56 0 97 0;
#X connect 56 0 85 0;
#X connect 57 0 1 0;
#X connect 58 0 30 0;
#X connect 59 0 63 0;
#X connect 61 0 65 0;
#X connect 62 0 65 3;
#X connect 63 0 64 0;
#X connect 64 0 21 0;
#X connect 64 0 20 0;
#X connect 64 0 114 0;
#X connect 64 0 113 0;
#X connect 65 0 59 0;
#X connect 66 0 62 0;
#X connect 66 0 72 0;
#X connect 66 0 91 0;
#X connect 66 0 97 0;
#X connect 66 0 110 0;
#X connect 66 0 103 0;
#X connect 66 0 113 0;
#X connect 66 0 116 0;
#X connect 66 0 117 0;
#X connect 67 0 62 0;
#X connect 67 0 72 0;
#X connect 67 0 85 0;
#X connect 67 0 78 0;
#X connect 67 0 91 0;
#X connect 67 0 97 0;
#X connect 67 0 113 0;
#X connect 67 0 116 0;
#X connect 67 0 115 0;
#X connect 68 0 85 0;
#X connect 68 0 78 0;
#X connect 68 0 91 0;
#X connect 68 0 97 0;
#X connect 68 0 110 0;
#X connect 68 0 103 0;
#X connect 68 0 115 0;
#X connect 68 0 116 0;
#X connect 68 0 117 0;
#X connect 69 0 70 0;
#X connect 69 1 61 0;
#X connect 71 0 69 0;
#X connect 72 0 71 0;
#X connect 73 0 71 0;
#X connect 74 0 85 0;
#X connect 74 0 78 0;
#X connect 74 0 110 0;
#X connect 74 0 103 0;
#X connect 74 0 72 0;
#X connect 74 0 62 0;
#X connect 74 0 113 0;
#X connect 74 0 115 0;
#X connect 74 0 117 0;
#X connect 76 0 79 0;
#X connect 77 0 81 0;
#X connect 78 0 81 3;
#X connect 79 0 80 0;
#X connect 80 0 23 0;
#X connect 80 0 22 0;
#X connect 80 0 118 0;
#X connect 80 0 115 0;
#X connect 81 0 76 0;
#X connect 82 0 83 0;
#X connect 82 1 77 0;
#X connect 84 0 82 0;
#X connect 85 0 84 0;
#X connect 86 0 84 0;
#X connect 88 0 72 0;
#X connect 88 0 85 0;
#X connect 88 0 97 0;
#X connect 88 0 110 0;
#X connect 89 0 122 0;
#X connect 90 0 93 0;
#X connect 91 0 93 3;
#X connect 92 0 25 0;
#X connect 92 0 24 0;
#X connect 92 0 116 0;
#X connect 92 0 119 0;
#X connect 93 0 89 0;
#X connect 94 0 95 0;
#X connect 94 1 90 0;
#X connect 96 0 94 0;
#X connect 97 0 96 0;
#X connect 98 0 96 0;
#X connect 100 0 94 1;
#X connect 101 0 104 0;
#X connect 102 0 106 0;
#X connect 103 0 106 3;
#X connect 104 0 105 0;
#X connect 105 0 26 0;
#X connect 105 0 27 0;
#X connect 105 0 120 0;
#X connect 105 0 117 0;
#X connect 106 0 101 0;
#X connect 107 0 108 0;
#X connect 107 1 102 0;
#X connect 109 0 107 0;
#X connect 110 0 109 0;
#X connect 111 0 109 0;
#X connect 121 0 69 1;
#X connect 122 0 92 0;
#X restore 947 51 pd samples;
#X obj 8 214 s all_colours;
#X obj 149 531 counter;
#X obj 384 531 counter;
#X obj 662 525 counter;
#X obj 877 524 counter;
#X floatatom 146 552 5 0 0 0 - - -;
#X floatatom 384 555 5 0 0 0 - - -;
#X floatatom 660 546 5 0 0 0 - - -;
#X floatatom 879 548 5 0 0 0 - - -;
#X obj 152 504 r red_now;
#X obj 386 507 r yellow_now;
#X obj 658 501 r blue_now;
#X obj 880 502 r green_now;
#X text 937 79 sons-surprises;
#X obj 410 603 s yellow_4;
#X obj 180 595 s red_4;
#X obj 673 594 s blue_4;
#X obj 905 595 s green_4;
#X obj 384 579 sel 2 3 4 5 6 7;
#X obj 420 623 s yellow_5;
#X obj 190 615 s red_5;
#X obj 683 614 s blue_5;
#X obj 915 615 s green_5;
#X obj 877 570 sel 2 3 4 5 6 7;
#X obj 654 572 sel 2 3 4 5 6 7;
#X obj 144 572 sel 2 3 4 5 6 7;
#X obj 212 639 s red_6;
#X obj 442 647 s yellow_6;
#X obj 705 638 s blue_6;
#X obj 937 639 s green_6;
#X obj 227 663 s red_7;
#X obj 457 671 s yellow_7;
#X obj 720 662 s blue_7;
#X obj 952 663 s green_7;
#X obj 550 619 bng 15 250 50 0 empty empty empty 17 7 0 10 -258113
-1 -1;
#X obj 573 621 bng 15 250 50 0 empty empty empty 17 7 0 10 -257985
-1 -1;
#X obj 598 622 bng 15 250 50 0 empty empty empty 17 7 0 10 -4160 -1
-1;
#X obj 622 621 bng 15 250 50 0 empty empty empty 17 7 0 10 -4034 -1
-1;
#X obj 549 642 counter;
#X floatatom 550 667 5 0 0 0 - - -;
#X obj 551 690 sel 4;
#X obj 580 715 s open_freeze;
#X obj 553 715 bng 15 250 50 0 empty empty empty 17 7 0 10 -260097
-1 -1;
#X text 596 685 action freeze lorsque tous les [freeverb~];
#X text 781 702 sont en fonction;
#X obj 146 236 line;
#X obj 378 232 line;
#X obj 584 236 line;
#X obj 830 236 line;
#X msg 826 204 0.02 10000;
#X msg 125 204 0.12 10000;
#X msg 211 197 0 25000;
#X msg 576 206 0.04 10000;
#X msg 362 201 0.04 10000;
#X msg 435 204 0 25000;
#X msg 656 210 0 25000;
#X msg 899 209 0 25000;
#X msg 39 159 0 500;
#X obj 184 706 QA_GestionQuestions;
#X connect 0 0 1 0;
#X connect 1 0 32 0;
#X connect 2 0 7 0;
#X connect 3 0 4 0;
#X connect 4 0 8 0;
#X connect 5 0 2 1;
#X connect 5 0 6 1;
#X connect 6 0 7 1;
#X connect 8 0 5 0;
#X connect 9 0 10 0;
#X connect 9 0 33 0;
#X connect 9 0 47 0;
#X connect 9 0 62 0;
#X connect 9 0 48 0;
#X connect 10 0 0 0;
#X connect 11 0 16 0;
#X connect 12 0 13 0;
#X connect 13 0 17 0;
#X connect 14 0 11 1;
#X connect 14 0 15 1;
#X connect 15 0 16 1;
#X connect 17 0 14 0;
#X connect 18 0 23 0;
#X connect 19 0 20 0;
#X connect 20 0 24 0;
#X connect 21 0 18 1;
#X connect 21 0 22 1;
#X connect 22 0 23 1;
#X connect 24 0 21 0;
#X connect 25 0 30 0;
#X connect 26 0 27 0;
#X connect 27 0 31 0;
#X connect 28 0 25 1;
#X connect 28 0 29 1;
#X connect 29 0 30 1;
#X connect 31 0 28 0;
#X connect 32 0 86 0;
#X connect 33 0 67 3;
#X connect 33 0 70 3;
#X connect 33 0 73 3;
#X connect 33 0 76 3;
#X connect 33 0 103 0;
#X connect 33 0 108 3;
#X connect 33 0 109 3;
#X connect 33 0 110 3;
#X connect 33 0 111 3;
#X connect 33 0 95 2;
#X connect 33 0 106 0;
#X connect 33 0 94 2;
#X connect 33 0 96 2;
#X connect 33 0 97 2;
#X connect 33 0 145 3;
#X connect 33 0 164 0;
#X connect 34 0 67 0;
#X connect 34 0 98 0;
#X connect 35 0 70 0;
#X connect 35 0 99 0;
#X connect 36 0 73 0;
#X connect 36 0 100 0;
#X connect 37 0 76 0;
#X connect 37 0 101 0;
#X connect 38 0 88 0;
#X connect 39 0 90 0;
#X connect 40 0 92 0;
#X connect 41 0 42 0;
#X connect 42 0 38 0;
#X connect 43 0 44 0;
#X connect 44 0 39 0;
#X connect 45 0 46 0;
#X connect 46 0 40 0;
#X connect 47 0 41 0;
#X connect 48 0 45 0;
#X connect 50 0 165 2;
#X connect 52 0 165 3;
#X connect 54 0 165 4;
#X connect 56 0 165 5;
#X connect 57 0 33 0;
#X connect 62 0 43 0;
#X connect 63 0 49 0;
#X connect 63 0 107 0;
#X connect 64 0 51 0;
#X connect 64 0 107 0;
#X connect 65 0 53 0;
#X connect 65 0 107 0;
#X connect 66 0 55 0;
#X connect 66 0 107 0;
#X connect 67 0 68 0;
#X connect 68 0 80 0;
#X connect 69 0 63 0;
#X connect 69 0 157 0;
#X connect 70 0 71 0;
#X connect 71 0 83 0;
#X connect 72 0 160 0;
#X connect 72 0 64 0;
#X connect 73 0 74 0;
#X connect 74 0 84 0;
#X connect 75 0 65 0;
#X connect 75 0 159 0;
#X connect 76 0 77 0;
#X connect 77 0 85 0;
#X connect 78 0 156 0;
#X connect 78 0 66 0;
#X connect 80 0 81 0;
#X connect 80 1 69 0;
#X connect 80 2 63 0;
#X connect 83 0 81 0;
#X connect 83 1 72 0;
#X connect 83 2 64 0;
#X connect 84 0 81 0;
#X connect 84 1 75 0;
#X connect 84 2 65 0;
#X connect 85 0 81 0;
#X connect 85 1 78 0;
#X connect 85 2 66 0;
#X connect 86 0 2 0;
#X connect 86 0 6 0;
#X connect 86 1 94 0;
#X connect 87 0 86 1;
#X connect 88 0 11 0;
#X connect 88 0 15 0;
#X connect 88 1 95 0;
#X connect 89 0 88 1;
#X connect 90 0 18 0;
#X connect 90 0 22 0;
#X connect 90 1 96 0;
#X connect 91 0 90 1;
#X connect 92 0 25 0;
#X connect 92 0 29 0;
#X connect 92 1 97 0;
#X connect 93 0 92 1;
#X connect 94 0 2 0;
#X connect 94 1 6 0;
#X connect 95 0 11 0;
#X connect 95 1 15 0;
#X connect 96 0 18 0;
#X connect 96 1 22 0;
#X connect 97 0 25 0;
#X connect 97 1 29 0;
#X connect 103 0 93 0;
#X connect 103 0 91 0;
#X connect 103 0 89 0;
#X connect 103 0 87 0;
#X connect 108 0 112 0;
#X connect 109 0 113 0;
#X connect 110 0 114 0;
#X connect 111 0 115 0;
#X connect 112 0 132 0;
#X connect 113 0 125 0;
#X connect 114 0 131 0;
#X connect 115 0 130 0;
#X connect 116 0 108 0;
#X connect 117 0 109 0;
#X connect 118 0 110 0;
#X connect 119 0 111 0;
#X connect 125 0 89 0;
#X connect 125 1 95 1;
#X connect 125 2 121 0;
#X connect 125 3 126 0;
#X connect 125 4 134 0;
#X connect 125 5 138 0;
#X connect 125 5 142 0;
#X connect 130 0 93 0;
#X connect 130 1 97 1;
#X connect 130 2 124 0;
#X connect 130 3 129 0;
#X connect 130 4 136 0;
#X connect 130 5 140 0;
#X connect 130 5 144 0;
#X connect 131 0 91 0;
#X connect 131 1 96 1;
#X connect 131 2 123 0;
#X connect 131 3 128 0;
#X connect 131 4 135 0;
#X connect 131 5 139 0;
#X connect 131 5 143 0;
#X connect 132 0 87 0;
#X connect 132 1 94 1;
#X connect 132 2 122 0;
#X connect 132 3 127 0;
#X connect 132 4 133 0;
#X connect 132 5 137 0;
#X connect 132 5 141 0;
#X connect 141 0 145 0;
#X connect 142 0 145 0;
#X connect 143 0 145 0;
#X connect 144 0 145 0;
#X connect 145 0 146 0;
#X connect 146 0 147 0;
#X connect 147 0 149 0;
#X connect 149 0 148 0;
#X connect 149 0 158 0;
#X connect 149 0 161 0;
#X connect 149 0 162 0;
#X connect 149 0 163 0;
#X connect 152 0 3 0;
#X connect 153 0 12 0;
#X connect 154 0 19 0;
#X connect 155 0 26 0;
#X connect 156 0 155 0;
#X connect 157 0 152 0;
#X connect 158 0 152 0;
#X connect 159 0 154 0;
#X connect 160 0 153 0;
#X connect 161 0 153 0;
#X connect 162 0 154 0;
#X connect 163 0 155 0;
#X connect 164 0 152 0;
#X connect 164 0 153 0;
#X connect 164 0 154 0;
#X connect 164 0 155 0;
