#N canvas 24 99 1240 540 10;
#X obj 43 109 gemwin;
#X obj 81 311 gemhead;
#X msg 83 47 0 \, destroy;
#X floatatom 134 386 5 0 0 0 - - -;
#X msg 109 436 font vera.ttf;
#X obj 109 410 loadbang;
#X msg 63 82 color 0 0 0;
#X text 917 47 cliquez pour connaître votre avenir;
#X obj 81 336 rotateXYZ;
#X floatatom 150 280 5 0 0 0 X - -;
#X floatatom 150 300 5 0 0 0 Y - -;
#X floatatom 150 320 5 0 0 0 Z - -;
#X obj 81 362 translate 1 0 2.5 0;
#X obj 49 181 inlet;
#X msg 83 23 dimen 1280 487 \, create \, 1;
#N canvas 264 23 540 421 start 0;
#X obj 131 24 inlet;
#X msg 272 272 20;
#X msg 308 244 text choose your favourite colour;
#X msg 309 274 say choose your favourite colour;
#X msg 30 252 text hello;
#X msg 31 278 say hello;
#X msg 65 203 40;
#X msg 171 249 text please;
#X msg 170 275 say please;
#X msg 136 266 35;
#X obj 150 64 tgl 45 0 empty empty start 0 7 0 16 -262144 -1 -1 0 1
;
#X obj 149 139 bng 20 250 50 0 empty empty empty 17 7 0 10 -262144
-1 -1;
#X floatatom 149 193 5 0 0 0 - - -;
#X obj 241 75 bng 20 250 50 0 empty empty empty 17 7 0 10 -261234 -1
-1;
#X obj 150 116 metro 390;
#X obj 127 342 outlet;
#X obj 247 340 outlet;
#X obj 359 343 outlet;
#X obj 466 360 outlet;
#X obj 412 306 bng 15 250 50 0 empty empty empty 17 7 0 10 -261682
-1 -1;
#X obj 428 338 bng 15 250 50 0 empty empty empty 17 7 0 10 -262144
-1 -1;
#X obj 443 317 delay 2800;
#X obj 149 170 counter 0 12;
#X obj 149 215 sel 1 6 9 12;
#X obj 232 18 inlet;
#X text 381 31 intro;
#X connect 0 0 10 0;
#X connect 1 0 17 0;
#X connect 2 0 3 0;
#X connect 2 0 1 0;
#X connect 2 0 16 0;
#X connect 2 0 19 0;
#X connect 3 0 15 0;
#X connect 4 0 5 0;
#X connect 4 0 6 0;
#X connect 4 0 16 0;
#X connect 5 0 15 0;
#X connect 6 0 17 0;
#X connect 7 0 8 0;
#X connect 7 0 9 0;
#X connect 7 0 16 0;
#X connect 8 0 15 0;
#X connect 9 0 17 0;
#X connect 10 0 14 0;
#X connect 11 0 22 0;
#X connect 12 0 23 0;
#X connect 13 0 22 2;
#X connect 14 0 11 0;
#X connect 19 0 21 0;
#X connect 20 0 18 0;
#X connect 21 0 20 0;
#X connect 22 0 12 0;
#X connect 23 0 4 0;
#X connect 23 1 7 0;
#X connect 23 2 2 0;
#X connect 23 3 10 0;
#X connect 24 0 13 0;
#X restore 49 211 pd start;
#X obj 49 490 shell;
#N canvas 448 23 789 578 first_colour_choice 0;
#X msg 246 98 text good choice;
#X msg 246 125 say good choice;
#X msg 399 107 text really?;
#X msg 399 135 say really?;
#X msg 494 169 text okay...;
#X msg 494 193 say okay...;
#X obj 496 141 bng 15 250 50 0 empty empty empty 17 7 0 10 -262144
-1 -1;
#X msg 644 133 text nice;
#X msg 641 158 say nice;
#X obj 71 22 inlet;
#X obj 255 25 inlet;
#X obj 433 17 inlet;
#X obj 652 18 inlet;
#X obj 494 110 delay 1000;
#X msg 22 122 35;
#X msg 204 124 35;
#X obj 501 85 bng 15 250 50 0 empty empty empty 17 7 0 10 -262144 -1
-1;
#X msg 598 106 35;
#X msg 341 151 35;
#X obj 90 308 outlet;
#X obj 238 307 outlet;
#X obj 395 306 outlet;
#X obj 636 336 outlet;
#X obj 642 304 bng 15 250 50 0 empty empty empty 17 7 0 10 -260097
-1 -1;
#X obj 622 267 bng 15 250 50 0 empty empty empty 17 7 0 10 -261682
-1 -1;
#X obj 679 276 delay 2600;
#X obj 70 61 delay 400;
#X obj 264 60 delay 400;
#X obj 417 59 delay 400;
#X obj 648 64 delay 400;
#X msg 57 96 text well;
#X msg 57 123 say well;
#X obj 141 126 bng 15 250 50 0 empty empty empty 17 7 0 10 -262144
-1 -1;
#X obj 140 150 delay 1000;
#X obj 137 173 bng 15 250 50 0 empty empty empty 17 7 0 10 -262144
-1 -1;
#X msg 131 201 text okay;
#X msg 128 224 say okay;
#X text 642 255 delay before erase;
#X text 81 338 say;
#X text 230 331 text;
#X text 396 334 font;
#X text 498 378 continue \, intro to the questions section...;
#X msg 324 410 text so now;
#X msg 324 431 say so now;
#X msg 282 431 35;
#X obj 488 414 bng 15 250 50 0 empty empty empty 17 7 0 10 -204800
-1 -1;
#X obj 488 434 delay 1000;
#X obj 468 454 bng 15 250 50 0 empty empty empty 17 7 0 10 -204800
-1 -1;
#X msg 468 474 text let the fun begin;
#X msg 468 495 say let the fun begin;
#X text 640 354 erase;
#X obj 568 532 delay 2500;
#X obj 496 357 delay 4600;
#X obj 724 536 outlet;
#X text 720 556 next;
#X obj 662 485 bng 15 250 50 0 empty empty empty 17 7 0 10 -232576
-1 -1;
#X obj 662 505 delay 1500;
#X text 130 16 suite intro;
#X connect 0 0 1 0;
#X connect 0 0 15 0;
#X connect 0 0 20 0;
#X connect 0 0 24 0;
#X connect 1 0 19 0;
#X connect 2 0 3 0;
#X connect 2 0 16 0;
#X connect 2 0 18 0;
#X connect 2 0 20 0;
#X connect 3 0 19 0;
#X connect 4 0 5 0;
#X connect 4 0 20 0;
#X connect 4 0 24 0;
#X connect 5 0 19 0;
#X connect 6 0 4 0;
#X connect 7 0 8 0;
#X connect 7 0 17 0;
#X connect 7 0 20 0;
#X connect 7 0 24 0;
#X connect 8 0 19 0;
#X connect 9 0 26 0;
#X connect 10 0 27 0;
#X connect 11 0 28 0;
#X connect 12 0 29 0;
#X connect 13 0 6 0;
#X connect 14 0 21 0;
#X connect 15 0 21 0;
#X connect 16 0 13 0;
#X connect 17 0 21 0;
#X connect 18 0 21 0;
#X connect 23 0 22 0;
#X connect 24 0 25 0;
#X connect 24 0 52 0;
#X connect 25 0 23 0;
#X connect 26 0 30 0;
#X connect 27 0 0 0;
#X connect 28 0 2 0;
#X connect 29 0 7 0;
#X connect 30 0 31 0;
#X connect 30 0 14 0;
#X connect 30 0 20 0;
#X connect 30 0 24 0;
#X connect 30 0 32 0;
#X connect 31 0 19 0;
#X connect 32 0 33 0;
#X connect 33 0 34 0;
#X connect 34 0 35 0;
#X connect 35 0 20 0;
#X connect 35 0 36 0;
#X connect 36 0 19 0;
#X connect 42 0 43 0;
#X connect 42 0 44 0;
#X connect 42 0 20 0;
#X connect 42 0 45 0;
#X connect 43 0 19 0;
#X connect 44 0 21 0;
#X connect 45 0 46 0;
#X connect 46 0 47 0;
#X connect 47 0 48 0;
#X connect 47 0 51 0;
#X connect 48 0 49 0;
#X connect 48 0 20 0;
#X connect 49 0 19 0;
#X connect 51 0 23 0;
#X connect 51 0 55 0;
#X connect 52 0 42 0;
#X connect 55 0 56 0;
#X connect 56 0 53 0;
#X restore 122 211 pd first_colour_choice;
#X obj 122 181 inlet;
#X obj 165 158 inlet;
#X obj 208 183 inlet;
#X obj 251 160 inlet;
#X msg 109 490 text;
#X text 152 489 erase;
#X text 96 129 introduction écrite;
#N canvas 216 95 856 439 questions_aléatoires 0;
#X msg 147 224 say when;
#X msg 290 227 say what;
#X obj 34 67 bng 25 250 50 0 empty empty empty 17 7 0 10 -261682 -1
-1;
#X msg 443 223 say why;
#X msg 573 220 say how;
#X floatatom 34 127 5 0 0 0 - - -;
#X obj 30 253 shell;
#X obj 69 249 bng 25 250 50 0 empty empty empty 17 7 0 10 -204786 -1
-1;
#X msg 727 209 say where;
#X obj 81 117 random 6;
#X obj 34 149 sel 0 1 2 3 4 5;
#X obj 146 255 shell;
#X obj 199 259 bng 25 250 50 0 empty empty empty 17 7 0 10 -204786
-1 -1;
#X obj 77 15 inlet;
#X obj 300 260 shell;
#X obj 353 264 bng 25 250 50 0 empty empty empty 17 7 0 10 -204786
-1 -1;
#X obj 450 256 shell;
#X obj 503 260 bng 25 250 50 0 empty empty empty 17 7 0 10 -204786
-1 -1;
#X obj 578 247 shell;
#X obj 631 251 bng 25 250 50 0 empty empty empty 17 7 0 10 -204786
-1 -1;
#X obj 735 247 shell;
#X obj 788 251 bng 25 250 50 0 empty empty empty 17 7 0 10 -204786
-1 -1;
#X msg 21 210 say who;
#X msg 39 179 set text who;
#X msg 163 196 set text when;
#X msg 296 200 set text what;
#X msg 446 193 set text why;
#X msg 581 190 set text how;
#X msg 742 179 set text where;
#X obj 148 379 outlet;
#X text 107 404 to textoutline (affiche principal questions);
#N canvas 28 23 1234 723 who_quest 0;
#X obj 14 11 inlet;
#X floatatom 14 58 5 0 0 0 - - -;
#X obj 13 152 shell;
#X obj 58 169 bng 25 250 50 0 empty empty empty 17 7 0 10 -204786 -1
-1;
#X msg 162 129 say are;
#X obj 14 36 random 3;
#X obj 14 80 sel 0 1 2;
#X msg 1026 70 set;
#X floatatom 58 254 5 0 0 0 - - -;
#X obj 18 521 shell;
#X obj 68 534 bng 25 250 50 0 empty empty empty 17 7 0 10 -204786 -1
-1;
#X obj 58 231 random 5;
#X obj 58 278 sel 0 1 2 3 4;
#X msg 93 103 add2 is;
#X msg 152 104 add2 are;
#X obj 791 66 inlet;
#X text 1003 48 erase question;
#X obj 100 152 shell;
#X obj 145 169 bng 25 250 50 0 empty empty empty 17 7 0 10 -204786
-1 -1;
#X obj 162 149 shell;
#X obj 208 166 bng 25 250 50 0 empty empty empty 17 7 0 10 -204786
-1 -1;
#X obj 558 194 random 5;
#X floatatom 558 217 5 0 0 0 - - -;
#X obj 558 241 sel 0 1 2 3 4;
#X floatatom 1182 218 5 0 0 0 - - -;
#X msg 13 104 add2 do you;
#X msg 110 409 say admire?;
#X msg 119 384 add2 admire?;
#X msg 13 324 add2 think you are?;
#X msg 18 355 say think you are?;
#X msg 216 359 say love?;
#X msg 219 332 add2 love?;
#X msg 289 425 say fear the most?;
#X msg 287 400 add2 fear the most?;
#X msg 379 357 say wanna help?;
#X msg 386 332 add2 wanna help?;
#X obj 541 529 shell;
#X obj 591 542 bng 25 250 50 0 empty empty empty 17 7 0 10 -204786
-1 -1;
#X obj 1153 507 shell;
#X obj 1203 520 bng 25 250 50 0 empty empty empty 17 7 0 10 -204786
-1 -1;
#X msg 548 325 add2 your best friend?;
#X msg 541 351 say your best friend?;
#X msg 609 381 add2 your worst enemy?;
#X msg 611 410 say your worst enemy?;
#X msg 723 318 add2 the weirdest person?;
#X msg 724 346 say the weirdest person?;
#X msg 911 321 add2 the most impressive one?;
#X msg 917 349 say the most impressive one?;
#X msg 1153 299 add2 the funniest people?;
#X msg 1153 328 say the funniest people?;
#X msg 1251 369 add2 your favourites?;
#X msg 1375 301 add2 the most amazing wizards?;
#X msg 1239 392 say your favourites?;
#X msg 1458 370 add2 my best qualities?;
#X msg 1449 404 say my best qualities?;
#X obj 1182 191 random 4;
#X obj 1182 240 sel 0 1 2 3;
#X msg 100 129 say is;
#X msg 13 129 say do you;
#X msg 1369 328 say the most amazing wizards?;
#X msg 861 645 text who are the most amazing wizards?;
#X msg 825 382 add2 the cutest animal?;
#X msg 824 410 say the cutest animal?;
#X obj 611 514 shell;
#X obj 661 527 bng 25 250 50 0 empty empty empty 17 7 0 10 -204786
-1 -1;
#X obj 724 494 shell;
#X obj 774 507 bng 25 250 50 0 empty empty empty 17 7 0 10 -204786
-1 -1;
#X obj 824 480 shell;
#X obj 874 493 bng 25 250 50 0 empty empty empty 17 7 0 10 -204786
-1 -1;
#X obj 917 472 shell;
#X obj 967 485 bng 25 250 50 0 empty empty empty 17 7 0 10 -204786
-1 -1;
#X obj 1239 490 shell;
#X obj 1289 503 bng 25 250 50 0 empty empty empty 17 7 0 10 -204786
-1 -1;
#X obj 1369 477 shell;
#X obj 1419 490 bng 25 250 50 0 empty empty empty 17 7 0 10 -204786
-1 -1;
#X obj 1449 470 shell;
#X obj 1499 483 bng 25 250 50 0 empty empty empty 17 7 0 10 -204786
-1 -1;
#N canvas 224 194 901 430 answers_who_think 0;
#X obj 34 110 inlet;
#X obj 34 392 text2d;
#X obj 34 253 gemhead;
#X msg 55 333 font vera.ttf;
#X obj 318 316 loadbang;
#X msg 60 57 text my mom;
#X msg 34 224 1;
#X msg 65 224 0;
#X floatatom 83 376 5 0 0 0 - - -;
#X msg 149 333 25;
#X obj 210 388 text2d;
#X obj 210 248 gemhead;
#X obj 396 393 text2d;
#X obj 606 392 text2d;
#X obj 396 247 gemhead;
#X obj 606 242 gemhead;
#X floatatom 262 372 5 0 0 0 - - -;
#X floatatom 444 377 5 0 0 0 - - -;
#X floatatom 657 376 5 0 0 0 - - -;
#X msg 210 220 1;
#X msg 242 219 0;
#X msg 396 218 1;
#X msg 428 217 0;
#X msg 606 213 1;
#X msg 638 212 0;
#X msg 222 57 text a random cat;
#X msg 414 55 text the prime minister;
#X msg 625 54 text Gandalf;
#X obj 34 135 bng 20 250 50 0 empty empty show_answers 10 7 0 12 -203904
-1 -1;
#X obj 638 112 bng 25 250 50 0 empty empty no_show -8 -8 0 14 -261234
-1 -1;
#X obj 34 280 translate 1 -6.15 -3 0;
#X obj 210 276 translate 1 -2.13 -3 0;
#X obj 396 275 translate 1 2.35 -3 0;
#X obj 606 270 translate 1 6.46 -3 0;
#X text 77 25 red;
#X text 248 29 yellow;
#X text 457 23 blue;
#X text 641 27 green;
#X obj 822 38 inlet;
#X connect 0 0 28 0;
#X connect 2 0 30 0;
#X connect 3 0 1 0;
#X connect 3 0 10 0;
#X connect 3 0 12 0;
#X connect 3 0 13 0;
#X connect 4 0 3 0;
#X connect 4 0 9 0;
#X connect 4 0 7 0;
#X connect 4 0 20 0;
#X connect 4 0 22 0;
#X connect 4 0 24 0;
#X connect 4 0 5 0;
#X connect 4 0 25 0;
#X connect 4 0 26 0;
#X connect 4 0 27 0;
#X connect 5 0 1 0;
#X connect 6 0 2 0;
#X connect 7 0 2 0;
#X connect 8 0 1 1;
#X connect 9 0 8 0;
#X connect 9 0 16 0;
#X connect 9 0 17 0;
#X connect 9 0 18 0;
#X connect 11 0 31 0;
#X connect 14 0 32 0;
#X connect 15 0 33 0;
#X connect 16 0 10 1;
#X connect 17 0 12 1;
#X connect 18 0 13 1;
#X connect 19 0 11 0;
#X connect 20 0 11 0;
#X connect 21 0 14 0;
#X connect 22 0 14 0;
#X connect 23 0 15 0;
#X connect 24 0 15 0;
#X connect 25 0 10 0;
#X connect 26 0 12 0;
#X connect 27 0 13 0;
#X connect 28 0 6 0;
#X connect 28 0 23 0;
#X connect 28 0 21 0;
#X connect 28 0 19 0;
#X connect 29 0 24 0;
#X connect 29 0 22 0;
#X connect 29 0 20 0;
#X connect 29 0 7 0;
#X connect 30 0 1 0;
#X connect 31 0 10 0;
#X connect 32 0 12 0;
#X connect 33 0 13 0;
#X connect 38 0 29 0;
#X restore 14 621 pd answers_who_think;
#X obj 110 521 shell;
#X obj 160 534 bng 25 250 50 0 empty empty empty 17 7 0 10 -204786
-1 -1;
#X obj 216 504 shell;
#X obj 266 517 bng 25 250 50 0 empty empty empty 17 7 0 10 -204786
-1 -1;
#X obj 289 492 shell;
#X obj 339 505 bng 25 250 50 0 empty empty empty 17 7 0 10 -204786
-1 -1;
#X obj 379 479 shell;
#X obj 429 492 bng 25 250 50 0 empty empty empty 17 7 0 10 -204786
-1 -1;
#N canvas 214 154 889 475 answers_who_admire 0;
#X obj 44 120 inlet;
#X obj 44 402 text2d;
#X obj 44 263 gemhead;
#X msg 65 343 font vera.ttf;
#X obj 328 326 loadbang;
#X msg 70 67 text my mom;
#X msg 44 234 1;
#X msg 75 234 0;
#X floatatom 93 386 5 0 0 0 - - -;
#X msg 159 343 25;
#X obj 220 398 text2d;
#X obj 220 258 gemhead;
#X obj 406 403 text2d;
#X obj 616 402 text2d;
#X obj 406 257 gemhead;
#X obj 616 252 gemhead;
#X floatatom 272 382 5 0 0 0 - - -;
#X floatatom 454 387 5 0 0 0 - - -;
#X floatatom 667 386 5 0 0 0 - - -;
#X msg 220 230 1;
#X msg 252 229 0;
#X msg 406 228 1;
#X msg 438 227 0;
#X msg 616 223 1;
#X msg 648 222 0;
#X msg 232 67 text a random cat;
#X msg 424 65 text the prime minister;
#X msg 635 64 text Gandalf;
#X obj 44 145 bng 20 250 50 0 empty empty show_answers 10 7 0 12 -203904
-1 -1;
#X obj 648 122 bng 25 250 50 0 empty empty no_show -8 -8 0 14 -261234
-1 -1;
#X obj 44 290 translate 1 -6.15 -3 0;
#X obj 220 286 translate 1 -2.13 -3 0;
#X obj 406 285 translate 1 2.35 -3 0;
#X obj 616 280 translate 1 6.46 -3 0;
#X text 87 35 red;
#X text 258 39 yellow;
#X text 467 33 blue;
#X text 651 37 green;
#X obj 832 48 inlet;
#X connect 0 0 28 0;
#X connect 2 0 30 0;
#X connect 3 0 1 0;
#X connect 3 0 10 0;
#X connect 3 0 12 0;
#X connect 3 0 13 0;
#X connect 4 0 3 0;
#X connect 4 0 9 0;
#X connect 4 0 7 0;
#X connect 4 0 20 0;
#X connect 4 0 22 0;
#X connect 4 0 24 0;
#X connect 4 0 5 0;
#X connect 4 0 25 0;
#X connect 4 0 26 0;
#X connect 4 0 27 0;
#X connect 5 0 1 0;
#X connect 6 0 2 0;
#X connect 7 0 2 0;
#X connect 8 0 1 1;
#X connect 9 0 8 0;
#X connect 9 0 16 0;
#X connect 9 0 17 0;
#X connect 9 0 18 0;
#X connect 11 0 31 0;
#X connect 14 0 32 0;
#X connect 15 0 33 0;
#X connect 16 0 10 1;
#X connect 17 0 12 1;
#X connect 18 0 13 1;
#X connect 19 0 11 0;
#X connect 20 0 11 0;
#X connect 21 0 14 0;
#X connect 22 0 14 0;
#X connect 23 0 15 0;
#X connect 24 0 15 0;
#X connect 25 0 10 0;
#X connect 26 0 12 0;
#X connect 27 0 13 0;
#X connect 28 0 6 0;
#X connect 28 0 23 0;
#X connect 28 0 21 0;
#X connect 28 0 19 0;
#X connect 29 0 24 0;
#X connect 29 0 22 0;
#X connect 29 0 20 0;
#X connect 29 0 7 0;
#X connect 30 0 1 0;
#X connect 31 0 10 0;
#X connect 32 0 12 0;
#X connect 33 0 13 0;
#X connect 38 0 29 0;
#X restore 83 594 pd answers_who_admire;
#N canvas 249 188 895 468 answers_who_love 0;
#X obj 38 37 inlet;
#X obj 54 412 text2d;
#X obj 54 273 gemhead;
#X msg 75 353 font vera.ttf;
#X obj 338 336 loadbang;
#X msg 80 77 text my mom;
#X msg 54 244 1;
#X msg 85 244 0;
#X floatatom 103 396 5 0 0 0 - - -;
#X msg 169 353 25;
#X obj 230 408 text2d;
#X obj 230 268 gemhead;
#X obj 416 413 text2d;
#X obj 626 412 text2d;
#X obj 416 267 gemhead;
#X obj 626 262 gemhead;
#X floatatom 282 392 5 0 0 0 - - -;
#X floatatom 464 397 5 0 0 0 - - -;
#X floatatom 677 396 5 0 0 0 - - -;
#X msg 230 240 1;
#X msg 262 239 0;
#X msg 416 238 1;
#X msg 448 237 0;
#X msg 626 233 1;
#X msg 658 232 0;
#X msg 242 77 text a random cat;
#X msg 434 75 text the prime minister;
#X msg 645 74 text Gandalf;
#X obj 54 155 bng 20 250 50 0 empty empty show_answers 10 7 0 12 -203904
-1 -1;
#X obj 658 132 bng 25 250 50 0 empty empty no_show -8 -8 0 14 -261234
-1 -1;
#X obj 54 300 translate 1 -6.15 -3 0;
#X obj 230 296 translate 1 -2.13 -3 0;
#X obj 416 295 translate 1 2.35 -3 0;
#X obj 626 290 translate 1 6.46 -3 0;
#X text 97 45 red;
#X text 268 49 yellow;
#X text 477 43 blue;
#X text 661 47 green;
#X obj 842 58 inlet;
#X connect 0 0 28 0;
#X connect 2 0 30 0;
#X connect 3 0 1 0;
#X connect 3 0 10 0;
#X connect 3 0 12 0;
#X connect 3 0 13 0;
#X connect 4 0 3 0;
#X connect 4 0 9 0;
#X connect 4 0 7 0;
#X connect 4 0 20 0;
#X connect 4 0 22 0;
#X connect 4 0 24 0;
#X connect 4 0 5 0;
#X connect 4 0 25 0;
#X connect 4 0 26 0;
#X connect 4 0 27 0;
#X connect 5 0 1 0;
#X connect 6 0 2 0;
#X connect 7 0 2 0;
#X connect 8 0 1 1;
#X connect 9 0 8 0;
#X connect 9 0 16 0;
#X connect 9 0 17 0;
#X connect 9 0 18 0;
#X connect 11 0 31 0;
#X connect 14 0 32 0;
#X connect 15 0 33 0;
#X connect 16 0 10 1;
#X connect 17 0 12 1;
#X connect 18 0 13 1;
#X connect 19 0 11 0;
#X connect 20 0 11 0;
#X connect 21 0 14 0;
#X connect 22 0 14 0;
#X connect 23 0 15 0;
#X connect 24 0 15 0;
#X connect 25 0 10 0;
#X connect 26 0 12 0;
#X connect 27 0 13 0;
#X connect 28 0 6 0;
#X connect 28 0 23 0;
#X connect 28 0 21 0;
#X connect 28 0 19 0;
#X connect 29 0 24 0;
#X connect 29 0 22 0;
#X connect 29 0 20 0;
#X connect 29 0 7 0;
#X connect 30 0 1 0;
#X connect 31 0 10 0;
#X connect 32 0 12 0;
#X connect 33 0 13 0;
#X connect 38 0 29 0;
#X restore 187 574 pd answers_who_love;
#N canvas 185 174 930 491 answers_who_fear 0;
#X obj 56 27 inlet;
#X obj 64 422 text2d;
#X obj 64 283 gemhead;
#X msg 85 363 font vera.ttf;
#X obj 348 346 loadbang;
#X msg 90 87 text my mom;
#X msg 64 254 1;
#X msg 95 254 0;
#X floatatom 113 406 5 0 0 0 - - -;
#X msg 179 363 25;
#X obj 240 418 text2d;
#X obj 240 278 gemhead;
#X obj 426 423 text2d;
#X obj 636 422 text2d;
#X obj 426 277 gemhead;
#X obj 636 272 gemhead;
#X floatatom 292 402 5 0 0 0 - - -;
#X floatatom 474 407 5 0 0 0 - - -;
#X floatatom 687 406 5 0 0 0 - - -;
#X msg 240 250 1;
#X msg 272 249 0;
#X msg 426 248 1;
#X msg 458 247 0;
#X msg 636 243 1;
#X msg 668 242 0;
#X msg 252 87 text a random cat;
#X msg 444 85 text the prime minister;
#X msg 655 84 text Gandalf;
#X obj 64 165 bng 20 250 50 0 empty empty show_answers 10 7 0 12 -203904
-1 -1;
#X obj 668 142 bng 25 250 50 0 empty empty no_show -8 -8 0 14 -261234
-1 -1;
#X obj 64 310 translate 1 -6.15 -3 0;
#X obj 240 306 translate 1 -2.13 -3 0;
#X obj 426 305 translate 1 2.35 -3 0;
#X obj 636 300 translate 1 6.46 -3 0;
#X text 107 55 red;
#X text 278 59 yellow;
#X text 487 53 blue;
#X text 671 57 green;
#X obj 852 68 inlet;
#X connect 0 0 28 0;
#X connect 2 0 30 0;
#X connect 3 0 1 0;
#X connect 3 0 10 0;
#X connect 3 0 12 0;
#X connect 3 0 13 0;
#X connect 4 0 3 0;
#X connect 4 0 9 0;
#X connect 4 0 7 0;
#X connect 4 0 20 0;
#X connect 4 0 22 0;
#X connect 4 0 24 0;
#X connect 4 0 5 0;
#X connect 4 0 25 0;
#X connect 4 0 26 0;
#X connect 4 0 27 0;
#X connect 5 0 1 0;
#X connect 6 0 2 0;
#X connect 7 0 2 0;
#X connect 8 0 1 1;
#X connect 9 0 8 0;
#X connect 9 0 16 0;
#X connect 9 0 17 0;
#X connect 9 0 18 0;
#X connect 11 0 31 0;
#X connect 14 0 32 0;
#X connect 15 0 33 0;
#X connect 16 0 10 1;
#X connect 17 0 12 1;
#X connect 18 0 13 1;
#X connect 19 0 11 0;
#X connect 20 0 11 0;
#X connect 21 0 14 0;
#X connect 22 0 14 0;
#X connect 23 0 15 0;
#X connect 24 0 15 0;
#X connect 25 0 10 0;
#X connect 26 0 12 0;
#X connect 27 0 13 0;
#X connect 28 0 6 0;
#X connect 28 0 23 0;
#X connect 28 0 21 0;
#X connect 28 0 19 0;
#X connect 29 0 24 0;
#X connect 29 0 22 0;
#X connect 29 0 20 0;
#X connect 29 0 7 0;
#X connect 30 0 1 0;
#X connect 31 0 10 0;
#X connect 32 0 12 0;
#X connect 33 0 13 0;
#X connect 38 0 29 0;
#X restore 274 554 pd answers_who_fear;
#N canvas 138 152 937 493 answers_who_help 0;
#X obj 15 23 inlet;
#X obj 74 432 text2d;
#X obj 74 293 gemhead;
#X msg 95 373 font vera.ttf;
#X obj 358 356 loadbang;
#X msg 100 97 text my mom;
#X msg 74 264 1;
#X msg 105 264 0;
#X floatatom 123 416 5 0 0 0 - - -;
#X msg 189 373 25;
#X obj 250 428 text2d;
#X obj 250 288 gemhead;
#X obj 436 433 text2d;
#X obj 646 432 text2d;
#X obj 436 287 gemhead;
#X obj 646 282 gemhead;
#X floatatom 302 412 5 0 0 0 - - -;
#X floatatom 484 417 5 0 0 0 - - -;
#X floatatom 697 416 5 0 0 0 - - -;
#X msg 250 260 1;
#X msg 282 259 0;
#X msg 436 258 1;
#X msg 468 257 0;
#X msg 646 253 1;
#X msg 678 252 0;
#X msg 262 97 text a random cat;
#X msg 454 95 text the prime minister;
#X msg 665 94 text Gandalf;
#X obj 74 175 bng 20 250 50 0 empty empty show_answers 10 7 0 12 -203904
-1 -1;
#X obj 678 152 bng 25 250 50 0 empty empty no_show -8 -8 0 14 -261234
-1 -1;
#X obj 74 320 translate 1 -6.15 -3 0;
#X obj 250 316 translate 1 -2.13 -3 0;
#X obj 436 315 translate 1 2.35 -3 0;
#X obj 646 310 translate 1 6.46 -3 0;
#X text 117 65 red;
#X text 288 69 yellow;
#X text 497 63 blue;
#X text 681 67 green;
#X obj 862 78 inlet;
#X connect 0 0 28 0;
#X connect 2 0 30 0;
#X connect 3 0 1 0;
#X connect 3 0 10 0;
#X connect 3 0 12 0;
#X connect 3 0 13 0;
#X connect 4 0 3 0;
#X connect 4 0 9 0;
#X connect 4 0 7 0;
#X connect 4 0 20 0;
#X connect 4 0 22 0;
#X connect 4 0 24 0;
#X connect 4 0 5 0;
#X connect 4 0 25 0;
#X connect 4 0 26 0;
#X connect 4 0 27 0;
#X connect 5 0 1 0;
#X connect 6 0 2 0;
#X connect 7 0 2 0;
#X connect 8 0 1 1;
#X connect 9 0 8 0;
#X connect 9 0 16 0;
#X connect 9 0 17 0;
#X connect 9 0 18 0;
#X connect 11 0 31 0;
#X connect 14 0 32 0;
#X connect 15 0 33 0;
#X connect 16 0 10 1;
#X connect 17 0 12 1;
#X connect 18 0 13 1;
#X connect 19 0 11 0;
#X connect 20 0 11 0;
#X connect 21 0 14 0;
#X connect 22 0 14 0;
#X connect 23 0 15 0;
#X connect 24 0 15 0;
#X connect 25 0 10 0;
#X connect 26 0 12 0;
#X connect 27 0 13 0;
#X connect 28 0 6 0;
#X connect 28 0 23 0;
#X connect 28 0 21 0;
#X connect 28 0 19 0;
#X connect 29 0 24 0;
#X connect 29 0 22 0;
#X connect 29 0 20 0;
#X connect 29 0 7 0;
#X connect 30 0 1 0;
#X connect 31 0 10 0;
#X connect 32 0 12 0;
#X connect 33 0 13 0;
#X connect 38 0 29 0;
#X restore 377 529 pd answers_who_help;
#N canvas 177 104 904 547 answers_who_friend 0;
#X obj 21 29 inlet;
#X obj 39 440 text2d;
#X obj 39 301 gemhead;
#X msg 60 381 font vera.ttf;
#X obj 323 364 loadbang;
#X msg 65 105 text my mom;
#X msg 39 272 1;
#X msg 70 272 0;
#X floatatom 88 424 5 0 0 0 - - -;
#X msg 154 381 25;
#X obj 215 436 text2d;
#X obj 215 296 gemhead;
#X obj 401 441 text2d;
#X obj 611 440 text2d;
#X obj 401 295 gemhead;
#X obj 611 290 gemhead;
#X floatatom 267 420 5 0 0 0 - - -;
#X floatatom 449 425 5 0 0 0 - - -;
#X floatatom 662 424 5 0 0 0 - - -;
#X msg 215 268 1;
#X msg 247 267 0;
#X msg 401 266 1;
#X msg 433 265 0;
#X msg 611 261 1;
#X msg 643 260 0;
#X msg 227 105 text a random cat;
#X msg 419 103 text the prime minister;
#X msg 630 102 text Gandalf;
#X obj 39 183 bng 20 250 50 0 empty empty show_answers 10 7 0 12 -203904
-1 -1;
#X obj 643 160 bng 25 250 50 0 empty empty no_show -8 -8 0 14 -261234
-1 -1;
#X obj 39 328 translate 1 -6.15 -3 0;
#X obj 215 324 translate 1 -2.13 -3 0;
#X obj 401 323 translate 1 2.35 -3 0;
#X obj 611 318 translate 1 6.46 -3 0;
#X text 82 73 red;
#X text 253 77 yellow;
#X text 462 71 blue;
#X text 646 75 green;
#X obj 827 86 inlet;
#X connect 0 0 28 0;
#X connect 2 0 30 0;
#X connect 3 0 1 0;
#X connect 3 0 10 0;
#X connect 3 0 12 0;
#X connect 3 0 13 0;
#X connect 4 0 3 0;
#X connect 4 0 9 0;
#X connect 4 0 7 0;
#X connect 4 0 20 0;
#X connect 4 0 22 0;
#X connect 4 0 24 0;
#X connect 4 0 5 0;
#X connect 4 0 25 0;
#X connect 4 0 26 0;
#X connect 4 0 27 0;
#X connect 5 0 1 0;
#X connect 6 0 2 0;
#X connect 7 0 2 0;
#X connect 8 0 1 1;
#X connect 9 0 8 0;
#X connect 9 0 16 0;
#X connect 9 0 17 0;
#X connect 9 0 18 0;
#X connect 11 0 31 0;
#X connect 14 0 32 0;
#X connect 15 0 33 0;
#X connect 16 0 10 1;
#X connect 17 0 12 1;
#X connect 18 0 13 1;
#X connect 19 0 11 0;
#X connect 20 0 11 0;
#X connect 21 0 14 0;
#X connect 22 0 14 0;
#X connect 23 0 15 0;
#X connect 24 0 15 0;
#X connect 25 0 10 0;
#X connect 26 0 12 0;
#X connect 27 0 13 0;
#X connect 28 0 6 0;
#X connect 28 0 23 0;
#X connect 28 0 21 0;
#X connect 28 0 19 0;
#X connect 29 0 24 0;
#X connect 29 0 22 0;
#X connect 29 0 20 0;
#X connect 29 0 7 0;
#X connect 30 0 1 0;
#X connect 31 0 10 0;
#X connect 32 0 12 0;
#X connect 33 0 13 0;
#X connect 38 0 29 0;
#X restore 517 608 pd answers_who_friend;
#N canvas 164 123 871 508 answers_who_enemy 0;
#X obj 15 25 inlet;
#X obj 34 442 text2d;
#X obj 34 303 gemhead;
#X msg 55 383 font vera.ttf;
#X obj 318 366 loadbang;
#X msg 60 107 text my mom;
#X msg 34 274 1;
#X msg 65 274 0;
#X floatatom 83 426 5 0 0 0 - - -;
#X msg 149 383 25;
#X obj 210 438 text2d;
#X obj 210 298 gemhead;
#X obj 396 443 text2d;
#X obj 606 442 text2d;
#X obj 396 297 gemhead;
#X obj 606 292 gemhead;
#X floatatom 262 422 5 0 0 0 - - -;
#X floatatom 444 427 5 0 0 0 - - -;
#X floatatom 657 426 5 0 0 0 - - -;
#X msg 210 270 1;
#X msg 242 269 0;
#X msg 396 268 1;
#X msg 428 267 0;
#X msg 606 263 1;
#X msg 638 262 0;
#X msg 222 107 text a random cat;
#X msg 414 105 text the prime minister;
#X msg 625 104 text Gandalf;
#X obj 34 185 bng 20 250 50 0 empty empty show_answers 10 7 0 12 -203904
-1 -1;
#X obj 638 162 bng 25 250 50 0 empty empty no_show -8 -8 0 14 -261234
-1 -1;
#X obj 34 330 translate 1 -6.15 -3 0;
#X obj 210 326 translate 1 -2.13 -3 0;
#X obj 396 325 translate 1 2.35 -3 0;
#X obj 606 320 translate 1 6.46 -3 0;
#X text 77 75 red;
#X text 248 79 yellow;
#X text 457 73 blue;
#X text 641 77 green;
#X obj 822 88 inlet;
#X connect 0 0 28 0;
#X connect 2 0 30 0;
#X connect 3 0 1 0;
#X connect 3 0 10 0;
#X connect 3 0 12 0;
#X connect 3 0 13 0;
#X connect 4 0 3 0;
#X connect 4 0 9 0;
#X connect 4 0 7 0;
#X connect 4 0 20 0;
#X connect 4 0 22 0;
#X connect 4 0 24 0;
#X connect 4 0 5 0;
#X connect 4 0 25 0;
#X connect 4 0 26 0;
#X connect 4 0 27 0;
#X connect 5 0 1 0;
#X connect 6 0 2 0;
#X connect 7 0 2 0;
#X connect 8 0 1 1;
#X connect 9 0 8 0;
#X connect 9 0 16 0;
#X connect 9 0 17 0;
#X connect 9 0 18 0;
#X connect 11 0 31 0;
#X connect 14 0 32 0;
#X connect 15 0 33 0;
#X connect 16 0 10 1;
#X connect 17 0 12 1;
#X connect 18 0 13 1;
#X connect 19 0 11 0;
#X connect 20 0 11 0;
#X connect 21 0 14 0;
#X connect 22 0 14 0;
#X connect 23 0 15 0;
#X connect 24 0 15 0;
#X connect 25 0 10 0;
#X connect 26 0 12 0;
#X connect 27 0 13 0;
#X connect 28 0 6 0;
#X connect 28 0 23 0;
#X connect 28 0 21 0;
#X connect 28 0 19 0;
#X connect 29 0 24 0;
#X connect 29 0 22 0;
#X connect 29 0 20 0;
#X connect 29 0 7 0;
#X connect 30 0 1 0;
#X connect 31 0 10 0;
#X connect 32 0 12 0;
#X connect 33 0 13 0;
#X connect 38 0 29 0;
#X restore 607 583 pd answers_who_enemy;
#N canvas 237 173 867 497 answers_who_weirdest 0;
#X obj 26 15 inlet;
#X obj 32 436 text2d;
#X obj 32 297 gemhead;
#X msg 53 377 font vera.ttf;
#X obj 316 360 loadbang;
#X msg 58 101 text my mom;
#X msg 32 268 1;
#X msg 63 268 0;
#X floatatom 81 420 5 0 0 0 - - -;
#X msg 147 377 25;
#X obj 208 432 text2d;
#X obj 208 292 gemhead;
#X obj 394 437 text2d;
#X obj 604 436 text2d;
#X obj 394 291 gemhead;
#X obj 604 286 gemhead;
#X floatatom 260 416 5 0 0 0 - - -;
#X floatatom 442 421 5 0 0 0 - - -;
#X floatatom 655 420 5 0 0 0 - - -;
#X msg 208 264 1;
#X msg 240 263 0;
#X msg 394 262 1;
#X msg 426 261 0;
#X msg 604 257 1;
#X msg 636 256 0;
#X msg 220 101 text a random cat;
#X msg 412 99 text the prime minister;
#X msg 623 98 text Gandalf;
#X obj 32 179 bng 20 250 50 0 empty empty show_answers 10 7 0 12 -203904
-1 -1;
#X obj 636 156 bng 25 250 50 0 empty empty no_show -8 -8 0 14 -261234
-1 -1;
#X obj 32 324 translate 1 -6.15 -3 0;
#X obj 208 320 translate 1 -2.13 -3 0;
#X obj 394 319 translate 1 2.35 -3 0;
#X obj 604 314 translate 1 6.46 -3 0;
#X text 75 69 red;
#X text 246 73 yellow;
#X text 455 67 blue;
#X text 639 71 green;
#X obj 820 82 inlet;
#X connect 0 0 28 0;
#X connect 2 0 30 0;
#X connect 3 0 1 0;
#X connect 3 0 10 0;
#X connect 3 0 12 0;
#X connect 3 0 13 0;
#X connect 4 0 3 0;
#X connect 4 0 9 0;
#X connect 4 0 7 0;
#X connect 4 0 20 0;
#X connect 4 0 22 0;
#X connect 4 0 24 0;
#X connect 4 0 5 0;
#X connect 4 0 25 0;
#X connect 4 0 26 0;
#X connect 4 0 27 0;
#X connect 5 0 1 0;
#X connect 6 0 2 0;
#X connect 7 0 2 0;
#X connect 8 0 1 1;
#X connect 9 0 8 0;
#X connect 9 0 16 0;
#X connect 9 0 17 0;
#X connect 9 0 18 0;
#X connect 11 0 31 0;
#X connect 14 0 32 0;
#X connect 15 0 33 0;
#X connect 16 0 10 1;
#X connect 17 0 12 1;
#X connect 18 0 13 1;
#X connect 19 0 11 0;
#X connect 20 0 11 0;
#X connect 21 0 14 0;
#X connect 22 0 14 0;
#X connect 23 0 15 0;
#X connect 24 0 15 0;
#X connect 25 0 10 0;
#X connect 26 0 12 0;
#X connect 27 0 13 0;
#X connect 28 0 6 0;
#X connect 28 0 23 0;
#X connect 28 0 21 0;
#X connect 28 0 19 0;
#X connect 29 0 24 0;
#X connect 29 0 22 0;
#X connect 29 0 20 0;
#X connect 29 0 7 0;
#X connect 30 0 1 0;
#X connect 31 0 10 0;
#X connect 32 0 12 0;
#X connect 33 0 13 0;
#X connect 38 0 29 0;
#X restore 696 562 pd answers_who_weirdest;
#N canvas 193 123 876 482 answers_who_cutest 0;
#X obj 32 26 inlet;
#X obj 12 424 text2d;
#X obj 12 285 gemhead;
#X msg 33 365 font vera.ttf;
#X obj 296 348 loadbang;
#X msg 38 89 text my mom;
#X msg 12 256 1;
#X msg 43 256 0;
#X floatatom 61 408 5 0 0 0 - - -;
#X msg 127 365 25;
#X obj 188 420 text2d;
#X obj 188 280 gemhead;
#X obj 374 425 text2d;
#X obj 584 424 text2d;
#X obj 374 279 gemhead;
#X obj 584 274 gemhead;
#X floatatom 240 404 5 0 0 0 - - -;
#X floatatom 422 409 5 0 0 0 - - -;
#X floatatom 635 408 5 0 0 0 - - -;
#X msg 188 252 1;
#X msg 220 251 0;
#X msg 374 250 1;
#X msg 406 249 0;
#X msg 584 245 1;
#X msg 616 244 0;
#X msg 200 89 text a random cat;
#X msg 392 87 text the prime minister;
#X msg 603 86 text Gandalf;
#X obj 12 167 bng 20 250 50 0 empty empty show_answers 10 7 0 12 -203904
-1 -1;
#X obj 616 144 bng 25 250 50 0 empty empty no_show -8 -8 0 14 -261234
-1 -1;
#X obj 12 312 translate 1 -6.15 -3 0;
#X obj 188 308 translate 1 -2.13 -3 0;
#X obj 374 307 translate 1 2.35 -3 0;
#X obj 584 302 translate 1 6.46 -3 0;
#X text 55 57 red;
#X text 226 61 yellow;
#X text 435 55 blue;
#X text 619 59 green;
#X obj 800 70 inlet;
#X connect 0 0 28 0;
#X connect 2 0 30 0;
#X connect 3 0 1 0;
#X connect 3 0 10 0;
#X connect 3 0 12 0;
#X connect 3 0 13 0;
#X connect 4 0 3 0;
#X connect 4 0 9 0;
#X connect 4 0 7 0;
#X connect 4 0 20 0;
#X connect 4 0 22 0;
#X connect 4 0 24 0;
#X connect 4 0 5 0;
#X connect 4 0 25 0;
#X connect 4 0 26 0;
#X connect 4 0 27 0;
#X connect 5 0 1 0;
#X connect 6 0 2 0;
#X connect 7 0 2 0;
#X connect 8 0 1 1;
#X connect 9 0 8 0;
#X connect 9 0 16 0;
#X connect 9 0 17 0;
#X connect 9 0 18 0;
#X connect 11 0 31 0;
#X connect 14 0 32 0;
#X connect 15 0 33 0;
#X connect 16 0 10 1;
#X connect 17 0 12 1;
#X connect 18 0 13 1;
#X connect 19 0 11 0;
#X connect 20 0 11 0;
#X connect 21 0 14 0;
#X connect 22 0 14 0;
#X connect 23 0 15 0;
#X connect 24 0 15 0;
#X connect 25 0 10 0;
#X connect 26 0 12 0;
#X connect 27 0 13 0;
#X connect 28 0 6 0;
#X connect 28 0 23 0;
#X connect 28 0 21 0;
#X connect 28 0 19 0;
#X connect 29 0 24 0;
#X connect 29 0 22 0;
#X connect 29 0 20 0;
#X connect 29 0 7 0;
#X connect 30 0 1 0;
#X connect 31 0 10 0;
#X connect 32 0 12 0;
#X connect 33 0 13 0;
#X connect 38 0 29 0;
#X restore 798 537 pd answers_who_cutest;
#N canvas 167 92 975 546 answers_who_impressive 0;
#X obj 34 32 inlet;
#X obj 92 480 text2d;
#X obj 92 341 gemhead;
#X msg 113 421 font vera.ttf;
#X obj 376 404 loadbang;
#X msg 118 145 text my mom;
#X msg 92 312 1;
#X msg 123 312 0;
#X floatatom 141 464 5 0 0 0 - - -;
#X msg 207 421 25;
#X obj 268 476 text2d;
#X obj 268 336 gemhead;
#X obj 454 481 text2d;
#X obj 664 480 text2d;
#X obj 454 335 gemhead;
#X obj 664 330 gemhead;
#X floatatom 320 460 5 0 0 0 - - -;
#X floatatom 502 465 5 0 0 0 - - -;
#X floatatom 715 464 5 0 0 0 - - -;
#X msg 268 308 1;
#X msg 300 307 0;
#X msg 454 306 1;
#X msg 486 305 0;
#X msg 664 301 1;
#X msg 696 300 0;
#X msg 280 145 text a random cat;
#X msg 472 143 text the prime minister;
#X msg 683 142 text Gandalf;
#X obj 92 223 bng 20 250 50 0 empty empty show_answers 10 7 0 12 -203904
-1 -1;
#X obj 696 200 bng 25 250 50 0 empty empty no_show -8 -8 0 14 -261234
-1 -1;
#X obj 92 368 translate 1 -6.15 -3 0;
#X obj 268 364 translate 1 -2.13 -3 0;
#X obj 454 363 translate 1 2.35 -3 0;
#X obj 664 358 translate 1 6.46 -3 0;
#X text 135 113 red;
#X text 306 117 yellow;
#X text 515 111 blue;
#X text 699 115 green;
#X obj 880 126 inlet;
#X connect 0 0 28 0;
#X connect 2 0 30 0;
#X connect 3 0 1 0;
#X connect 3 0 10 0;
#X connect 3 0 12 0;
#X connect 3 0 13 0;
#X connect 4 0 3 0;
#X connect 4 0 9 0;
#X connect 4 0 7 0;
#X connect 4 0 20 0;
#X connect 4 0 22 0;
#X connect 4 0 24 0;
#X connect 4 0 5 0;
#X connect 4 0 25 0;
#X connect 4 0 26 0;
#X connect 4 0 27 0;
#X connect 5 0 1 0;
#X connect 6 0 2 0;
#X connect 7 0 2 0;
#X connect 8 0 1 1;
#X connect 9 0 8 0;
#X connect 9 0 16 0;
#X connect 9 0 17 0;
#X connect 9 0 18 0;
#X connect 11 0 31 0;
#X connect 14 0 32 0;
#X connect 15 0 33 0;
#X connect 16 0 10 1;
#X connect 17 0 12 1;
#X connect 18 0 13 1;
#X connect 19 0 11 0;
#X connect 20 0 11 0;
#X connect 21 0 14 0;
#X connect 22 0 14 0;
#X connect 23 0 15 0;
#X connect 24 0 15 0;
#X connect 25 0 10 0;
#X connect 26 0 12 0;
#X connect 27 0 13 0;
#X connect 28 0 6 0;
#X connect 28 0 23 0;
#X connect 28 0 21 0;
#X connect 28 0 19 0;
#X connect 29 0 24 0;
#X connect 29 0 22 0;
#X connect 29 0 20 0;
#X connect 29 0 7 0;
#X connect 30 0 1 0;
#X connect 31 0 10 0;
#X connect 32 0 12 0;
#X connect 33 0 13 0;
#X connect 38 0 29 0;
#X restore 908 519 pd answers_who_impressive;
#N canvas 137 112 954 527 answers_who_funniest 0;
#X obj 28 24 inlet;
#X obj 94 463 text2d;
#X obj 94 324 gemhead;
#X msg 115 404 font vera.ttf;
#X obj 378 387 loadbang;
#X msg 120 128 text my mom;
#X msg 94 295 1;
#X msg 125 295 0;
#X floatatom 143 447 5 0 0 0 - - -;
#X msg 209 404 25;
#X obj 270 459 text2d;
#X obj 270 319 gemhead;
#X obj 456 464 text2d;
#X obj 666 463 text2d;
#X obj 456 318 gemhead;
#X obj 666 313 gemhead;
#X floatatom 322 443 5 0 0 0 - - -;
#X floatatom 504 448 5 0 0 0 - - -;
#X floatatom 717 447 5 0 0 0 - - -;
#X msg 270 291 1;
#X msg 302 290 0;
#X msg 456 289 1;
#X msg 488 288 0;
#X msg 666 284 1;
#X msg 698 283 0;
#X msg 282 128 text a random cat;
#X msg 474 126 text the prime minister;
#X msg 685 125 text Gandalf;
#X obj 94 206 bng 20 250 50 0 empty empty show_answers 10 7 0 12 -203904
-1 -1;
#X obj 698 183 bng 25 250 50 0 empty empty no_show -8 -8 0 14 -261234
-1 -1;
#X obj 94 351 translate 1 -6.15 -3 0;
#X obj 270 347 translate 1 -2.13 -3 0;
#X obj 456 346 translate 1 2.35 -3 0;
#X obj 666 341 translate 1 6.46 -3 0;
#X text 137 96 red;
#X text 308 100 yellow;
#X text 517 94 blue;
#X text 701 98 green;
#X obj 882 109 inlet;
#X connect 0 0 28 0;
#X connect 2 0 30 0;
#X connect 3 0 1 0;
#X connect 3 0 10 0;
#X connect 3 0 12 0;
#X connect 3 0 13 0;
#X connect 4 0 3 0;
#X connect 4 0 9 0;
#X connect 4 0 7 0;
#X connect 4 0 20 0;
#X connect 4 0 22 0;
#X connect 4 0 24 0;
#X connect 4 0 5 0;
#X connect 4 0 25 0;
#X connect 4 0 26 0;
#X connect 4 0 27 0;
#X connect 5 0 1 0;
#X connect 6 0 2 0;
#X connect 7 0 2 0;
#X connect 8 0 1 1;
#X connect 9 0 8 0;
#X connect 9 0 16 0;
#X connect 9 0 17 0;
#X connect 9 0 18 0;
#X connect 11 0 31 0;
#X connect 14 0 32 0;
#X connect 15 0 33 0;
#X connect 16 0 10 1;
#X connect 17 0 12 1;
#X connect 18 0 13 1;
#X connect 19 0 11 0;
#X connect 20 0 11 0;
#X connect 21 0 14 0;
#X connect 22 0 14 0;
#X connect 23 0 15 0;
#X connect 24 0 15 0;
#X connect 25 0 10 0;
#X connect 26 0 12 0;
#X connect 27 0 13 0;
#X connect 28 0 6 0;
#X connect 28 0 23 0;
#X connect 28 0 21 0;
#X connect 28 0 19 0;
#X connect 29 0 24 0;
#X connect 29 0 22 0;
#X connect 29 0 20 0;
#X connect 29 0 7 0;
#X connect 30 0 1 0;
#X connect 31 0 10 0;
#X connect 32 0 12 0;
#X connect 33 0 13 0;
#X connect 38 0 29 0;
#X restore 1112 604 pd answers_who_funniest;
#N canvas 223 78 855 533 answers_who_favourites 0;
#X obj 22 16 inlet;
#X obj -45 437 text2d;
#X obj -45 298 gemhead;
#X msg -24 378 font vera.ttf;
#X obj 239 361 loadbang;
#X msg -19 102 text my mom;
#X msg -45 269 1;
#X msg -14 269 0;
#X floatatom 4 421 5 0 0 0 - - -;
#X msg 70 378 25;
#X obj 131 433 text2d;
#X obj 131 293 gemhead;
#X obj 317 438 text2d;
#X obj 527 437 text2d;
#X obj 317 292 gemhead;
#X obj 527 287 gemhead;
#X floatatom 183 417 5 0 0 0 - - -;
#X floatatom 365 422 5 0 0 0 - - -;
#X floatatom 578 421 5 0 0 0 - - -;
#X msg 131 265 1;
#X msg 163 264 0;
#X msg 317 263 1;
#X msg 349 262 0;
#X msg 527 258 1;
#X msg 559 257 0;
#X msg 143 102 text a random cat;
#X msg 335 100 text the prime minister;
#X msg 546 99 text Gandalf;
#X obj -45 180 bng 20 250 50 0 empty empty show_answers 10 7 0 12 -203904
-1 -1;
#X obj 559 157 bng 25 250 50 0 empty empty no_show -8 -8 0 14 -261234
-1 -1;
#X obj -45 325 translate 1 -6.15 -3 0;
#X obj 131 321 translate 1 -2.13 -3 0;
#X obj 317 320 translate 1 2.35 -3 0;
#X obj 527 315 translate 1 6.46 -3 0;
#X text -2 70 red;
#X text 169 74 yellow;
#X text 378 68 blue;
#X text 562 72 green;
#X obj 743 83 inlet;
#X connect 0 0 28 0;
#X connect 2 0 30 0;
#X connect 3 0 1 0;
#X connect 3 0 10 0;
#X connect 3 0 12 0;
#X connect 3 0 13 0;
#X connect 4 0 3 0;
#X connect 4 0 9 0;
#X connect 4 0 7 0;
#X connect 4 0 20 0;
#X connect 4 0 22 0;
#X connect 4 0 24 0;
#X connect 4 0 5 0;
#X connect 4 0 25 0;
#X connect 4 0 26 0;
#X connect 4 0 27 0;
#X connect 5 0 1 0;
#X connect 6 0 2 0;
#X connect 7 0 2 0;
#X connect 8 0 1 1;
#X connect 9 0 8 0;
#X connect 9 0 16 0;
#X connect 9 0 17 0;
#X connect 9 0 18 0;
#X connect 11 0 31 0;
#X connect 14 0 32 0;
#X connect 15 0 33 0;
#X connect 16 0 10 1;
#X connect 17 0 12 1;
#X connect 18 0 13 1;
#X connect 19 0 11 0;
#X connect 20 0 11 0;
#X connect 21 0 14 0;
#X connect 22 0 14 0;
#X connect 23 0 15 0;
#X connect 24 0 15 0;
#X connect 25 0 10 0;
#X connect 26 0 12 0;
#X connect 27 0 13 0;
#X connect 28 0 6 0;
#X connect 28 0 23 0;
#X connect 28 0 21 0;
#X connect 28 0 19 0;
#X connect 29 0 24 0;
#X connect 29 0 22 0;
#X connect 29 0 20 0;
#X connect 29 0 7 0;
#X connect 30 0 1 0;
#X connect 31 0 10 0;
#X connect 32 0 12 0;
#X connect 33 0 13 0;
#X connect 38 0 29 0;
#X restore 1207 576 pd answers_who_favourites;
#N canvas 130 126 938 523 answers_who_wizards 0;
#X obj 15 15 inlet;
#X obj 68 441 text2d;
#X obj 68 302 gemhead;
#X msg 89 382 font vera.ttf;
#X obj 352 365 loadbang;
#X msg 94 106 text my mom;
#X msg 68 273 1;
#X msg 99 273 0;
#X floatatom 117 425 5 0 0 0 - - -;
#X msg 183 382 25;
#X obj 244 437 text2d;
#X obj 244 297 gemhead;
#X obj 430 442 text2d;
#X obj 640 441 text2d;
#X obj 430 296 gemhead;
#X obj 640 291 gemhead;
#X floatatom 296 421 5 0 0 0 - - -;
#X floatatom 478 426 5 0 0 0 - - -;
#X floatatom 691 425 5 0 0 0 - - -;
#X msg 244 269 1;
#X msg 276 268 0;
#X msg 430 267 1;
#X msg 462 266 0;
#X msg 640 262 1;
#X msg 672 261 0;
#X msg 256 106 text a random cat;
#X msg 448 104 text the prime minister;
#X msg 659 103 text Gandalf;
#X obj 68 184 bng 20 250 50 0 empty empty show_answers 10 7 0 12 -203904
-1 -1;
#X obj 672 161 bng 25 250 50 0 empty empty no_show -8 -8 0 14 -261234
-1 -1;
#X obj 68 329 translate 1 -6.15 -3 0;
#X obj 244 325 translate 1 -2.13 -3 0;
#X obj 430 324 translate 1 2.35 -3 0;
#X obj 640 319 translate 1 6.46 -3 0;
#X text 111 74 red;
#X text 282 78 yellow;
#X text 491 72 blue;
#X text 675 76 green;
#X obj 856 87 inlet;
#X connect 0 0 28 0;
#X connect 2 0 30 0;
#X connect 3 0 1 0;
#X connect 3 0 10 0;
#X connect 3 0 12 0;
#X connect 3 0 13 0;
#X connect 4 0 3 0;
#X connect 4 0 9 0;
#X connect 4 0 7 0;
#X connect 4 0 20 0;
#X connect 4 0 22 0;
#X connect 4 0 24 0;
#X connect 4 0 5 0;
#X connect 4 0 25 0;
#X connect 4 0 26 0;
#X connect 4 0 27 0;
#X connect 5 0 1 0;
#X connect 6 0 2 0;
#X connect 7 0 2 0;
#X connect 8 0 1 1;
#X connect 9 0 8 0;
#X connect 9 0 16 0;
#X connect 9 0 17 0;
#X connect 9 0 18 0;
#X connect 11 0 31 0;
#X connect 14 0 32 0;
#X connect 15 0 33 0;
#X connect 16 0 10 1;
#X connect 17 0 12 1;
#X connect 18 0 13 1;
#X connect 19 0 11 0;
#X connect 20 0 11 0;
#X connect 21 0 14 0;
#X connect 22 0 14 0;
#X connect 23 0 15 0;
#X connect 24 0 15 0;
#X connect 25 0 10 0;
#X connect 26 0 12 0;
#X connect 27 0 13 0;
#X connect 28 0 6 0;
#X connect 28 0 23 0;
#X connect 28 0 21 0;
#X connect 28 0 19 0;
#X connect 29 0 24 0;
#X connect 29 0 22 0;
#X connect 29 0 20 0;
#X connect 29 0 7 0;
#X connect 30 0 1 0;
#X connect 31 0 10 0;
#X connect 32 0 12 0;
#X connect 33 0 13 0;
#X connect 38 0 29 0;
#X restore 1324 554 pd answers_who_wizards;
#N canvas 204 146 854 473 answers_who_qualities 0;
#X obj 18 26 inlet;
#X obj 34 413 text2d;
#X obj 34 274 gemhead;
#X msg 55 354 font vera.ttf;
#X obj 318 337 loadbang;
#X msg 60 78 text my mom;
#X msg 34 245 1;
#X msg 65 245 0;
#X floatatom 83 397 5 0 0 0 - - -;
#X msg 149 354 25;
#X obj 210 409 text2d;
#X obj 210 269 gemhead;
#X obj 396 414 text2d;
#X obj 606 413 text2d;
#X obj 396 268 gemhead;
#X obj 606 263 gemhead;
#X floatatom 262 393 5 0 0 0 - - -;
#X floatatom 444 398 5 0 0 0 - - -;
#X floatatom 657 397 5 0 0 0 - - -;
#X msg 210 241 1;
#X msg 242 240 0;
#X msg 396 239 1;
#X msg 428 238 0;
#X msg 606 234 1;
#X msg 638 233 0;
#X msg 222 78 text a random cat;
#X msg 414 76 text the prime minister;
#X msg 625 75 text Gandalf;
#X obj 34 156 bng 20 250 50 0 empty empty show_answers 10 7 0 12 -203904
-1 -1;
#X obj 638 133 bng 25 250 50 0 empty empty no_show -8 -8 0 14 -261234
-1 -1;
#X obj 34 301 translate 1 -6.15 -3 0;
#X obj 210 297 translate 1 -2.13 -3 0;
#X obj 396 296 translate 1 2.35 -3 0;
#X obj 606 291 translate 1 6.46 -3 0;
#X text 77 46 red;
#X text 248 50 yellow;
#X text 457 44 blue;
#X text 641 48 green;
#X obj 790 60 inlet;
#X connect 0 0 28 0;
#X connect 2 0 30 0;
#X connect 3 0 1 0;
#X connect 3 0 10 0;
#X connect 3 0 12 0;
#X connect 3 0 13 0;
#X connect 4 0 3 0;
#X connect 4 0 9 0;
#X connect 4 0 7 0;
#X connect 4 0 20 0;
#X connect 4 0 22 0;
#X connect 4 0 24 0;
#X connect 4 0 5 0;
#X connect 4 0 25 0;
#X connect 4 0 26 0;
#X connect 4 0 27 0;
#X connect 5 0 1 0;
#X connect 6 0 2 0;
#X connect 7 0 2 0;
#X connect 8 0 1 1;
#X connect 9 0 8 0;
#X connect 9 0 16 0;
#X connect 9 0 17 0;
#X connect 9 0 18 0;
#X connect 11 0 31 0;
#X connect 14 0 32 0;
#X connect 15 0 33 0;
#X connect 16 0 10 1;
#X connect 17 0 12 1;
#X connect 18 0 13 1;
#X connect 19 0 11 0;
#X connect 20 0 11 0;
#X connect 21 0 14 0;
#X connect 22 0 14 0;
#X connect 23 0 15 0;
#X connect 24 0 15 0;
#X connect 25 0 10 0;
#X connect 26 0 12 0;
#X connect 27 0 13 0;
#X connect 28 0 6 0;
#X connect 28 0 23 0;
#X connect 28 0 21 0;
#X connect 28 0 19 0;
#X connect 29 0 24 0;
#X connect 29 0 22 0;
#X connect 29 0 20 0;
#X connect 29 0 7 0;
#X connect 30 0 1 0;
#X connect 31 0 10 0;
#X connect 32 0 12 0;
#X connect 33 0 13 0;
#X connect 38 0 29 0;
#X restore 1427 530 pd answers_who_qualities;
#X obj 861 674 outlet;
#X text 762 40 interrogation word incoming (set);
#X text 36 209 who do you;
#X text 563 174 who is;
#X text 1182 171 who are;
#X obj 139 660 bng 15 250 50 0 empty empty empty 17 7 0 10 -261682
-1 -1;
#X text 213 629 toutes les réponses sont pour l'instant les mêmes.
il ne s'agit que d'un test d'affichage.;
#X text 430 643 je prévois aussi utiliser un seul mécanisme de choix
de réponses et ne changer que les mots au lieu de continuer comme
c'est présenté ici pour l'instant (une sous-patch réponse pour chacune
des possiblités de question).;
#X connect 0 0 5 0;
#X connect 1 0 6 0;
#X connect 2 1 3 0;
#X connect 3 0 11 0;
#X connect 4 0 19 0;
#X connect 5 0 1 0;
#X connect 6 0 25 0;
#X connect 6 0 58 0;
#X connect 6 1 13 0;
#X connect 6 1 57 0;
#X connect 6 2 14 0;
#X connect 6 2 4 0;
#X connect 7 0 60 0;
#X connect 8 0 12 0;
#X connect 9 1 10 0;
#X connect 10 0 77 0;
#X connect 10 0 60 0;
#X connect 11 0 8 0;
#X connect 12 0 28 0;
#X connect 12 0 29 0;
#X connect 12 1 27 0;
#X connect 12 1 26 0;
#X connect 12 2 31 0;
#X connect 12 2 30 0;
#X connect 12 3 33 0;
#X connect 12 3 32 0;
#X connect 12 4 35 0;
#X connect 12 4 34 0;
#X connect 13 0 60 0;
#X connect 14 0 60 0;
#X connect 15 0 60 0;
#X connect 17 1 18 0;
#X connect 18 0 21 0;
#X connect 19 1 20 0;
#X connect 20 0 55 0;
#X connect 21 0 22 0;
#X connect 22 0 23 0;
#X connect 23 0 40 0;
#X connect 23 0 41 0;
#X connect 23 1 42 0;
#X connect 23 1 43 0;
#X connect 23 2 44 0;
#X connect 23 2 45 0;
#X connect 23 3 61 0;
#X connect 23 3 62 0;
#X connect 23 4 46 0;
#X connect 23 4 47 0;
#X connect 24 0 56 0;
#X connect 25 0 60 0;
#X connect 26 0 78 0;
#X connect 27 0 60 0;
#X connect 28 0 60 0;
#X connect 29 0 9 0;
#X connect 30 0 80 0;
#X connect 31 0 60 0;
#X connect 32 0 82 0;
#X connect 33 0 60 0;
#X connect 34 0 84 0;
#X connect 35 0 60 0;
#X connect 36 1 37 0;
#X connect 37 0 60 0;
#X connect 37 0 90 0;
#X connect 38 1 39 0;
#X connect 39 0 60 0;
#X connect 39 0 95 0;
#X connect 40 0 60 0;
#X connect 41 0 36 0;
#X connect 42 0 60 0;
#X connect 43 0 63 0;
#X connect 44 0 60 0;
#X connect 45 0 65 0;
#X connect 46 0 60 0;
#X connect 47 0 69 0;
#X connect 48 0 60 0;
#X connect 49 0 38 0;
#X connect 50 0 60 0;
#X connect 51 0 60 0;
#X connect 52 0 71 0;
#X connect 53 0 60 0;
#X connect 54 0 75 0;
#X connect 55 0 24 0;
#X connect 56 0 48 0;
#X connect 56 0 49 0;
#X connect 56 1 50 0;
#X connect 56 1 52 0;
#X connect 56 2 51 0;
#X connect 56 2 59 0;
#X connect 56 3 53 0;
#X connect 56 3 54 0;
#X connect 57 0 17 0;
#X connect 58 0 2 0;
#X connect 59 0 73 0;
#X connect 60 0 99 0;
#X connect 61 0 60 0;
#X connect 62 0 67 0;
#X connect 63 1 64 0;
#X connect 64 0 60 0;
#X connect 64 0 91 0;
#X connect 65 1 66 0;
#X connect 66 0 60 0;
#X connect 66 0 92 0;
#X connect 67 1 68 0;
#X connect 68 0 60 0;
#X connect 68 0 93 0;
#X connect 69 1 70 0;
#X connect 70 0 60 0;
#X connect 70 0 94 0;
#X connect 71 1 72 0;
#X connect 72 0 60 0;
#X connect 72 0 96 0;
#X connect 73 1 74 0;
#X connect 74 0 60 0;
#X connect 74 0 97 0;
#X connect 75 1 76 0;
#X connect 76 0 60 0;
#X connect 76 0 98 0;
#X connect 78 1 79 0;
#X connect 79 0 60 0;
#X connect 79 0 86 0;
#X connect 80 1 81 0;
#X connect 81 0 60 0;
#X connect 81 0 87 0;
#X connect 82 1 83 0;
#X connect 83 0 60 0;
#X connect 83 0 88 0;
#X connect 84 1 85 0;
#X connect 85 0 60 0;
#X connect 85 0 89 0;
#X restore 27 304 pd who_quest;
#N canvas 39 23 1203 703 when_quest 0;
#X obj 59 23 inlet;
#X floatatom 42 85 5 0 0 0 - - -;
#X obj 49 298 shell;
#X msg 197 199 say are;
#X msg 29 190 say do;
#X msg 86 202 say can;
#X msg 336 190 say is;
#X obj 111 297 bng 25 250 50 0 empty empty empty 17 7 0 10 -204786
-1 -1;
#X msg 361 157 say does;
#X obj 43 55 random 5;
#X obj 44 115 sel 0 1 2 3 4;
#X obj 231 302 shell;
#X obj 276 310 bng 25 250 50 0 empty empty empty 17 7 0 10 -204786
-1 -1;
#N canvas 244 169 509 377 when_main_pronouns 0;
#X obj 49 29 inlet;
#X obj 49 50 random 10;
#X floatatom 49 71 5 0 0 0 - - -;
#X obj 49 91 sel 0 1 2 3 4 5 6 7 8 9;
#X msg 70 163 say you;
#X msg 164 211 say they;
#X connect 0 0 1 0;
#X connect 1 0 2 0;
#X connect 2 0 3 0;
#X restore 132 257 pd when_main_pronouns;
#N canvas 532 196 490 386 when_3rd_pers 0;
#X obj 33 27 inlet;
#X floatatom 33 69 5 0 0 0 - - -;
#X obj 235 327 shell;
#X msg 61 172 say your mom;
#X msg 171 154 say the queen of england;
#X msg 215 204 say the sky;
#X msg 93 235 say my face;
#X obj 33 48 random 5;
#X obj 33 89 sel 0 1 2 3 4;
#X msg 302 173 say a blueberry;
#X obj 306 328 bng 25 250 50 0 empty empty empty 17 7 0 10 -204786
-1 -1;
#N canvas 323 419 450 300 when_ending_2 0;
#X obj 22 18 inlet;
#X obj 22 39 random 5;
#X floatatom 22 60 5 0 0 0 - - -;
#X obj 22 80 sel 0 1 2 3 4;
#X obj 187 260 shell;
#X msg 25 142 say sleeping;
#X msg 297 254 text ?;
#X connect 0 0 1 0;
#X connect 1 0 2 0;
#X connect 2 0 3 0;
#X connect 3 0 5 0;
#X connect 4 1 6 0;
#X connect 5 0 4 0;
#X restore 362 282 pd when_ending_2;
#X connect 0 0 7 0;
#X connect 1 0 8 0;
#X connect 2 1 10 0;
#X connect 3 0 2 0;
#X connect 4 0 2 0;
#X connect 5 0 2 0;
#X connect 6 0 2 0;
#X connect 7 0 1 0;
#X connect 8 0 3 0;
#X connect 8 1 6 0;
#X connect 8 2 5 0;
#X connect 8 3 4 0;
#X connect 8 4 9 0;
#X connect 9 0 2 0;
#X connect 10 0 11 0;
#X restore 327 272 pd when_3rd_pers;
#X obj 200 45 inlet;
#X text 162 21 interrogation word incoming (set);
#X connect 0 0 9 0;
#X connect 1 0 10 0;
#X connect 2 1 7 0;
#X connect 3 0 2 0;
#X connect 4 0 2 0;
#X connect 5 0 2 0;
#X connect 6 0 11 0;
#X connect 7 0 13 0;
#X connect 8 0 11 0;
#X connect 9 0 1 0;
#X connect 10 0 4 0;
#X connect 10 1 5 0;
#X connect 10 2 3 0;
#X connect 10 3 6 0;
#X connect 10 4 8 0;
#X connect 11 1 12 0;
#X connect 12 0 14 0;
#X restore 153 303 pd when_quest;
#N canvas 778 378 450 300 what_quest 0;
#X obj 32 24 inlet;
#X obj 214 49 inlet;
#X text 185 23 interrogation word incoming (set);
#X restore 292 315 pd what_quest;
#N canvas 836 365 450 300 why_quest 0;
#X obj 30 15 inlet;
#X obj 223 54 inlet;
#X text 194 28 interrogation word incoming (set);
#X restore 447 312 pd why_quest;
#N canvas 601 335 450 300 how_quest 0;
#X obj 21 17 inlet;
#X obj 213 51 inlet;
#X text 184 25 interrogation word incoming (set);
#X restore 586 316 pd how_quest;
#N canvas 787 347 450 300 where_quest 0;
#X obj 21 25 inlet;
#X obj 195 49 inlet;
#X text 166 23 interrogation word incoming (set);
#X restore 731 315 pd where_quest;
#X msg 26 106 0;
#X text 58 100 en ce moment \, seul les questions «Who» peuvent être
posées;
#X obj 57 41 delay 2000;
#X connect 0 0 11 0;
#X connect 1 0 14 0;
#X connect 2 0 37 0;
#X connect 3 0 16 0;
#X connect 4 0 18 0;
#X connect 5 0 10 0;
#X connect 6 1 7 0;
#X connect 7 0 31 0;
#X connect 8 0 20 0;
#X connect 9 0 5 0;
#X connect 10 0 23 0;
#X connect 10 0 22 0;
#X connect 10 1 24 0;
#X connect 10 1 0 0;
#X connect 10 2 25 0;
#X connect 10 2 1 0;
#X connect 10 3 26 0;
#X connect 10 3 3 0;
#X connect 10 4 27 0;
#X connect 10 4 4 0;
#X connect 10 5 28 0;
#X connect 10 5 8 0;
#X connect 11 1 12 0;
#X connect 12 0 32 0;
#X connect 13 0 39 0;
#X connect 14 1 15 0;
#X connect 15 0 33 0;
#X connect 16 1 17 0;
#X connect 17 0 34 0;
#X connect 18 1 19 0;
#X connect 19 0 35 0;
#X connect 20 1 21 0;
#X connect 21 0 36 0;
#X connect 22 0 6 0;
#X connect 23 0 31 1;
#X connect 24 0 32 1;
#X connect 25 0 33 1;
#X connect 26 0 34 1;
#X connect 27 0 35 1;
#X connect 28 0 36 1;
#X connect 31 0 29 0;
#X connect 37 0 5 0;
#X connect 39 0 2 0;
#X restore 251 278 pd questions_aléatoires;
#X text 960 362 - choix de réponses pertinents;
#X obj 987 194 coll;
#C restore;
#X text 101 225 say/ text/ font/ erase/ next;
#X obj 79 164 inlet;
#X text 79 154 reset;
#X obj 71 465 textoutline _;
#X obj 270 340 bng 15 250 50 0 empty empty empty 17 7 0 10 -232576
-1 -1;
#X msg 211 448 16;
#X text 124 162 red;
#X text 158 139 yellow;
#X text 213 164 blue;
#X text 248 143 green;
#X obj 365 14 inlet;
#X obj 371 42 counter 0 1;
#X floatatom 369 66 5 0 0 0 - - -;
#X obj 360 89 sel 0 1;
#X text 264 258 à développer...;
#X connect 1 0 8 0;
#X connect 2 0 0 0;
#X connect 3 0 31 1;
#X connect 4 0 31 0;
#X connect 5 0 4 0;
#X connect 5 0 22 0;
#X connect 6 0 0 0;
#X connect 8 0 12 0;
#X connect 9 0 8 1;
#X connect 10 0 8 2;
#X connect 11 0 8 3;
#X connect 12 0 31 0;
#X connect 13 0 15 0;
#X connect 14 0 0 0;
#X connect 15 0 16 0;
#X connect 15 1 31 0;
#X connect 15 2 3 0;
#X connect 15 3 22 0;
#X connect 17 0 16 0;
#X connect 17 1 31 0;
#X connect 17 2 3 0;
#X connect 17 3 22 0;
#X connect 17 4 25 0;
#X connect 18 0 17 0;
#X connect 19 0 17 1;
#X connect 20 0 17 2;
#X connect 21 0 17 3;
#X connect 22 0 31 0;
#X connect 25 0 31 0;
#X connect 25 0 32 0;
#X connect 29 0 15 1;
#X connect 29 0 39 3;
#X connect 32 0 33 0;
#X connect 33 0 31 1;
#X connect 38 0 39 0;
#X connect 39 0 40 0;
#X connect 40 0 41 0;
#X connect 41 0 2 0;
#X connect 41 1 14 0;
