#N canvas 0 52 1280 627 10;
#X obj 3 121 gemwin;
#X obj 34 414 gemhead;
#X msg 3 36 0 \, destroy;
#X floatatom 87 489 5 0 0 0 - - -;
#X msg 62 539 font vera.ttf;
#X obj 62 513 loadbang;
#X msg 23 74 color 0 0 0;
#X text 936 48 cliquez pour connaître votre avenir;
#X obj 24 568 textoutline;
#X obj 34 439 rotateXYZ;
#X floatatom 103 383 5 0 0 0 X - -;
#X floatatom 103 403 5 0 0 0 Y - -;
#X floatatom 103 423 5 0 0 0 Z - -;
#X obj 1148 80 gemhead;
#X obj 1148 183 circle;
#X msg 1070 114 draw line;
#X msg 1070 135 draw fill;
#X msg 1070 157 draw point;
#X floatatom 1207 157 5 0 0 0 - - -;
#X obj 1142 113 translate 1 7 0 0;
#X obj 871 183 part_head;
#X obj 1005 280 cube;
#X obj 1000 73 gemhead;
#X obj 985 112 translate 1 -7 0 0;
#X obj 981 250 rotateXYZ;
#X floatatom 872 232 5 0 0 0 - - -;
#X floatatom 880 260 5 0 0 0 - - -;
#X floatatom 905 289 5 0 0 0 - - -;
#X obj 978 225 color 1 0 0;
#X obj 684 204 line;
#X msg 669 167 720 2500;
#X msg 740 180 0 2500;
#X obj 735 81 metro;
#X obj 737 45 tgl 25 0 empty empty empty 17 7 0 10 -262144 -1 -1 0
1;
#X floatatom 784 67 5 0 0 0 - - -;
#X obj 740 114 counter 0 1;
#X obj 737 136 sel 0 1;
#X obj 791 204 line;
#X msg 804 163 360 2500;
#X msg 834 137 0 2500;
#X obj 632 33 tgl 35 0 empty empty empty 17 7 0 10 -203904 -1 -1 0
1;
#X msg 788 39 2500;
#X obj 844 26 loadbang;
#X obj 34 465 translate 1 0 2.5 0;
#X obj 2 164 inlet;
#X msg 3 12 dimen 1280 487 \, create \, 1;
#N canvas 605 23 540 421 start 1;
#X obj -272 46 inlet;
#X msg -131 294 20;
#X msg -95 266 text choose your favourite colour;
#X msg -94 296 say choose your favourite colour;
#X msg -373 274 text hello;
#X msg -372 300 say hello;
#X msg -338 225 40;
#X msg -232 271 text please;
#X msg -233 297 say please;
#X msg -267 288 35;
#X obj -253 86 tgl 45 0 empty empty start 0 7 0 16 -262144 -1 -1 0
1;
#X obj -254 161 bng 20 250 50 0 empty empty empty 17 7 0 10 -262144
-1 -1;
#X floatatom -254 215 5 0 0 0 - - -;
#X obj -159 161 bng 20 250 50 0 empty empty empty 17 7 0 10 -261234
-1 -1;
#X obj -253 138 metro 390;
#X obj -276 364 outlet;
#X obj -156 362 outlet;
#X obj -44 365 outlet;
#X obj 63 382 outlet;
#X obj 9 328 bng 15 250 50 0 empty empty empty 17 7 0 10 -261682 -1
-1;
#X obj 25 360 bng 15 250 50 0 empty empty empty 17 7 0 10 -262144 -1
-1;
#X obj 40 339 delay 2800;
#X obj -254 192 counter 0 12;
#X obj -254 237 sel 1 6 9 12;
#X connect 0 0 10 0;
#X connect 1 0 17 0;
#X connect 2 0 3 0;
#X connect 2 0 1 0;
#X connect 2 0 16 0;
#X connect 2 0 19 0;
#X connect 3 0 15 0;
#X connect 4 0 5 0;
#X connect 4 0 6 0;
#X connect 4 0 16 0;
#X connect 5 0 15 0;
#X connect 6 0 17 0;
#X connect 7 0 8 0;
#X connect 7 0 9 0;
#X connect 7 0 16 0;
#X connect 8 0 15 0;
#X connect 9 0 17 0;
#X connect 10 0 14 0;
#X connect 11 0 22 0;
#X connect 12 0 23 0;
#X connect 13 0 22 2;
#X connect 14 0 11 0;
#X connect 19 0 21 0;
#X connect 20 0 18 0;
#X connect 21 0 20 0;
#X connect 22 0 12 0;
#X connect 23 0 4 0;
#X connect 23 1 7 0;
#X connect 23 2 2 0;
#X connect 23 3 10 0;
#X restore 2 194 pd start;
#X obj 2 593 shell;
#N canvas 387 235 772 345 first_colour_choice 0;
#X msg 246 98 text good choice;
#X msg 246 125 say good choice;
#X msg 400 132 text really?;
#X msg 400 160 say really?;
#X msg 501 222 text okay...;
#X msg 501 246 say okay...;
#X obj 503 194 bng 15 250 50 0 empty empty empty 17 7 0 10 -262144
-1 -1;
#X msg 647 191 text nice;
#X msg 644 216 say nice;
#X obj 92 30 inlet;
#X obj 282 25 inlet;
#X obj 434 42 inlet;
#X obj 655 76 inlet;
#X obj 501 163 delay 1000;
#X msg 22 122 35;
#X msg 204 124 35;
#X obj 508 138 bng 15 250 50 0 empty empty empty 17 7 0 10 -262144
-1 -1;
#X msg 595 187 35;
#X msg 341 151 35;
#X obj 90 308 outlet;
#X obj 238 307 outlet;
#X obj 395 306 outlet;
#X obj 624 310 outlet;
#X obj 592 294 bng 15 250 50 0 empty empty empty 17 7 0 10 -262144
-1 -1;
#X obj 605 261 bng 15 250 50 0 empty empty empty 17 7 0 10 -261682
-1 -1;
#X obj 632 274 delay 2600;
#X obj 91 69 delay 400;
#X obj 264 60 delay 400;
#X obj 418 84 delay 400;
#X obj 651 122 delay 400;
#X msg 78 104 text well;
#X msg 78 131 say well;
#X obj 155 130 bng 15 250 50 0 empty empty empty 17 7 0 10 -262144
-1 -1;
#X obj 154 154 delay 1000;
#X obj 137 177 bng 15 250 50 0 empty empty empty 17 7 0 10 -262144
-1 -1;
#X msg 175 188 text okay;
#X msg 172 211 say okay;
#X connect 0 0 1 0;
#X connect 0 0 15 0;
#X connect 0 0 20 0;
#X connect 0 0 24 0;
#X connect 1 0 19 0;
#X connect 2 0 3 0;
#X connect 2 0 16 0;
#X connect 2 0 18 0;
#X connect 2 0 20 0;
#X connect 3 0 19 0;
#X connect 4 0 5 0;
#X connect 4 0 20 0;
#X connect 4 0 24 0;
#X connect 5 0 19 0;
#X connect 6 0 4 0;
#X connect 7 0 8 0;
#X connect 7 0 17 0;
#X connect 7 0 20 0;
#X connect 7 0 24 0;
#X connect 8 0 19 0;
#X connect 9 0 26 0;
#X connect 10 0 27 0;
#X connect 11 0 28 0;
#X connect 12 0 29 0;
#X connect 13 0 6 0;
#X connect 14 0 21 0;
#X connect 15 0 21 0;
#X connect 16 0 13 0;
#X connect 17 0 21 0;
#X connect 18 0 21 0;
#X connect 23 0 22 0;
#X connect 24 0 25 0;
#X connect 25 0 23 0;
#X connect 26 0 30 0;
#X connect 27 0 0 0;
#X connect 28 0 2 0;
#X connect 29 0 7 0;
#X connect 30 0 31 0;
#X connect 30 0 14 0;
#X connect 30 0 20 0;
#X connect 30 0 24 0;
#X connect 30 0 32 0;
#X connect 31 0 19 0;
#X connect 32 0 33 0;
#X connect 33 0 34 0;
#X connect 34 0 35 0;
#X connect 35 0 20 0;
#X connect 35 0 36 0;
#X connect 36 0 19 0;
#X restore 75 194 pd first_colour_choice;
#X obj 75 164 inlet;
#X obj 118 141 inlet;
#X obj 161 166 inlet;
#X obj 204 143 inlet;
#X msg 62 593 text;
#X text 105 592 erase;
#X text 55 211 say / text / font / erase;
#X text 65 114 introduction écrite;
#N canvas 279 295 856 439 questions_aléatoires 0;
#X msg 149 141 say when;
#X msg 291 140 say what;
#X obj 17 10 bng 25 250 50 0 empty empty empty 17 7 0 10 -261682 -1
-1;
#X msg 17 142 say who;
#X msg 441 138 say why;
#X msg 590 137 say how;
#X floatatom 17 70 5 0 0 0 - - -;
#X obj 17 298 shell;
#X obj 56 294 bng 25 250 50 0 empty empty empty 17 7 0 10 -204786 -1
-1;
#X msg 400 373 say is;
#X msg 728 347 say are;
#X msg 527 378 say many;
#X msg 613 378 say much;
#X msg 663 349 say do;
#X msg 689 379 say does;
#X msg 466 375 say can;
#X msg 729 136 say where;
#X obj 17 46 random 6;
#X obj 17 92 sel 0 1 2 3 4 5;
#N canvas 16 206 470 399 who_action 0;
#X msg 139 63 say is;
#X msg 206 144 say can;
#X msg 111 162 say does;
#X msg 286 151 say are;
#X msg 386 172 say goes;
#X msg 339 223 say sleeps;
#X msg 170 248 say cries;
#X msg 25 165 say jumps;
#X msg 376 255 say runs;
#X msg 373 134 say sings;
#X msg 287 44 say sees;
#X msg 197 28 say cares;
#X msg 314 90 say helps;
#X msg 199 200 say dances;
#X msg 63 128 say laughs;
#X msg 74 232 say eats;
#X obj 32 15 inlet;
#X floatatom 21 70 5 0 0 0 - - -;
#X obj 23 102 sel 0 1 2 3 4 5 6 7 8 9 10 11 12 13 14 15;
#X obj 22 40 random 16;
#X obj 208 328 shell;
#X obj 248 325 bng 25 250 50 0 empty empty empty 17 7 0 10 -204786
-1 -1;
#N canvas 487 351 549 366 who_suite 0;
#X obj 68 52 inlet;
#X msg 251 108 say alone;
#X floatatom 54 112 5 0 0 0 - - -;
#X msg 453 70 say fast;
#X msg 109 203 say twice a day;
#X msg 244 177 say with great pleasure;
#X msg 196 37 say for the kingdom;
#X msg 313 74 for the queendom;
#X msg 52 263 say after dark;
#X msg 197 246 say with appetite;
#X msg 364 131 say on the top of a mountain;
#X msg 377 23 say at last;
#X msg 392 226 say with Gandalf;
#X msg 374 281 say while swimming;
#X msg 210 293 say qwerty;
#X msg 152 82 say in between dinosaurs;
#X msg 25 169 say during my birthday;
#X msg 228 204 say despite the arrival of the one true dolphin;
#X obj 62 82 random 16;
#X obj 22 137 sel 0 1 2 3 4 5 6 7 8 9 10 11 12 13 14 15;
#X obj 338 327 shell;
#X obj 387 309 bng 25 250 50 0 empty empty empty 17 7 0 10 -204786
-1 -1;
#X connect 0 0 18 0;
#X connect 1 0 20 0;
#X connect 2 0 19 0;
#X connect 3 0 20 0;
#X connect 4 0 20 0;
#X connect 5 0 20 0;
#X connect 6 0 20 0;
#X connect 7 0 20 0;
#X connect 8 0 20 0;
#X connect 9 0 20 0;
#X connect 10 0 20 0;
#X connect 11 0 20 0;
#X connect 12 0 20 0;
#X connect 13 0 20 0;
#X connect 14 0 20 0;
#X connect 15 0 20 0;
#X connect 16 0 20 0;
#X connect 17 0 20 0;
#X connect 18 0 2 0;
#X connect 19 0 16 0;
#X connect 19 1 9 0;
#X connect 19 2 4 0;
#X connect 19 3 8 0;
#X connect 19 4 10 0;
#X connect 19 5 15 0;
#X connect 19 6 1 0;
#X connect 19 7 6 0;
#X connect 19 8 14 0;
#X connect 19 9 11 0;
#X connect 19 10 7 0;
#X connect 19 11 5 0;
#X connect 19 12 17 0;
#X connect 19 13 12 0;
#X connect 19 14 13 0;
#X connect 19 15 3 0;
#X connect 20 1 21 0;
#X restore 347 304 pd who_suite;
#X connect 0 0 20 0;
#X connect 1 0 20 0;
#X connect 2 0 20 0;
#X connect 3 0 20 0;
#X connect 4 0 20 0;
#X connect 5 0 20 0;
#X connect 6 0 20 0;
#X connect 7 0 20 0;
#X connect 8 0 20 0;
#X connect 9 0 20 0;
#X connect 10 0 20 0;
#X connect 11 0 20 0;
#X connect 12 0 20 0;
#X connect 13 0 20 0;
#X connect 14 0 20 0;
#X connect 15 0 20 0;
#X connect 16 0 19 0;
#X connect 17 0 18 0;
#X connect 18 0 14 0;
#X connect 18 1 7 0;
#X connect 18 2 15 0;
#X connect 18 3 2 0;
#X connect 18 4 6 0;
#X connect 18 5 13 0;
#X connect 18 6 0 0;
#X connect 18 7 11 0;
#X connect 18 8 5 0;
#X connect 18 9 1 0;
#X connect 18 10 8 0;
#X connect 18 11 3 0;
#X connect 18 12 4 0;
#X connect 18 13 9 0;
#X connect 18 14 12 0;
#X connect 18 15 10 0;
#X connect 19 0 17 0;
#X connect 20 1 21 0;
#X connect 21 0 22 0;
#X restore 17 178 pd who_action;
#X msg 333 64 say are;
#X msg 441 69 say is;
#X connect 0 0 7 0;
#X connect 1 0 7 0;
#X connect 2 0 17 0;
#X connect 3 0 7 0;
#X connect 4 0 7 0;
#X connect 5 0 7 0;
#X connect 6 0 18 0;
#X connect 7 1 8 0;
#X connect 8 0 19 0;
#X connect 16 0 7 0;
#X connect 17 0 6 0;
#X connect 18 0 3 0;
#X connect 18 1 0 0;
#X connect 18 2 1 0;
#X connect 18 3 4 0;
#X connect 18 4 5 0;
#X connect 18 5 16 0;
#X restore 347 239 pd questions_aléatoires;
#X connect 1 0 9 0;
#X connect 2 0 0 0;
#X connect 3 0 8 1;
#X connect 4 0 8 0;
#X connect 5 0 4 0;
#X connect 5 0 53 0;
#X connect 6 0 0 0;
#X connect 9 0 43 0;
#X connect 10 0 9 1;
#X connect 11 0 9 2;
#X connect 12 0 9 3;
#X connect 13 0 19 0;
#X connect 15 0 14 0;
#X connect 16 0 14 0;
#X connect 17 0 14 0;
#X connect 18 0 14 1;
#X connect 19 0 14 0;
#X connect 22 0 23 0;
#X connect 23 0 28 0;
#X connect 24 0 21 0;
#X connect 25 0 24 1;
#X connect 26 0 24 2;
#X connect 27 0 24 3;
#X connect 28 0 24 0;
#X connect 29 0 25 0;
#X connect 30 0 29 0;
#X connect 31 0 29 0;
#X connect 32 0 35 0;
#X connect 33 0 32 0;
#X connect 34 0 32 1;
#X connect 35 0 36 0;
#X connect 36 0 30 0;
#X connect 36 0 38 0;
#X connect 36 1 31 0;
#X connect 36 1 39 0;
#X connect 37 0 26 0;
#X connect 38 0 37 0;
#X connect 39 0 37 0;
#X connect 40 0 33 0;
#X connect 41 0 34 0;
#X connect 42 0 41 0;
#X connect 43 0 8 0;
#X connect 44 0 46 0;
#X connect 45 0 0 0;
#X connect 46 0 47 0;
#X connect 46 1 8 0;
#X connect 46 2 3 0;
#X connect 46 3 53 0;
#X connect 48 0 47 0;
#X connect 48 1 8 0;
#X connect 48 2 3 0;
#X connect 48 3 53 0;
#X connect 49 0 48 0;
#X connect 50 0 48 1;
#X connect 51 0 48 2;
#X connect 52 0 48 3;
#X connect 53 0 8 0;
