#N canvas 183 23 1061 706 10;
#X floatatom 96 300 5 0 20000 0 - - -;
#X obj 96 319 sig~;
#X obj 83 519 *~;
#X obj 166 379 hsl 100 20 0 1 0 0 empty empty empty -2 -8 0 10 -203904
-1 -1 0 0;
#X floatatom 163 404 5 0 0 0 - - -;
#X obj 163 445 line~;
#X obj 112 519 *~;
#X obj 84 549 dac~;
#X msg 163 423 \$1 20;
#X obj 96 18 loadbang;
#X msg 96 275 60;
#X obj 316 521 *~;
#X obj 400 377 hsl 100 20 0 1 0 0 empty empty empty -2 -8 0 10 -203904
-1 -1 0 0;
#X floatatom 397 402 5 0 0 0 - - -;
#X obj 397 443 line~;
#X obj 345 521 *~;
#X obj 316 553 dac~;
#X msg 397 421 \$1 20;
#X obj 543 519 *~;
#X obj 614 378 hsl 100 20 0 1 0 0 empty empty empty -2 -8 0 10 -203904
-1 -1 0 0;
#X floatatom 611 403 5 0 0 0 - - -;
#X obj 611 444 line~;
#X obj 572 519 *~;
#X obj 543 551 dac~;
#X msg 611 422 \$1 20;
#X obj 775 523 *~;
#X obj 855 376 hsl 100 20 0 1 0 0 empty empty empty -2 -8 0 10 -203904
-1 -1 0 0;
#X floatatom 852 401 5 0 0 0 - - -;
#X obj 852 442 line~;
#X obj 804 523 *~;
#X obj 775 555 dac~;
#X msg 852 420 \$1 20;
#X obj 96 352 s_osc 1 sine;
#X obj 244 32 bng 30 250 50 0 empty empty reset -15 14 0 20 -261234
-1 -1;
#X obj 163 80 inlet;
#X obj 397 81 inlet;
#X obj 611 81 inlet;
#X obj 852 76 inlet;
#X obj 330 350 s_osc 2 sine;
#X obj 544 345 s_osc 3 sine;
#X obj 785 345 s_osc 4 sine;
#X floatatom 330 301 5 0 20000 0 - - -;
#X obj 330 320 sig~;
#X floatatom 544 296 5 0 20000 0 - - -;
#X obj 544 315 sig~;
#X floatatom 785 293 5 0 20000 0 - - -;
#X obj 785 312 sig~;
#X msg 330 274 240;
#X msg 785 266 480;
#X obj 207 313 s red_choice;
#X obj 21 607 r red_choice;
#X obj 432 312 s yellow_choice;
#X obj 75 583 r yellow_choice;
#X obj 669 308 s blue_choice;
#X obj 161 593 r blue_choice;
#X obj 894 319 s green_choice;
#X obj 273 600 r green_choice;
#X obj 913 17 e_fbdelay;
#X text 299 8 - gestion des étapes;
#X obj 28 27 inlet;
#X obj 170 52 bng 20 250 50 0 empty empty empty 17 7 0 10 -258113 -1
-1;
#X obj 404 56 bng 20 250 50 0 empty empty empty 17 7 0 10 -257985 -1
-1;
#X obj 615 52 bng 20 250 50 0 empty empty empty 17 7 0 10 -4160 -1
-1;
#X obj 857 48 bng 20 250 50 0 empty empty empty 17 7 0 10 -4034 -1
-1;
#X msg 128 84 0;
#X msg 579 81 0;
#X msg 822 78 0;
#X msg 367 81 0;
#X msg 544 268 360;
#X obj 198 279 delay 500;
#X obj 422 280 delay 500;
#X obj 648 278 delay 500;
#X obj 886 289 delay 500;
#X obj 163 105 counter;
#X floatatom 163 127 5 0 0 0 - - -;
#X obj 163 175 bng 15 250 50 0 empty empty empty 17 7 0 10 -262144
-1 -1;
#X obj 394 109 counter;
#X floatatom 394 131 5 0 0 0 - - -;
#X obj 394 179 bng 15 250 50 0 empty empty empty 17 7 0 10 -262144
-1 -1;
#X obj 604 112 counter;
#X floatatom 604 134 5 0 0 0 - - -;
#X obj 604 182 bng 15 250 50 0 empty empty empty 17 7 0 10 -262144
-1 -1;
#X obj 852 103 counter;
#X floatatom 852 125 5 0 0 0 - - -;
#X obj 852 173 bng 15 250 50 0 empty empty empty 17 7 0 10 -262144
-1 -1;
#X obj 944 56 e_reverb;
#X obj 941 117 e_pitchshift;
#X obj 966 171 e_chorus;
#X obj 267 195 sel 2 3 4 5;
#X obj 163 149 sel 0 1;
#X obj 532 208 bng 20 250 50 0 empty empty empty 17 7 0 10 -262130
-1 -1;
#X text 525 232 vide;
#X obj 394 153 sel 0 1;
#X obj 604 156 sel 0 1;
#X obj 852 147 sel 0 1;
#X obj 488 610 counter;
#X text 452 589 counter global;
#X obj 244 651 bng 25 250 50 0 empty empty empty 17 7 0 10 -4032 -1
-1;
#X floatatom 489 632 5 0 0 0 - - -;
#X obj 987 542 catch~;
#X obj 989 579 throw~;
#X obj 76 411 spigot~;
#X obj 123 388 tgl 15 0 empty empty empty 17 7 0 10 -262144 -1 -1 0
1;
#X obj 311 407 spigot~;
#X obj 358 384 tgl 15 0 empty empty empty 17 7 0 10 -262144 -1 -1 0
1;
#X obj 535 409 spigot~;
#X obj 582 386 tgl 15 0 empty empty empty 17 7 0 10 -262144 -1 -1 0
1;
#X obj 759 406 spigot~;
#X obj 806 383 tgl 15 0 empty empty empty 17 7 0 10 -262144 -1 -1 0
1;
#N canvas 620 344 450 300 red_traitements 0;
#X obj 77 168 e_tremolo;
#X msg 180 184 dry 0;
#X obj 53 57 inlet~;
#X obj 65 257 outlet~;
#X obj 356 28 loadbang;
#X obj 132 257 outlet~;
#X msg 154 157 freq 3.1;
#X connect 0 0 3 0;
#X connect 0 0 5 0;
#X connect 1 0 0 1;
#X connect 2 0 0 0;
#X connect 4 0 6 0;
#X connect 4 0 1 0;
#X connect 6 0 0 1;
#X restore 133 470 pd red_traitements;
#N canvas 368 306 450 300 yellow_traitements 0;
#X obj 81 169 e_tremolo;
#X msg 184 185 dry 0;
#X obj 57 58 inlet~;
#X obj 69 258 outlet~;
#X obj 360 29 loadbang;
#X obj 152 260 outlet~;
#X msg 158 158 freq 4.2;
#X connect 0 0 3 0;
#X connect 0 0 5 0;
#X connect 1 0 0 1;
#X connect 2 0 0 0;
#X connect 4 0 6 0;
#X connect 4 0 1 0;
#X connect 6 0 0 1;
#X restore 363 467 pd yellow_traitements;
#N canvas 491 305 450 300 blue_traitements 0;
#X obj 85 171 e_tremolo;
#X msg 188 187 dry 0;
#X obj 61 60 inlet~;
#X obj 73 260 outlet~;
#X obj 364 31 loadbang;
#X obj 149 262 outlet~;
#X msg 162 160 freq 1.6;
#X connect 0 0 3 0;
#X connect 0 0 5 0;
#X connect 1 0 0 1;
#X connect 2 0 0 0;
#X connect 4 0 6 0;
#X connect 4 0 1 0;
#X connect 6 0 0 1;
#X restore 577 472 pd blue_traitements;
#N canvas 585 254 450 300 green_traitements 0;
#X obj 89 171 e_tremolo;
#X msg 192 187 dry 0;
#X msg 166 160 freq 2.3;
#X obj 65 60 inlet~;
#X obj 77 260 outlet~;
#X obj 368 31 loadbang;
#X obj 146 262 outlet~;
#X connect 0 0 4 0;
#X connect 0 0 6 0;
#X connect 1 0 0 1;
#X connect 2 0 0 1;
#X connect 3 0 0 0;
#X connect 5 0 2 0;
#X connect 5 0 1 0;
#X restore 811 468 pd green_traitements;
#X obj 74 113 s red_now;
#X obj 312 120 s yellow_now;
#X obj 529 118 s blue_now;
#X obj 770 111 s green_now;
#N canvas 609 222 460 322 envoi_sel 0;
#X obj 236 200 gate 4;
#X floatatom 227 173 5 0 4 0 - - -;
#X obj 148 99 r red_now;
#X obj 176 120 r yellow_now;
#X obj 213 97 r blue_now;
#X obj 261 118 r green_now;
#X msg 146 141 1;
#X msg 189 145 2;
#X msg 232 147 3;
#X msg 276 146 4;
#X obj 79 232 bng 15 250 50 0 empty empty empty 17 7 0 10 -258113 -1
-1;
#X obj 169 236 bng 15 250 50 0 empty empty empty 17 7 0 10 -257985
-1 -1;
#X obj 265 234 bng 15 250 50 0 empty empty empty 17 7 0 10 -4160 -1
-1;
#X obj 355 227 bng 15 250 50 0 empty empty empty 17 7 0 10 -4034 -1
-1;
#X obj 347 60 inlet;
#X obj 35 276 outlet;
#X obj 148 278 outlet;
#X obj 258 274 outlet;
#X obj 366 273 outlet;
#X connect 0 0 10 0;
#X connect 0 1 11 0;
#X connect 0 2 12 0;
#X connect 0 3 13 0;
#X connect 1 0 0 0;
#X connect 2 0 6 0;
#X connect 3 0 7 0;
#X connect 4 0 8 0;
#X connect 5 0 9 0;
#X connect 6 0 1 0;
#X connect 7 0 1 0;
#X connect 8 0 1 0;
#X connect 9 0 1 0;
#X connect 10 0 15 0;
#X connect 11 0 16 0;
#X connect 12 0 17 0;
#X connect 13 0 18 0;
#X connect 14 0 0 1;
#X restore 764 632 pd envoi_sel;
#X msg 627 322 0;
#X obj 486 658 sel 4;
#X msg 157 216 0.17;
#X msg 395 220 0.07;
#X msg 610 222 0.07;
#X msg 854 224 0.04;
#X obj 22 635 QA_GestionQuestions;
#X text 191 674 les réponses données font avancer la pièce;
#X text 729 654 spigot~ selon la réponse choisie;
#X connect 0 0 1 0;
#X connect 1 0 32 0;
#X connect 2 0 7 0;
#X connect 3 0 4 0;
#X connect 4 0 8 0;
#X connect 5 0 2 1;
#X connect 5 0 6 1;
#X connect 6 0 7 1;
#X connect 8 0 5 0;
#X connect 9 0 10 0;
#X connect 9 0 33 0;
#X connect 9 0 47 0;
#X connect 9 0 68 0;
#X connect 9 0 48 0;
#X connect 10 0 0 0;
#X connect 11 0 16 0;
#X connect 12 0 13 0;
#X connect 13 0 17 0;
#X connect 14 0 11 1;
#X connect 14 0 15 1;
#X connect 15 0 16 1;
#X connect 17 0 14 0;
#X connect 18 0 23 0;
#X connect 19 0 20 0;
#X connect 20 0 24 0;
#X connect 21 0 18 1;
#X connect 21 0 22 1;
#X connect 22 0 23 1;
#X connect 24 0 21 0;
#X connect 25 0 30 0;
#X connect 26 0 27 0;
#X connect 27 0 31 0;
#X connect 28 0 25 1;
#X connect 28 0 29 1;
#X connect 29 0 30 1;
#X connect 31 0 28 0;
#X connect 32 0 101 0;
#X connect 33 0 64 0;
#X connect 33 0 67 0;
#X connect 33 0 65 0;
#X connect 33 0 66 0;
#X connect 33 0 73 3;
#X connect 33 0 76 3;
#X connect 33 0 79 3;
#X connect 33 0 82 3;
#X connect 33 0 118 0;
#X connect 33 0 95 3;
#X connect 34 0 73 0;
#X connect 34 0 113 0;
#X connect 35 0 76 0;
#X connect 35 0 114 0;
#X connect 36 0 79 0;
#X connect 36 0 115 0;
#X connect 37 0 82 0;
#X connect 37 0 116 0;
#X connect 38 0 103 0;
#X connect 39 0 105 0;
#X connect 40 0 107 0;
#X connect 41 0 42 0;
#X connect 42 0 38 0;
#X connect 43 0 44 0;
#X connect 44 0 39 0;
#X connect 45 0 46 0;
#X connect 46 0 40 0;
#X connect 47 0 41 0;
#X connect 48 0 45 0;
#X connect 50 0 124 2;
#X connect 50 0 97 0;
#X connect 52 0 124 3;
#X connect 52 0 97 0;
#X connect 54 0 124 4;
#X connect 54 0 97 0;
#X connect 56 0 124 5;
#X connect 56 0 97 0;
#X connect 59 0 33 0;
#X connect 64 0 3 0;
#X connect 65 0 19 0;
#X connect 66 0 26 0;
#X connect 67 0 12 0;
#X connect 68 0 43 0;
#X connect 69 0 49 0;
#X connect 70 0 51 0;
#X connect 71 0 53 0;
#X connect 72 0 55 0;
#X connect 73 0 74 0;
#X connect 74 0 89 0;
#X connect 75 0 120 0;
#X connect 76 0 77 0;
#X connect 77 0 92 0;
#X connect 78 0 121 0;
#X connect 79 0 80 0;
#X connect 80 0 93 0;
#X connect 81 0 122 0;
#X connect 82 0 83 0;
#X connect 83 0 94 0;
#X connect 84 0 123 0;
#X connect 89 0 90 0;
#X connect 89 1 75 0;
#X connect 89 2 69 0;
#X connect 92 0 90 0;
#X connect 92 1 78 0;
#X connect 92 2 70 0;
#X connect 93 0 90 0;
#X connect 93 1 81 0;
#X connect 93 2 71 0;
#X connect 94 0 90 0;
#X connect 94 1 84 0;
#X connect 94 2 72 0;
#X connect 95 0 98 0;
#X connect 97 0 95 0;
#X connect 98 0 119 0;
#X connect 101 0 2 0;
#X connect 101 0 6 0;
#X connect 101 1 109 0;
#X connect 102 0 101 1;
#X connect 103 0 11 0;
#X connect 103 0 15 0;
#X connect 103 1 110 0;
#X connect 104 0 103 1;
#X connect 105 0 18 0;
#X connect 105 0 22 0;
#X connect 105 1 111 0;
#X connect 106 0 105 1;
#X connect 107 0 25 0;
#X connect 107 0 29 0;
#X connect 107 1 112 0;
#X connect 108 0 107 1;
#X connect 109 0 2 0;
#X connect 109 1 6 0;
#X connect 110 0 11 0;
#X connect 110 1 15 0;
#X connect 111 0 18 0;
#X connect 111 1 22 0;
#X connect 112 0 25 0;
#X connect 112 1 29 0;
#X connect 117 0 102 0;
#X connect 117 1 104 0;
#X connect 117 2 106 0;
#X connect 117 3 108 0;
#X connect 118 0 108 0;
#X connect 118 0 106 0;
#X connect 118 0 104 0;
#X connect 118 0 102 0;
#X connect 119 0 117 0;
#X connect 120 0 3 0;
#X connect 120 0 69 0;
#X connect 121 0 12 0;
#X connect 121 0 70 0;
#X connect 122 0 19 0;
#X connect 122 0 71 0;
#X connect 123 0 26 0;
#X connect 123 0 72 0;
