#N canvas 470 74 606 547 10;
#X obj 43 109 gemwin;
#X obj 81 311 gemhead;
#X msg 83 47 0 \, destroy;
#X floatatom 134 386 5 0 0 0 - - -;
#X msg 109 436 font vera.ttf;
#X obj 109 410 loadbang;
#X msg 63 82 color 0 0 0;
#X obj 81 336 rotateXYZ;
#X floatatom 150 280 5 0 0 0 X - -;
#X floatatom 150 300 5 0 0 0 Y - -;
#X floatatom 150 320 5 0 0 0 Z - -;
#X obj 81 362 translate 1 0 2.5 0;
#X obj 49 181 inlet;
#X msg 83 23 dimen 1280 487 \, create \, 1;
#N canvas 264 23 540 421 start 0;
#X obj 131 24 inlet;
#X msg 272 272 20;
#X msg 308 244 text choose your favourite colour;
#X msg 309 274 say choose your favourite colour;
#X msg 30 252 text hello;
#X msg 31 278 say hello;
#X msg 65 203 40;
#X msg 171 249 text please;
#X msg 170 275 say please;
#X msg 136 266 35;
#X obj 150 64 tgl 45 0 empty empty start 0 7 0 16 -262144 -1 -1 0 1
;
#X obj 149 139 bng 20 250 50 0 empty empty empty 17 7 0 10 -262144
-1 -1;
#X floatatom 149 193 5 0 0 0 - - -;
#X obj 241 75 bng 20 250 50 0 empty empty empty 17 7 0 10 -261234 -1
-1;
#X obj 150 116 metro 390;
#X obj 127 342 outlet;
#X obj 247 340 outlet;
#X obj 359 343 outlet;
#X obj 466 360 outlet;
#X obj 412 306 bng 15 250 50 0 empty empty empty 17 7 0 10 -261682
-1 -1;
#X obj 428 338 bng 15 250 50 0 empty empty empty 17 7 0 10 -262144
-1 -1;
#X obj 443 317 delay 2800;
#X obj 149 215 sel 1 6 9 12;
#X obj 232 18 inlet;
#X text 381 31 intro;
#X obj 149 170 counter;
#X connect 0 0 10 0;
#X connect 1 0 17 0;
#X connect 2 0 3 0;
#X connect 2 0 1 0;
#X connect 2 0 16 0;
#X connect 2 0 19 0;
#X connect 3 0 15 0;
#X connect 4 0 5 0;
#X connect 4 0 6 0;
#X connect 4 0 16 0;
#X connect 5 0 15 0;
#X connect 6 0 17 0;
#X connect 7 0 8 0;
#X connect 7 0 9 0;
#X connect 7 0 16 0;
#X connect 8 0 15 0;
#X connect 9 0 17 0;
#X connect 10 0 14 0;
#X connect 11 0 25 0;
#X connect 12 0 22 0;
#X connect 13 0 25 2;
#X connect 14 0 11 0;
#X connect 19 0 21 0;
#X connect 20 0 18 0;
#X connect 21 0 20 0;
#X connect 22 0 4 0;
#X connect 22 1 7 0;
#X connect 22 2 2 0;
#X connect 22 3 10 0;
#X connect 23 0 13 0;
#X connect 25 0 12 0;
#X restore 49 211 pd start;
#X obj 49 490 shell;
#N canvas 448 23 789 641 first_colour_choice 0;
#X msg 246 98 text good choice;
#X msg 246 125 say good choice;
#X msg 399 107 text really?;
#X msg 399 135 say really?;
#X msg 494 169 text okay...;
#X msg 494 193 say okay...;
#X obj 496 141 bng 15 250 50 0 empty empty empty 17 7 0 10 -262144
-1 -1;
#X msg 644 133 text nice;
#X msg 641 158 say nice;
#X obj 71 22 inlet;
#X obj 255 25 inlet;
#X obj 433 17 inlet;
#X obj 652 18 inlet;
#X obj 494 110 delay 1000;
#X msg 22 122 35;
#X msg 204 124 35;
#X obj 501 85 bng 15 250 50 0 empty empty empty 17 7 0 10 -262144 -1
-1;
#X msg 598 106 35;
#X msg 341 151 35;
#X obj 90 308 outlet;
#X obj 238 307 outlet;
#X obj 395 306 outlet;
#X obj 636 336 outlet;
#X obj 642 304 bng 15 250 50 0 empty empty empty 17 7 0 10 -260097
-1 -1;
#X obj 622 267 bng 15 250 50 0 empty empty empty 17 7 0 10 -261682
-1 -1;
#X obj 679 276 delay 2600;
#X obj 70 61 delay 400;
#X obj 264 60 delay 400;
#X obj 417 59 delay 400;
#X obj 648 64 delay 400;
#X msg 57 96 text well;
#X msg 57 123 say well;
#X obj 141 126 bng 15 250 50 0 empty empty empty 17 7 0 10 -262144
-1 -1;
#X obj 140 150 delay 1000;
#X obj 137 173 bng 15 250 50 0 empty empty empty 17 7 0 10 -262144
-1 -1;
#X msg 131 201 text okay;
#X msg 128 224 say okay;
#X text 642 255 delay before erase;
#X text 81 338 say;
#X text 230 331 text;
#X text 396 334 font;
#X text 514 389 continue \, intro to the questions section...;
#X msg 382 414 text so now;
#X msg 382 435 say so now;
#X msg 340 435 35;
#X obj 445 460 bng 15 250 50 0 empty empty empty 17 7 0 10 -204800
-1 -1;
#X obj 445 480 delay 1000;
#X obj 425 500 bng 15 250 50 0 empty empty empty 17 7 0 10 -204800
-1 -1;
#X msg 425 520 text let the fun begin;
#X msg 425 541 say let the fun begin;
#X text 640 354 erase;
#X obj 525 578 delay 2500;
#X obj 481 374 delay 4600;
#X obj 717 578 outlet;
#X text 713 598 next;
#X obj 655 527 bng 15 250 50 0 empty empty empty 17 7 0 10 -232576
-1 -1;
#X obj 655 547 delay 1500;
#X text 130 16 suite intro;
#X obj 563 313 counter;
#X floatatom 520 319 5 0 0 0 - - -;
#X obj 479 249 r reset;
#X text 374 393 1ère fois;
#X text 579 471 pour toutes les fois suivantes va directement à une
prochaine question;
#X obj 500 340 sel 0 1;
#X obj 226 443 bng 20 250 50 0 empty empty empty 17 7 0 10 -262130
-1 -1;
#X text 203 462 vide (reset);
#X connect 0 0 1 0;
#X connect 0 0 15 0;
#X connect 0 0 20 0;
#X connect 0 0 24 0;
#X connect 1 0 19 0;
#X connect 2 0 3 0;
#X connect 2 0 16 0;
#X connect 2 0 18 0;
#X connect 2 0 20 0;
#X connect 3 0 19 0;
#X connect 4 0 5 0;
#X connect 4 0 20 0;
#X connect 4 0 24 0;
#X connect 5 0 19 0;
#X connect 6 0 4 0;
#X connect 7 0 8 0;
#X connect 7 0 17 0;
#X connect 7 0 20 0;
#X connect 7 0 24 0;
#X connect 8 0 19 0;
#X connect 9 0 26 0;
#X connect 10 0 27 0;
#X connect 11 0 28 0;
#X connect 12 0 29 0;
#X connect 13 0 6 0;
#X connect 14 0 21 0;
#X connect 15 0 21 0;
#X connect 16 0 13 0;
#X connect 17 0 21 0;
#X connect 18 0 21 0;
#X connect 23 0 22 0;
#X connect 24 0 25 0;
#X connect 24 0 58 0;
#X connect 25 0 23 0;
#X connect 26 0 30 0;
#X connect 27 0 0 0;
#X connect 28 0 2 0;
#X connect 29 0 7 0;
#X connect 30 0 31 0;
#X connect 30 0 14 0;
#X connect 30 0 20 0;
#X connect 30 0 24 0;
#X connect 30 0 32 0;
#X connect 31 0 19 0;
#X connect 32 0 33 0;
#X connect 33 0 34 0;
#X connect 34 0 35 0;
#X connect 35 0 20 0;
#X connect 35 0 36 0;
#X connect 36 0 19 0;
#X connect 42 0 43 0;
#X connect 42 0 44 0;
#X connect 42 0 20 0;
#X connect 42 0 45 0;
#X connect 43 0 19 0;
#X connect 44 0 21 0;
#X connect 45 0 46 0;
#X connect 46 0 47 0;
#X connect 47 0 48 0;
#X connect 47 0 51 0;
#X connect 48 0 49 0;
#X connect 48 0 20 0;
#X connect 49 0 19 0;
#X connect 51 0 23 0;
#X connect 51 0 55 0;
#X connect 52 0 42 0;
#X connect 55 0 56 0;
#X connect 56 0 53 0;
#X connect 58 0 59 0;
#X connect 59 0 63 0;
#X connect 60 0 58 3;
#X connect 63 0 64 0;
#X connect 63 1 52 0;
#X connect 63 2 55 0;
#X restore 122 211 pd first_colour_choice;
#X obj 122 181 inlet;
#X obj 165 158 inlet;
#X obj 208 183 inlet;
#X obj 251 160 inlet;
#X msg 109 490 text;
#X text 152 489 erase;
#X text 96 129 introduction écrite;
#N canvas 288 175 856 439 questions_aléatoires 1;
#X msg 147 224 say when;
#X msg 290 227 say what;
#X obj 34 67 bng 25 250 50 0 empty empty empty 17 7 0 10 -261682 -1
-1;
#X msg 443 223 say why;
#X msg 573 220 say how;
#X floatatom 34 127 5 0 0 0 - - -;
#X obj 30 253 shell;
#X obj 69 249 bng 25 250 50 0 empty empty empty 17 7 0 10 -204786 -1
-1;
#X msg 727 209 say where;
#X obj 34 149 sel 0 1 2 3 4 5;
#X obj 146 255 shell;
#X obj 199 259 bng 25 250 50 0 empty empty empty 17 7 0 10 -204786
-1 -1;
#X obj 77 15 inlet;
#X obj 300 260 shell;
#X obj 353 264 bng 25 250 50 0 empty empty empty 17 7 0 10 -204786
-1 -1;
#X obj 450 256 shell;
#X obj 503 260 bng 25 250 50 0 empty empty empty 17 7 0 10 -204786
-1 -1;
#X obj 578 247 shell;
#X obj 631 251 bng 25 250 50 0 empty empty empty 17 7 0 10 -204786
-1 -1;
#X obj 735 247 shell;
#X obj 788 251 bng 25 250 50 0 empty empty empty 17 7 0 10 -204786
-1 -1;
#X msg 21 210 say who;
#X msg 39 179 set text who;
#X msg 163 196 set text when;
#X msg 296 200 set text what;
#X msg 446 193 set text why;
#X msg 581 190 set text how;
#X msg 742 179 set text where;
#X obj 148 379 outlet;
#X text 107 404 to textoutline (affiche principal questions);
#N canvas 46 54 1234 724 who_quest 0;
#X obj 50 -33 inlet;
#X floatatom 33 29 5 0 0 0 - - -;
#X obj 182 -4 inlet;
#X text 144 -28 interrogation word incoming (set);
#X obj 34 -1 random 2;
#X obj 35 59 sel 0 1;
#X obj 45 145 shell;
#X obj 86 166 bng 25 250 50 0 empty empty empty 17 7 0 10 -204786 -1
-1;
#X obj 841 90 shell;
#X obj 882 111 bng 25 250 50 0 empty empty empty 17 7 0 10 -204786
-1 -1;
#X floatatom 52 237 5 0 0 0 - - -;
#X floatatom 864 184 5 0 0 0 - - -;
#X msg 26 333 say think;
#X msg 26 310 add2 think;
#X obj 44 369 shell;
#X obj 85 390 bng 25 250 50 0 empty empty empty 17 7 0 10 -204786 -1
-1;
#X msg 485 330 say hope;
#X msg 489 303 add2 hope;
#X obj 501 363 shell;
#X obj 542 384 bng 25 250 50 0 empty empty empty 17 7 0 10 -204786
-1 -1;
#X obj 51 208 random 2;
#X obj 44 267 sel 0 1;
#X obj 135 602 shell;
#X obj 176 623 bng 25 250 50 0 empty empty empty 17 7 0 10 -204786
-1 -1;
#X floatatom 51 445 5 0 0 0 - - -;
#X msg 643 623 text who would be my best friend?;
#X obj 51 421 random 3;
#X obj 43 466 sel 0 1 2;
#X obj 641 654 outlet;
#X floatatom 520 443 5 0 0 0 - - -;
#X obj 520 419 random 3;
#X obj 512 464 sel 0 1 2;
#X obj 518 593 shell;
#X obj 559 614 bng 25 250 50 0 empty empty empty 17 7 0 10 -204786
-1 -1;
#X obj 1098 578 shell;
#X obj 1139 599 bng 25 250 50 0 empty empty empty 17 7 0 10 -204786
-1 -1;
#X obj 885 556 shell;
#X obj 926 577 bng 25 250 50 0 empty empty empty 17 7 0 10 -204786
-1 -1;
#X obj 736 304 shell;
#X obj 786 302 bng 25 250 50 0 empty empty empty 17 7 0 10 -204786
-1 -1;
#X floatatom 803 363 5 0 0 0 - - -;
#X obj 803 339 random 3;
#X obj 795 384 sel 0 1 2;
#X obj 863 155 random 2;
#X obj 997 276 shell;
#X obj 1050 262 bng 25 250 50 0 empty empty empty 17 7 0 10 -204786
-1 -1;
#X floatatom 1067 323 5 0 0 0 - - -;
#X obj 858 213 sel 0 1;
#X msg 35 91 add2 do you;
#X msg 47 119 say do you;
#X msg 19 491 add2 will live forever?;
#X msg 24 515 say will live forever?;
#X msg 828 7 add2 would be;
#X msg 832 40 say would be;
#X msg 742 244 add2 my;
#X msg 741 271 say my;
#X msg 963 222 add2 your;
#X msg 964 252 say your;
#X msg 651 414 add2 best friend?;
#X msg 652 439 say best friend?;
#X msg 108 546 add2 will run out of time?;
#X msg 110 570 say will run out of time?;
#X msg 214 486 add2 can help me?;
#X msg 214 516 say can help me?;
#X msg 335 546 add2 will help you?;
#X msg 339 571 say will help you?;
#X msg 446 518 say will win?;
#X msg 585 542 add2 will have superpowers?;
#X msg 589 565 say will have superpowers?;
#X msg 731 465 add2 worst enemy?;
#X msg 729 493 say worst enemy?;
#X msg 842 417 add2 saviour?;
#X msg 840 440 say saviour?;
#X msg 910 363 add2 favourite one?;
#X msg 905 389 say favourite one?;
#X msg 994 444 add2 worst nightmare?;
#X msg 991 472 say worst nightmare?;
#X obj 1067 299 random 2;
#X obj 1059 344 sel 0 1;
#X text 423 -15 - 11 possibilités de questions;
#X obj 461 147 bng 20 250 50 0 empty empty show 5 7 0 14 -232576 -1
-1;
#X obj 592 146 bng 20 250 50 0 empty empty no_show 5 7 0 14 -261234
-1 -1;
#N canvas 190 168 890 561 answers_who 0;
#X obj 14 181 inlet;
#X obj 56 370 gemhead;
#X msg 77 450 font vera.ttf;
#X obj 340 433 loadbang;
#X msg 56 341 1;
#X msg 87 341 0;
#X floatatom 105 493 5 0 0 0 - - -;
#X msg 171 450 25;
#X obj 232 365 gemhead;
#X obj 418 364 gemhead;
#X obj 628 359 gemhead;
#X floatatom 284 489 5 0 0 0 - - -;
#X floatatom 466 494 5 0 0 0 - - -;
#X floatatom 679 493 5 0 0 0 - - -;
#X msg 232 337 1;
#X msg 264 336 0;
#X msg 418 335 1;
#X msg 450 334 0;
#X msg 628 330 1;
#X msg 660 329 0;
#X obj 30 212 bng 20 250 50 0 empty empty show_answers 10 7 0 12 -203904
-1 -1;
#X obj 711 197 bng 25 250 50 0 empty empty no_show -8 -8 0 14 -261234
-1 -1;
#X obj 56 397 translate 1 -6.15 -3 0;
#X obj 232 393 translate 1 -2.13 -3 0;
#X obj 418 392 translate 1 2.35 -3 0;
#X obj 628 387 translate 1 6.46 -3 0;
#X obj 736 158 inlet;
#N canvas 547 161 445 344 answers_who_1 0;
#X obj 195 26 inlet;
#X obj 89 293 outlet;
#X obj 185 293 outlet;
#X obj 276 291 outlet;
#X obj 372 291 outlet;
#X obj 110 94 bng 15 250 50 0 empty empty empty 17 7 0 10 -262144 -1
-1;
#X obj 157 102 bng 15 250 50 0 empty empty empty 17 7 0 10 -262144
-1 -1;
#X obj 199 73 bng 15 250 50 0 empty empty empty 17 7 0 10 -262144 -1
-1;
#X obj 250 51 bng 15 250 50 0 empty empty empty 17 7 0 10 -262144 -1
-1;
#X msg 34 217 text Bruce Lee;
#X msg 111 194 text Gandalf;
#X msg 204 248 text Justin Trudeau;
#X msg 260 180 text Hermione Granger;
#X obj 34 129 delay 20;
#X obj 20 160 bng 15 250 50 0 empty empty empty 17 7 0 10 -203904 -1
-1;
#X obj 23 300 outlet;
#X connect 0 0 5 0;
#X connect 0 0 6 0;
#X connect 0 0 7 0;
#X connect 0 0 8 0;
#X connect 5 0 9 0;
#X connect 5 0 13 0;
#X connect 6 0 10 0;
#X connect 7 0 11 0;
#X connect 8 0 12 0;
#X connect 9 0 1 0;
#X connect 10 0 2 0;
#X connect 11 0 3 0;
#X connect 12 0 4 0;
#X connect 13 0 14 0;
#X connect 14 0 15 0;
#X restore 91 105 pd answers_who_1;
#N canvas 540 225 460 441 answers_who_2 0;
#X obj 192 20 inlet;
#X obj 99 381 outlet;
#X obj 195 381 outlet;
#X obj 286 379 outlet;
#X obj 382 379 outlet;
#X obj 89 99 bng 15 250 50 0 empty empty empty 17 7 0 10 -262144 -1
-1;
#X obj 136 83 bng 15 250 50 0 empty empty empty 17 7 0 10 -262144 -1
-1;
#X obj 187 61 bng 15 250 50 0 empty empty empty 17 7 0 10 -262144 -1
-1;
#X obj 253 72 bng 15 250 50 0 empty empty empty 17 7 0 10 -262144 -1
-1;
#X msg 148 224 text Alanis Morissette;
#X msg 80 270 text Will Smith;
#X msg 253 257 text Michelle Obama;
#X msg 333 202 text Donald Trump;
#X obj 44 139 delay 20;
#X obj 30 170 bng 15 250 50 0 empty empty empty 17 7 0 10 -203904 -1
-1;
#X obj 33 310 outlet;
#X connect 0 0 7 0;
#X connect 0 0 6 0;
#X connect 0 0 5 0;
#X connect 0 0 8 0;
#X connect 5 0 10 0;
#X connect 5 0 13 0;
#X connect 6 0 9 0;
#X connect 7 0 11 0;
#X connect 8 0 12 0;
#X connect 9 0 2 0;
#X connect 10 0 1 0;
#X connect 11 0 3 0;
#X connect 12 0 4 0;
#X connect 13 0 14 0;
#X connect 14 0 15 0;
#X restore 236 100 pd answers_who_2;
#N canvas 503 230 476 438 answers_who_3 0;
#X obj 31 27 inlet;
#X obj 111 374 outlet;
#X obj 207 374 outlet;
#X obj 298 372 outlet;
#X obj 394 372 outlet;
#X obj 77 114 bng 15 250 50 0 empty empty empty 17 7 0 10 -262144 -1
-1;
#X obj 146 93 bng 15 250 50 0 empty empty empty 17 7 0 10 -262144 -1
-1;
#X obj 197 90 bng 15 250 50 0 empty empty empty 17 7 0 10 -262144 -1
-1;
#X obj 263 82 bng 15 250 50 0 empty empty empty 17 7 0 10 -262144 -1
-1;
#X msg 128 169 text Beyonce;
#X msg 227 262 text Garou;
#X msg 291 175 text Dwight Schrute;
#X msg 334 249 text Angelina Jolie;
#X obj 53 158 delay 20;
#X obj 39 189 bng 15 250 50 0 empty empty empty 17 7 0 10 -203904 -1
-1;
#X obj 42 329 outlet;
#X connect 0 0 5 0;
#X connect 0 0 6 0;
#X connect 0 0 7 0;
#X connect 0 0 8 0;
#X connect 5 0 9 0;
#X connect 5 0 13 0;
#X connect 6 0 10 0;
#X connect 7 0 11 0;
#X connect 8 0 12 0;
#X connect 9 0 1 0;
#X connect 10 0 2 0;
#X connect 11 0 3 0;
#X connect 12 0 4 0;
#X connect 13 0 14 0;
#X connect 14 0 15 0;
#X restore 403 154 pd answers_who_3;
#N canvas 558 257 462 445 answers_who_4 0;
#X obj 22 19 inlet;
#X obj 89 362 outlet;
#X obj 185 362 outlet;
#X obj 276 360 outlet;
#X obj 372 360 outlet;
#X msg 81 158 text Pikachu;
#X msg 179 239 text Crazy Frog;
#X msg 328 199 text Marge Simpson;
#X msg 270 116 text Spiderman;
#X obj 38 100 bng 15 250 50 0 empty empty empty 17 7 0 10 -262144 -1
-1;
#X obj 87 88 bng 15 250 50 0 empty empty empty 17 7 0 10 -262144 -1
-1;
#X obj 127 78 bng 15 250 50 0 empty empty empty 17 7 0 10 -262144 -1
-1;
#X obj 183 61 bng 15 250 50 0 empty empty empty 17 7 0 10 -262144 -1
-1;
#X obj 32 186 delay 20;
#X obj 18 217 bng 15 250 50 0 empty empty empty 17 7 0 10 -203904 -1
-1;
#X obj 21 357 outlet;
#X connect 0 0 9 0;
#X connect 0 0 10 0;
#X connect 0 0 11 0;
#X connect 0 0 12 0;
#X connect 5 0 1 0;
#X connect 6 0 2 0;
#X connect 7 0 4 0;
#X connect 8 0 3 0;
#X connect 9 0 5 0;
#X connect 9 0 13 0;
#X connect 10 0 6 0;
#X connect 11 0 8 0;
#X connect 12 0 7 0;
#X connect 13 0 14 0;
#X connect 14 0 15 0;
#X restore 551 155 pd answers_who_4;
#X obj 108 13 inlet;
#X obj 266 11 inlet;
#X obj 402 12 inlet;
#X obj 544 16 inlet;
#X obj 56 509 text2d _;
#X obj 232 505 text2d _;
#X obj 418 510 text2d _;
#X obj 628 509 text2d _;
#X obj 78 43 bng 15 250 50 0 empty empty empty 17 7 0 10 -262144 -1
-1;
#X obj 246 38 bng 15 250 50 0 empty empty empty 17 7 0 10 -262144 -1
-1;
#X obj 375 34 bng 15 250 50 0 empty empty empty 17 7 0 10 -262144 -1
-1;
#X obj 521 39 bng 15 250 50 0 empty empty empty 17 7 0 10 -262144 -1
-1;
#X obj 679 60 r red_choice;
#X obj 711 79 r yellow_choice;
#X obj 764 56 r blue_choice;
#X obj 771 100 r green_choice;
#X text 617 18 lorsqu'une réponse est donnée \, l'affichage des réponses
se met à «off»;
#X connect 0 0 20 0;
#X connect 1 0 22 0;
#X connect 2 0 35 0;
#X connect 2 0 36 0;
#X connect 2 0 37 0;
#X connect 2 0 38 0;
#X connect 3 0 2 0;
#X connect 3 0 7 0;
#X connect 3 0 5 0;
#X connect 3 0 15 0;
#X connect 3 0 17 0;
#X connect 3 0 19 0;
#X connect 4 0 1 0;
#X connect 5 0 1 0;
#X connect 6 0 35 1;
#X connect 7 0 6 0;
#X connect 7 0 11 0;
#X connect 7 0 12 0;
#X connect 7 0 13 0;
#X connect 8 0 23 0;
#X connect 9 0 24 0;
#X connect 10 0 25 0;
#X connect 11 0 36 1;
#X connect 12 0 37 1;
#X connect 13 0 38 1;
#X connect 14 0 8 0;
#X connect 15 0 8 0;
#X connect 16 0 9 0;
#X connect 17 0 9 0;
#X connect 18 0 10 0;
#X connect 19 0 10 0;
#X connect 20 0 4 0;
#X connect 20 0 18 0;
#X connect 20 0 16 0;
#X connect 20 0 14 0;
#X connect 21 0 19 0;
#X connect 21 0 17 0;
#X connect 21 0 15 0;
#X connect 21 0 5 0;
#X connect 22 0 35 0;
#X connect 23 0 36 0;
#X connect 24 0 37 0;
#X connect 25 0 38 0;
#X connect 26 0 21 0;
#X connect 27 0 20 0;
#X connect 27 1 35 0;
#X connect 27 2 36 0;
#X connect 27 3 37 0;
#X connect 27 4 38 0;
#X connect 28 0 20 0;
#X connect 28 1 35 0;
#X connect 28 2 36 0;
#X connect 28 3 37 0;
#X connect 28 4 38 0;
#X connect 29 0 20 0;
#X connect 29 1 35 0;
#X connect 29 2 36 0;
#X connect 29 3 37 0;
#X connect 29 4 38 0;
#X connect 30 0 20 0;
#X connect 30 1 35 0;
#X connect 30 2 36 0;
#X connect 30 3 37 0;
#X connect 30 4 38 0;
#X connect 31 0 39 0;
#X connect 32 0 40 0;
#X connect 33 0 41 0;
#X connect 34 0 42 0;
#X connect 39 0 27 0;
#X connect 40 0 28 0;
#X connect 41 0 29 0;
#X connect 42 0 30 0;
#X connect 43 0 21 0;
#X connect 44 0 21 0;
#X connect 45 0 21 0;
#X connect 46 0 21 0;
#X restore 493 176 pd answers_who;
#X obj 320 260 delay 50;
#X obj 353 298 bng 15 250 50 0 empty empty empty 17 7 0 10 -232576
-1 -1;
#X msg 446 493 add2 will win?;
#X obj 609 120 r reset;
#X text 245 121 une fois la question formée \, les réponses possibles
sont affichées;
#X connect 0 0 4 0;
#X connect 1 0 5 0;
#X connect 2 0 25 0;
#X connect 4 0 1 0;
#X connect 5 0 48 0;
#X connect 5 0 49 0;
#X connect 5 1 52 0;
#X connect 5 1 53 0;
#X connect 6 1 7 0;
#X connect 7 0 20 0;
#X connect 8 1 9 0;
#X connect 9 0 43 0;
#X connect 10 0 21 0;
#X connect 11 0 47 0;
#X connect 12 0 14 0;
#X connect 13 0 25 0;
#X connect 14 1 15 0;
#X connect 15 0 26 0;
#X connect 16 0 18 0;
#X connect 17 0 25 0;
#X connect 18 1 19 0;
#X connect 19 0 30 0;
#X connect 20 0 10 0;
#X connect 21 0 13 0;
#X connect 21 0 12 0;
#X connect 21 1 17 0;
#X connect 21 1 16 0;
#X connect 22 1 23 0;
#X connect 23 0 25 0;
#X connect 23 0 82 1;
#X connect 23 0 83 0;
#X connect 24 0 27 0;
#X connect 25 0 28 0;
#X connect 26 0 24 0;
#X connect 27 0 50 0;
#X connect 27 0 51 0;
#X connect 27 1 60 0;
#X connect 27 1 61 0;
#X connect 27 2 62 0;
#X connect 27 2 63 0;
#X connect 29 0 31 0;
#X connect 30 0 29 0;
#X connect 31 0 64 0;
#X connect 31 0 65 0;
#X connect 31 1 85 0;
#X connect 31 1 66 0;
#X connect 31 2 67 0;
#X connect 31 2 68 0;
#X connect 32 1 33 0;
#X connect 33 0 25 0;
#X connect 33 0 82 2;
#X connect 33 0 83 0;
#X connect 34 1 35 0;
#X connect 35 0 25 0;
#X connect 35 0 82 4;
#X connect 35 0 83 0;
#X connect 36 1 37 0;
#X connect 37 0 25 0;
#X connect 37 0 82 3;
#X connect 37 0 83 0;
#X connect 38 1 39 0;
#X connect 39 0 41 0;
#X connect 40 0 42 0;
#X connect 41 0 40 0;
#X connect 42 0 58 0;
#X connect 42 0 59 0;
#X connect 42 1 69 0;
#X connect 42 1 70 0;
#X connect 42 2 71 0;
#X connect 42 2 72 0;
#X connect 43 0 11 0;
#X connect 44 1 45 0;
#X connect 45 0 77 0;
#X connect 46 0 78 0;
#X connect 47 0 54 0;
#X connect 47 0 55 0;
#X connect 47 1 56 0;
#X connect 47 1 57 0;
#X connect 48 0 25 0;
#X connect 49 0 6 0;
#X connect 50 0 25 0;
#X connect 51 0 22 0;
#X connect 52 0 25 0;
#X connect 53 0 8 0;
#X connect 54 0 25 0;
#X connect 55 0 38 0;
#X connect 56 0 25 0;
#X connect 57 0 44 0;
#X connect 58 0 25 0;
#X connect 59 0 36 0;
#X connect 60 0 25 0;
#X connect 61 0 22 0;
#X connect 62 0 25 0;
#X connect 63 0 22 0;
#X connect 64 0 25 0;
#X connect 65 0 32 0;
#X connect 66 0 32 0;
#X connect 67 0 25 0;
#X connect 68 0 32 0;
#X connect 69 0 25 0;
#X connect 70 0 36 0;
#X connect 71 0 25 0;
#X connect 72 0 36 0;
#X connect 73 0 25 0;
#X connect 74 0 34 0;
#X connect 75 0 25 0;
#X connect 76 0 34 0;
#X connect 77 0 46 0;
#X connect 78 0 73 0;
#X connect 78 0 74 0;
#X connect 78 1 76 0;
#X connect 78 1 75 0;
#X connect 80 0 82 0;
#X connect 81 0 82 5;
#X connect 83 0 84 0;
#X connect 84 0 80 0;
#X connect 85 0 25 0;
#X connect 86 0 81 0;
#X restore 27 304 pd who_quest;
#N canvas 40 23 1204 736 when_quest 0;
#X obj 40 -49 inlet;
#X floatatom 23 13 5 0 0 0 - - -;
#X obj 182 -38 inlet;
#X text 144 -62 interrogation word incoming (set);
#X msg 37 103 say do you;
#X msg 25 75 add2 do you;
#X obj 24 -17 random 2;
#X obj 25 43 sel 0 1;
#X obj 35 129 shell;
#X obj 76 150 bng 25 250 50 0 empty empty empty 17 7 0 10 -204786 -1
-1;
#X msg 818 -9 add2 are you;
#X msg 822 24 say are you;
#X obj 831 74 shell;
#X obj 872 95 bng 25 250 50 0 empty empty empty 17 7 0 10 -204786 -1
-1;
#X floatatom 42 221 5 0 0 0 - - -;
#X floatatom 854 168 5 0 0 0 - - -;
#X msg 16 317 say think;
#X msg 16 294 add2 think;
#X obj 34 353 shell;
#X obj 75 374 bng 25 250 50 0 empty empty empty 17 7 0 10 -204786 -1
-1;
#X msg 475 314 say hope;
#X msg 479 287 add2 hope;
#X obj 491 347 shell;
#X obj 532 368 bng 25 250 50 0 empty empty empty 17 7 0 10 -204786
-1 -1;
#X obj 41 192 random 2;
#X obj 34 251 sel 0 1;
#X msg 14 499 say people will wake up?;
#X msg 9 475 add2 people will wake up?;
#X obj 125 586 shell;
#X obj 166 607 bng 25 250 50 0 empty empty empty 17 7 0 10 -204786
-1 -1;
#X floatatom 41 429 5 0 0 0 - - -;
#X msg 633 607 text when do you think we will run out of time?;
#X msg 100 554 say we will run out of time?;
#X msg 98 530 add2 we will run out of time?;
#X obj 41 405 random 3;
#X obj 33 450 sel 0 1 2;
#X msg 204 500 say we'll lost everything?;
#X msg 204 470 add2 we'll lost everything?;
#X obj 631 638 outlet;
#X floatatom 510 427 5 0 0 0 - - -;
#X obj 510 403 random 3;
#X obj 502 448 sel 0 1 2;
#X obj 508 577 shell;
#X obj 549 598 bng 25 250 50 0 empty empty empty 17 7 0 10 -204786
-1 -1;
#X obj 1088 562 shell;
#X obj 1129 583 bng 25 250 50 0 empty empty empty 17 7 0 10 -204786
-1 -1;
#X obj 875 540 shell;
#X obj 916 561 bng 25 250 50 0 empty empty empty 17 7 0 10 -204786
-1 -1;
#X msg 354 524 add2 to understand life?;
#X msg 358 549 say to understand life?;
#X msg 482 478 add2 we will find peace?;
#X msg 482 503 say we will find peace?;
#X msg 575 526 add2 people will start to care?;
#X msg 579 549 say people will start to care?;
#X msg 732 228 add2 going to;
#X msg 731 255 say going to;
#X obj 726 288 shell;
#X obj 776 286 bng 25 250 50 0 empty empty empty 17 7 0 10 -204786
-1 -1;
#X floatatom 793 347 5 0 0 0 - - -;
#X obj 793 323 random 3;
#X obj 785 368 sel 0 1 2;
#X obj 853 139 random 2;
#X msg 641 398 add2 tell people the truth?;
#X msg 642 423 say tell people the truth?;
#X msg 721 449 add2 call your mom?;
#X msg 719 477 say call your mom?;
#X msg 832 401 add2 start having fun?;
#X msg 830 424 say start having fun?;
#X msg 953 206 add2 having;
#X msg 954 236 say having;
#X obj 987 260 shell;
#X obj 1040 246 bng 25 250 50 0 empty empty empty 17 7 0 10 -204786
-1 -1;
#X floatatom 1057 307 5 0 0 0 - - -;
#X obj 1057 283 random 3;
#X obj 1049 328 sel 0 1 2;
#X obj 848 197 sel 0 1;
#X msg 900 347 add2 trouble sleeping?;
#X msg 895 373 say trouble sleeping?;
#X msg 1003 407 add2 fun?;
#X msg 1000 435 say fun?;
#X msg 1073 368 add2 panic attacks?;
#X msg 1075 397 say panic attacks?;
#N canvas 156 155 913 565 answers_when 0;
#X obj 24 191 inlet;
#X obj 66 380 gemhead;
#X msg 87 460 font vera.ttf;
#X obj 350 443 loadbang;
#X msg 66 351 1;
#X msg 97 351 0;
#X floatatom 115 503 5 0 0 0 - - -;
#X msg 181 460 25;
#X obj 242 375 gemhead;
#X obj 428 374 gemhead;
#X obj 638 369 gemhead;
#X floatatom 294 499 5 0 0 0 - - -;
#X floatatom 476 504 5 0 0 0 - - -;
#X floatatom 689 503 5 0 0 0 - - -;
#X msg 242 347 1;
#X msg 274 346 0;
#X msg 428 345 1;
#X msg 460 344 0;
#X msg 638 340 1;
#X msg 670 339 0;
#X obj 40 222 bng 20 250 50 0 empty empty show_answers 10 7 0 12 -203904
-1 -1;
#X obj 721 207 bng 25 250 50 0 empty empty no_show -8 -8 0 14 -261234
-1 -1;
#X obj 66 407 translate 1 -6.15 -3 0;
#X obj 242 403 translate 1 -2.13 -3 0;
#X obj 428 402 translate 1 2.35 -3 0;
#X obj 638 397 translate 1 6.46 -3 0;
#X obj 746 168 inlet;
#X obj 118 23 inlet;
#X obj 276 21 inlet;
#X obj 412 22 inlet;
#X obj 554 26 inlet;
#X obj 66 519 text2d _;
#X obj 242 515 text2d _;
#X obj 428 520 text2d _;
#X obj 638 519 text2d _;
#X obj 88 53 bng 15 250 50 0 empty empty empty 17 7 0 10 -262144 -1
-1;
#X obj 256 48 bng 15 250 50 0 empty empty empty 17 7 0 10 -262144 -1
-1;
#X obj 385 44 bng 15 250 50 0 empty empty empty 17 7 0 10 -262144 -1
-1;
#X obj 531 49 bng 15 250 50 0 empty empty empty 17 7 0 10 -262144 -1
-1;
#X obj 689 70 r red_choice;
#X obj 721 89 r yellow_choice;
#X obj 774 66 r blue_choice;
#X obj 781 110 r green_choice;
#X text 627 28 lorsqu'une réponse est donnée \, l'affichage des réponses
se met à «off»;
#N canvas 547 161 445 344 answers_when_1 0;
#X obj 195 26 inlet;
#X obj 89 293 outlet;
#X obj 185 293 outlet;
#X obj 276 291 outlet;
#X obj 372 291 outlet;
#X obj 110 94 bng 15 250 50 0 empty empty empty 17 7 0 10 -262144 -1
-1;
#X obj 157 102 bng 15 250 50 0 empty empty empty 17 7 0 10 -262144
-1 -1;
#X obj 199 73 bng 15 250 50 0 empty empty empty 17 7 0 10 -262144 -1
-1;
#X obj 250 51 bng 15 250 50 0 empty empty empty 17 7 0 10 -262144 -1
-1;
#X msg 34 217 text Bruce Lee;
#X msg 111 194 text Gandalf;
#X msg 204 248 text Justin Trudeau;
#X msg 260 180 text Hermione Granger;
#X obj 34 129 delay 20;
#X obj 20 160 bng 15 250 50 0 empty empty empty 17 7 0 10 -203904 -1
-1;
#X obj 23 300 outlet;
#X connect 0 0 5 0;
#X connect 0 0 6 0;
#X connect 0 0 7 0;
#X connect 0 0 8 0;
#X connect 5 0 9 0;
#X connect 5 0 13 0;
#X connect 6 0 10 0;
#X connect 7 0 11 0;
#X connect 8 0 12 0;
#X connect 9 0 1 0;
#X connect 10 0 2 0;
#X connect 11 0 3 0;
#X connect 12 0 4 0;
#X connect 13 0 14 0;
#X connect 14 0 15 0;
#X restore 101 115 pd answers_when_1;
#N canvas 540 225 460 441 answers_when_2 0;
#X obj 192 20 inlet;
#X obj 99 381 outlet;
#X obj 195 381 outlet;
#X obj 286 379 outlet;
#X obj 382 379 outlet;
#X obj 89 99 bng 15 250 50 0 empty empty empty 17 7 0 10 -262144 -1
-1;
#X obj 136 83 bng 15 250 50 0 empty empty empty 17 7 0 10 -262144 -1
-1;
#X obj 187 61 bng 15 250 50 0 empty empty empty 17 7 0 10 -262144 -1
-1;
#X obj 253 72 bng 15 250 50 0 empty empty empty 17 7 0 10 -262144 -1
-1;
#X msg 148 224 text Alanis Morissette;
#X msg 80 270 text Will Smith;
#X msg 253 257 text Michelle Obama;
#X msg 333 202 text Donald Trump;
#X obj 44 139 delay 20;
#X obj 30 170 bng 15 250 50 0 empty empty empty 17 7 0 10 -203904 -1
-1;
#X obj 33 310 outlet;
#X connect 0 0 7 0;
#X connect 0 0 6 0;
#X connect 0 0 5 0;
#X connect 0 0 8 0;
#X connect 5 0 10 0;
#X connect 5 0 13 0;
#X connect 6 0 9 0;
#X connect 7 0 11 0;
#X connect 8 0 12 0;
#X connect 9 0 2 0;
#X connect 10 0 1 0;
#X connect 11 0 3 0;
#X connect 12 0 4 0;
#X connect 13 0 14 0;
#X connect 14 0 15 0;
#X restore 246 110 pd answers_when_2;
#N canvas 503 230 476 438 answers_when_3 0;
#X obj 31 27 inlet;
#X obj 111 374 outlet;
#X obj 207 374 outlet;
#X obj 298 372 outlet;
#X obj 394 372 outlet;
#X obj 77 114 bng 15 250 50 0 empty empty empty 17 7 0 10 -262144 -1
-1;
#X obj 146 93 bng 15 250 50 0 empty empty empty 17 7 0 10 -262144 -1
-1;
#X obj 197 90 bng 15 250 50 0 empty empty empty 17 7 0 10 -262144 -1
-1;
#X obj 263 82 bng 15 250 50 0 empty empty empty 17 7 0 10 -262144 -1
-1;
#X msg 128 169 text Beyonce;
#X msg 227 262 text Garou;
#X msg 291 175 text Dwight Schrute;
#X msg 334 249 text Angelina Jolie;
#X obj 53 158 delay 20;
#X obj 39 189 bng 15 250 50 0 empty empty empty 17 7 0 10 -203904 -1
-1;
#X obj 42 329 outlet;
#X connect 0 0 5 0;
#X connect 0 0 6 0;
#X connect 0 0 7 0;
#X connect 0 0 8 0;
#X connect 5 0 9 0;
#X connect 5 0 13 0;
#X connect 6 0 10 0;
#X connect 7 0 11 0;
#X connect 8 0 12 0;
#X connect 9 0 1 0;
#X connect 10 0 2 0;
#X connect 11 0 3 0;
#X connect 12 0 4 0;
#X connect 13 0 14 0;
#X connect 14 0 15 0;
#X restore 413 164 pd answers_when_3;
#N canvas 558 257 462 445 answers_when_4 0;
#X obj 22 19 inlet;
#X obj 89 362 outlet;
#X obj 185 362 outlet;
#X obj 276 360 outlet;
#X obj 372 360 outlet;
#X msg 81 158 text Pikachu;
#X msg 179 239 text Crazy Frog;
#X msg 328 199 text Marge Simpson;
#X msg 270 116 text Spiderman;
#X obj 38 100 bng 15 250 50 0 empty empty empty 17 7 0 10 -262144 -1
-1;
#X obj 87 88 bng 15 250 50 0 empty empty empty 17 7 0 10 -262144 -1
-1;
#X obj 127 78 bng 15 250 50 0 empty empty empty 17 7 0 10 -262144 -1
-1;
#X obj 183 61 bng 15 250 50 0 empty empty empty 17 7 0 10 -262144 -1
-1;
#X obj 32 186 delay 20;
#X obj 18 217 bng 15 250 50 0 empty empty empty 17 7 0 10 -203904 -1
-1;
#X obj 21 357 outlet;
#X connect 0 0 9 0;
#X connect 0 0 10 0;
#X connect 0 0 11 0;
#X connect 0 0 12 0;
#X connect 5 0 1 0;
#X connect 6 0 2 0;
#X connect 7 0 4 0;
#X connect 8 0 3 0;
#X connect 9 0 5 0;
#X connect 9 0 13 0;
#X connect 10 0 6 0;
#X connect 11 0 8 0;
#X connect 12 0 7 0;
#X connect 13 0 14 0;
#X connect 14 0 15 0;
#X restore 561 165 pd answers_when_4;
#X connect 0 0 20 0;
#X connect 1 0 22 0;
#X connect 2 0 31 0;
#X connect 2 0 32 0;
#X connect 2 0 33 0;
#X connect 2 0 34 0;
#X connect 3 0 2 0;
#X connect 3 0 7 0;
#X connect 3 0 5 0;
#X connect 3 0 15 0;
#X connect 3 0 17 0;
#X connect 3 0 19 0;
#X connect 4 0 1 0;
#X connect 5 0 1 0;
#X connect 6 0 31 1;
#X connect 7 0 6 0;
#X connect 7 0 11 0;
#X connect 7 0 12 0;
#X connect 7 0 13 0;
#X connect 8 0 23 0;
#X connect 9 0 24 0;
#X connect 10 0 25 0;
#X connect 11 0 32 1;
#X connect 12 0 33 1;
#X connect 13 0 34 1;
#X connect 14 0 8 0;
#X connect 15 0 8 0;
#X connect 16 0 9 0;
#X connect 17 0 9 0;
#X connect 18 0 10 0;
#X connect 19 0 10 0;
#X connect 20 0 4 0;
#X connect 20 0 18 0;
#X connect 20 0 16 0;
#X connect 20 0 14 0;
#X connect 21 0 19 0;
#X connect 21 0 17 0;
#X connect 21 0 15 0;
#X connect 21 0 5 0;
#X connect 22 0 31 0;
#X connect 23 0 32 0;
#X connect 24 0 33 0;
#X connect 25 0 34 0;
#X connect 26 0 21 0;
#X connect 27 0 35 0;
#X connect 28 0 36 0;
#X connect 29 0 37 0;
#X connect 30 0 38 0;
#X connect 35 0 44 0;
#X connect 36 0 45 0;
#X connect 37 0 46 0;
#X connect 38 0 47 0;
#X connect 39 0 21 0;
#X connect 40 0 21 0;
#X connect 41 0 21 0;
#X connect 42 0 21 0;
#X connect 44 0 20 0;
#X connect 44 1 31 0;
#X connect 44 2 32 0;
#X connect 44 3 33 0;
#X connect 44 4 34 0;
#X connect 45 0 20 0;
#X connect 45 1 31 0;
#X connect 45 2 32 0;
#X connect 45 3 33 0;
#X connect 45 4 34 0;
#X connect 46 0 20 0;
#X connect 46 1 31 0;
#X connect 46 2 32 0;
#X connect 46 3 33 0;
#X connect 46 4 34 0;
#X connect 47 0 20 0;
#X connect 47 1 31 0;
#X connect 47 2 32 0;
#X connect 47 3 33 0;
#X connect 47 4 34 0;
#X restore 487 124 pd answers_when;
#X obj 464 81 bng 20 250 50 0 empty empty show 5 7 0 14 -232576 -1
-1;
#X obj 595 80 bng 20 250 50 0 empty empty no_show 5 7 0 14 -261234
-1 -1;
#X obj 330 270 delay 50;
#X obj 363 308 bng 15 250 50 0 empty empty empty 17 7 0 10 -232576
-1 -1;
#X obj 604 48 r reset;
#X connect 0 0 6 0;
#X connect 1 0 7 0;
#X connect 2 0 31 0;
#X connect 4 0 8 0;
#X connect 5 0 31 0;
#X connect 6 0 1 0;
#X connect 7 0 5 0;
#X connect 7 0 4 0;
#X connect 7 1 10 0;
#X connect 7 1 11 0;
#X connect 8 1 9 0;
#X connect 9 0 24 0;
#X connect 10 0 31 0;
#X connect 11 0 12 0;
#X connect 12 1 13 0;
#X connect 13 0 61 0;
#X connect 14 0 25 0;
#X connect 15 0 75 0;
#X connect 16 0 18 0;
#X connect 17 0 31 0;
#X connect 18 1 19 0;
#X connect 19 0 34 0;
#X connect 20 0 22 0;
#X connect 21 0 31 0;
#X connect 22 1 23 0;
#X connect 23 0 40 0;
#X connect 24 0 14 0;
#X connect 25 0 17 0;
#X connect 25 0 16 0;
#X connect 25 1 21 0;
#X connect 25 1 20 0;
#X connect 26 0 28 0;
#X connect 27 0 31 0;
#X connect 28 1 29 0;
#X connect 29 0 31 0;
#X connect 29 0 82 1;
#X connect 29 0 85 0;
#X connect 30 0 35 0;
#X connect 31 0 38 0;
#X connect 32 0 28 0;
#X connect 33 0 31 0;
#X connect 34 0 30 0;
#X connect 35 0 27 0;
#X connect 35 0 26 0;
#X connect 35 1 33 0;
#X connect 35 1 32 0;
#X connect 35 2 37 0;
#X connect 35 2 36 0;
#X connect 36 0 28 0;
#X connect 37 0 31 0;
#X connect 39 0 41 0;
#X connect 40 0 39 0;
#X connect 41 0 48 0;
#X connect 41 0 49 0;
#X connect 41 1 50 0;
#X connect 41 1 51 0;
#X connect 41 2 52 0;
#X connect 41 2 53 0;
#X connect 42 1 43 0;
#X connect 43 0 31 0;
#X connect 43 0 82 2;
#X connect 43 0 85 0;
#X connect 44 1 45 0;
#X connect 45 0 31 0;
#X connect 45 0 82 4;
#X connect 45 0 85 0;
#X connect 46 1 47 0;
#X connect 47 0 31 0;
#X connect 47 0 82 3;
#X connect 47 0 85 0;
#X connect 48 0 31 0;
#X connect 49 0 42 0;
#X connect 50 0 31 0;
#X connect 51 0 42 0;
#X connect 52 0 31 0;
#X connect 53 0 42 0;
#X connect 54 0 31 0;
#X connect 55 0 56 0;
#X connect 56 1 57 0;
#X connect 57 0 59 0;
#X connect 58 0 60 0;
#X connect 59 0 58 0;
#X connect 60 0 62 0;
#X connect 60 0 63 0;
#X connect 60 1 64 0;
#X connect 60 1 65 0;
#X connect 60 2 66 0;
#X connect 60 2 67 0;
#X connect 61 0 15 0;
#X connect 62 0 31 0;
#X connect 63 0 46 0;
#X connect 64 0 31 0;
#X connect 65 0 46 0;
#X connect 66 0 31 0;
#X connect 67 0 46 0;
#X connect 68 0 31 0;
#X connect 69 0 70 0;
#X connect 70 1 71 0;
#X connect 71 0 73 0;
#X connect 72 0 74 0;
#X connect 73 0 72 0;
#X connect 74 0 76 0;
#X connect 74 0 77 0;
#X connect 74 1 79 0;
#X connect 74 1 78 0;
#X connect 74 2 80 0;
#X connect 74 2 81 0;
#X connect 75 0 54 0;
#X connect 75 0 55 0;
#X connect 75 1 68 0;
#X connect 75 1 69 0;
#X connect 76 0 31 0;
#X connect 77 0 44 0;
#X connect 78 0 31 0;
#X connect 79 0 44 0;
#X connect 80 0 31 0;
#X connect 81 0 44 0;
#X connect 83 0 82 0;
#X connect 84 0 82 5;
#X connect 85 0 86 0;
#X connect 86 0 83 0;
#X connect 87 0 84 0;
#X restore 153 303 pd when_quest;
#N canvas 41 38 1239 720 what_quest 0;
#X obj 45 -35 inlet;
#X floatatom 33 23 5 0 0 0 - - -;
#X obj 189 -15 inlet;
#X text 151 -39 interrogation word incoming (set);
#X msg 47 113 say do you;
#X msg 35 85 add2 do you;
#X obj 34 -7 random 2;
#X obj 35 53 sel 0 1;
#X obj 45 139 shell;
#X obj 86 160 bng 25 250 50 0 empty empty empty 17 7 0 10 -204786 -1
-1;
#X obj 841 84 shell;
#X obj 882 105 bng 25 250 50 0 empty empty empty 17 7 0 10 -204786
-1 -1;
#X floatatom 52 231 5 0 0 0 - - -;
#X floatatom 864 178 5 0 0 0 - - -;
#X obj 44 363 shell;
#X obj 85 384 bng 25 250 50 0 empty empty empty 17 7 0 10 -204786 -1
-1;
#X obj 501 357 shell;
#X obj 542 378 bng 25 250 50 0 empty empty empty 17 7 0 10 -204786
-1 -1;
#X obj 51 202 random 2;
#X obj 44 261 sel 0 1;
#X obj 135 596 shell;
#X obj 176 617 bng 25 250 50 0 empty empty empty 17 7 0 10 -204786
-1 -1;
#X floatatom 51 439 5 0 0 0 - - -;
#X msg 643 617 text what do you hate to hear?;
#X obj 51 415 random 3;
#X obj 43 460 sel 0 1 2;
#X obj 642 644 outlet;
#X floatatom 520 437 5 0 0 0 - - -;
#X obj 520 413 random 3;
#X obj 512 458 sel 0 1 2;
#X obj 518 587 shell;
#X obj 559 608 bng 25 250 50 0 empty empty empty 17 7 0 10 -204786
-1 -1;
#X obj 885 550 shell;
#X obj 926 571 bng 25 250 50 0 empty empty empty 17 7 0 10 -204786
-1 -1;
#X msg 26 304 add2 like;
#X msg 26 327 say like;
#X msg 19 485 add2 to eat?;
#X msg 24 509 say to eat?;
#X msg 108 540 add2 to listen to?;
#X msg 110 564 say to listen to?;
#X msg 214 480 add2 to do on the evening?;
#X msg 214 510 say to do on the evening?;
#X msg 489 297 add2 hate;
#X msg 485 324 say hate;
#X msg 364 534 add2 to see?;
#X msg 368 559 say to see?;
#X msg 492 488 add2 to hear?;
#X msg 492 513 say to hear?;
#X msg 585 536 add2 ?;
#X msg 589 559 say ?;
#X msg 828 1 add2 is;
#X msg 832 34 say is;
#X obj 858 207 sel 0 1 2 3 4;
#X obj 863 149 random 5;
#X msg 644 253 add2 your biggest fear?;
#X msg 643 280 say your biggest fear?;
#X msg 679 307 add2 life?;
#X msg 680 337 say life?;
#X msg 823 264 add2 a good day?;
#X msg 821 293 say a good day?;
#X msg 906 333 add2 the best?;
#X msg 904 359 say the best?;
#X msg 1026 258 add2 your biggest dream?;
#X msg 1029 288 say your biggest dream?;
#X obj 469 139 bng 20 250 50 0 empty empty show 5 7 0 14 -232576 -1
-1;
#X obj 600 138 bng 20 250 50 0 empty empty no_show 5 7 0 14 -261234
-1 -1;
#N canvas 156 155 913 565 answers_what 0;
#X obj 24 191 inlet;
#X obj 66 380 gemhead;
#X msg 87 460 font vera.ttf;
#X obj 350 443 loadbang;
#X msg 66 351 1;
#X msg 97 351 0;
#X floatatom 115 503 5 0 0 0 - - -;
#X msg 181 460 25;
#X obj 242 375 gemhead;
#X obj 428 374 gemhead;
#X obj 638 369 gemhead;
#X floatatom 294 499 5 0 0 0 - - -;
#X floatatom 476 504 5 0 0 0 - - -;
#X floatatom 689 503 5 0 0 0 - - -;
#X msg 242 347 1;
#X msg 274 346 0;
#X msg 428 345 1;
#X msg 460 344 0;
#X msg 638 340 1;
#X msg 670 339 0;
#X obj 40 222 bng 20 250 50 0 empty empty show_answers 10 7 0 12 -203904
-1 -1;
#X obj 630 206 bng 25 250 50 0 empty empty no_show -8 -8 0 14 -261234
-1 -1;
#X obj 66 407 translate 1 -6.15 -3 0;
#X obj 242 403 translate 1 -2.13 -3 0;
#X obj 428 402 translate 1 2.35 -3 0;
#X obj 638 397 translate 1 6.46 -3 0;
#X obj 655 167 inlet;
#X obj 118 23 inlet;
#X obj 276 21 inlet;
#X obj 412 22 inlet;
#X obj 66 519 text2d _;
#X obj 242 515 text2d _;
#X obj 428 520 text2d _;
#X obj 638 519 text2d _;
#X obj 88 53 bng 15 250 50 0 empty empty empty 17 7 0 10 -262144 -1
-1;
#X obj 256 48 bng 15 250 50 0 empty empty empty 17 7 0 10 -262144 -1
-1;
#X obj 385 44 bng 15 250 50 0 empty empty empty 17 7 0 10 -262144 -1
-1;
#X obj 598 69 r red_choice;
#X obj 630 88 r yellow_choice;
#X obj 683 65 r blue_choice;
#X obj 690 109 r green_choice;
#X text 536 27 lorsqu'une réponse est donnée \, l'affichage des réponses
se met à «off»;
#N canvas 547 161 445 344 answers_what_1 0;
#X obj 195 26 inlet;
#X obj 89 293 outlet;
#X obj 185 293 outlet;
#X obj 276 291 outlet;
#X obj 372 291 outlet;
#X obj 110 94 bng 15 250 50 0 empty empty empty 17 7 0 10 -262144 -1
-1;
#X obj 157 102 bng 15 250 50 0 empty empty empty 17 7 0 10 -262144
-1 -1;
#X obj 199 73 bng 15 250 50 0 empty empty empty 17 7 0 10 -262144 -1
-1;
#X obj 250 51 bng 15 250 50 0 empty empty empty 17 7 0 10 -262144 -1
-1;
#X msg 34 217 text Bruce Lee;
#X msg 111 194 text Gandalf;
#X msg 204 248 text Justin Trudeau;
#X msg 260 180 text Hermione Granger;
#X obj 34 129 delay 20;
#X obj 20 160 bng 15 250 50 0 empty empty empty 17 7 0 10 -203904 -1
-1;
#X obj 23 300 outlet;
#X connect 0 0 5 0;
#X connect 0 0 6 0;
#X connect 0 0 7 0;
#X connect 0 0 8 0;
#X connect 5 0 9 0;
#X connect 5 0 13 0;
#X connect 6 0 10 0;
#X connect 7 0 11 0;
#X connect 8 0 12 0;
#X connect 9 0 1 0;
#X connect 10 0 2 0;
#X connect 11 0 3 0;
#X connect 12 0 4 0;
#X connect 13 0 14 0;
#X connect 14 0 15 0;
#X restore 101 115 pd answers_what_1;
#N canvas 540 225 460 441 answers_what_2 0;
#X obj 192 20 inlet;
#X obj 99 381 outlet;
#X obj 195 381 outlet;
#X obj 286 379 outlet;
#X obj 382 379 outlet;
#X obj 89 99 bng 15 250 50 0 empty empty empty 17 7 0 10 -262144 -1
-1;
#X obj 136 83 bng 15 250 50 0 empty empty empty 17 7 0 10 -262144 -1
-1;
#X obj 187 61 bng 15 250 50 0 empty empty empty 17 7 0 10 -262144 -1
-1;
#X obj 253 72 bng 15 250 50 0 empty empty empty 17 7 0 10 -262144 -1
-1;
#X msg 148 224 text Alanis Morissette;
#X msg 80 270 text Will Smith;
#X msg 253 257 text Michelle Obama;
#X msg 333 202 text Donald Trump;
#X obj 44 139 delay 20;
#X obj 30 170 bng 15 250 50 0 empty empty empty 17 7 0 10 -203904 -1
-1;
#X obj 33 310 outlet;
#X connect 0 0 7 0;
#X connect 0 0 6 0;
#X connect 0 0 5 0;
#X connect 0 0 8 0;
#X connect 5 0 10 0;
#X connect 5 0 13 0;
#X connect 6 0 9 0;
#X connect 7 0 11 0;
#X connect 8 0 12 0;
#X connect 9 0 2 0;
#X connect 10 0 1 0;
#X connect 11 0 3 0;
#X connect 12 0 4 0;
#X connect 13 0 14 0;
#X connect 14 0 15 0;
#X restore 246 110 pd answers_what_2;
#N canvas 503 230 476 438 answers_what_3 0;
#X obj 31 27 inlet;
#X obj 111 374 outlet;
#X obj 207 374 outlet;
#X obj 298 372 outlet;
#X obj 394 372 outlet;
#X obj 77 114 bng 15 250 50 0 empty empty empty 17 7 0 10 -262144 -1
-1;
#X obj 146 93 bng 15 250 50 0 empty empty empty 17 7 0 10 -262144 -1
-1;
#X obj 197 90 bng 15 250 50 0 empty empty empty 17 7 0 10 -262144 -1
-1;
#X obj 263 82 bng 15 250 50 0 empty empty empty 17 7 0 10 -262144 -1
-1;
#X msg 128 169 text Beyonce;
#X msg 227 262 text Garou;
#X msg 291 175 text Dwight Schrute;
#X msg 334 249 text Angelina Jolie;
#X obj 53 158 delay 20;
#X obj 39 189 bng 15 250 50 0 empty empty empty 17 7 0 10 -203904 -1
-1;
#X obj 42 329 outlet;
#X connect 0 0 5 0;
#X connect 0 0 6 0;
#X connect 0 0 7 0;
#X connect 0 0 8 0;
#X connect 5 0 9 0;
#X connect 5 0 13 0;
#X connect 6 0 10 0;
#X connect 7 0 11 0;
#X connect 8 0 12 0;
#X connect 9 0 1 0;
#X connect 10 0 2 0;
#X connect 11 0 3 0;
#X connect 12 0 4 0;
#X connect 13 0 14 0;
#X connect 14 0 15 0;
#X restore 413 164 pd answers_what_3;
#X connect 0 0 20 0;
#X connect 1 0 22 0;
#X connect 2 0 30 0;
#X connect 2 0 31 0;
#X connect 2 0 32 0;
#X connect 2 0 33 0;
#X connect 3 0 2 0;
#X connect 3 0 7 0;
#X connect 3 0 5 0;
#X connect 3 0 15 0;
#X connect 3 0 17 0;
#X connect 3 0 19 0;
#X connect 4 0 1 0;
#X connect 5 0 1 0;
#X connect 6 0 30 1;
#X connect 7 0 6 0;
#X connect 7 0 11 0;
#X connect 7 0 12 0;
#X connect 7 0 13 0;
#X connect 8 0 23 0;
#X connect 9 0 24 0;
#X connect 10 0 25 0;
#X connect 11 0 31 1;
#X connect 12 0 32 1;
#X connect 13 0 33 1;
#X connect 14 0 8 0;
#X connect 15 0 8 0;
#X connect 16 0 9 0;
#X connect 17 0 9 0;
#X connect 18 0 10 0;
#X connect 19 0 10 0;
#X connect 20 0 4 0;
#X connect 20 0 18 0;
#X connect 20 0 16 0;
#X connect 20 0 14 0;
#X connect 21 0 19 0;
#X connect 21 0 17 0;
#X connect 21 0 15 0;
#X connect 21 0 5 0;
#X connect 22 0 30 0;
#X connect 23 0 31 0;
#X connect 24 0 32 0;
#X connect 25 0 33 0;
#X connect 26 0 21 0;
#X connect 27 0 34 0;
#X connect 28 0 35 0;
#X connect 29 0 36 0;
#X connect 34 0 42 0;
#X connect 35 0 43 0;
#X connect 36 0 44 0;
#X connect 37 0 21 0;
#X connect 38 0 21 0;
#X connect 39 0 21 0;
#X connect 40 0 21 0;
#X connect 42 0 20 0;
#X connect 42 1 30 0;
#X connect 42 2 31 0;
#X connect 42 3 32 0;
#X connect 42 4 33 0;
#X connect 43 0 20 0;
#X connect 43 1 30 0;
#X connect 43 2 31 0;
#X connect 43 3 32 0;
#X connect 43 4 33 0;
#X connect 44 0 20 0;
#X connect 44 1 30 0;
#X connect 44 2 31 0;
#X connect 44 3 32 0;
#X connect 44 4 33 0;
#X restore 492 182 pd answers_what;
#X obj 340 280 delay 50;
#X obj 373 318 bng 15 250 50 0 empty empty empty 17 7 0 10 -232576
-1 -1;
#X obj 606 105 r reset;
#X connect 0 0 6 0;
#X connect 1 0 7 0;
#X connect 2 0 23 0;
#X connect 4 0 8 0;
#X connect 5 0 23 0;
#X connect 6 0 1 0;
#X connect 7 0 5 0;
#X connect 7 0 4 0;
#X connect 7 1 50 0;
#X connect 7 1 51 0;
#X connect 8 1 9 0;
#X connect 9 0 18 0;
#X connect 10 1 11 0;
#X connect 11 0 53 0;
#X connect 12 0 19 0;
#X connect 13 0 52 0;
#X connect 14 1 15 0;
#X connect 15 0 24 0;
#X connect 16 1 17 0;
#X connect 17 0 28 0;
#X connect 18 0 12 0;
#X connect 19 0 34 0;
#X connect 19 0 35 0;
#X connect 19 1 42 0;
#X connect 19 1 43 0;
#X connect 20 1 21 0;
#X connect 21 0 23 0;
#X connect 21 0 67 0;
#X connect 21 0 66 1;
#X connect 22 0 25 0;
#X connect 23 0 26 0;
#X connect 24 0 22 0;
#X connect 25 0 36 0;
#X connect 25 0 37 0;
#X connect 25 1 38 0;
#X connect 25 1 39 0;
#X connect 25 2 40 0;
#X connect 25 2 41 0;
#X connect 27 0 29 0;
#X connect 28 0 27 0;
#X connect 29 0 44 0;
#X connect 29 0 45 0;
#X connect 29 1 46 0;
#X connect 29 1 47 0;
#X connect 29 2 48 0;
#X connect 29 2 49 0;
#X connect 30 1 31 0;
#X connect 31 0 23 0;
#X connect 31 0 67 0;
#X connect 31 0 66 2;
#X connect 32 1 33 0;
#X connect 33 0 23 0;
#X connect 33 0 67 0;
#X connect 33 0 66 3;
#X connect 34 0 23 0;
#X connect 35 0 14 0;
#X connect 36 0 23 0;
#X connect 37 0 20 0;
#X connect 38 0 23 0;
#X connect 39 0 20 0;
#X connect 40 0 23 0;
#X connect 41 0 20 0;
#X connect 42 0 23 0;
#X connect 43 0 16 0;
#X connect 44 0 23 0;
#X connect 45 0 30 0;
#X connect 46 0 23 0;
#X connect 47 0 30 0;
#X connect 48 0 23 0;
#X connect 49 0 30 0;
#X connect 50 0 23 0;
#X connect 51 0 10 0;
#X connect 52 0 54 0;
#X connect 52 0 55 0;
#X connect 52 1 56 0;
#X connect 52 1 57 0;
#X connect 52 2 58 0;
#X connect 52 2 59 0;
#X connect 52 3 60 0;
#X connect 52 3 61 0;
#X connect 52 4 62 0;
#X connect 52 4 63 0;
#X connect 53 0 13 0;
#X connect 54 0 23 0;
#X connect 55 0 32 0;
#X connect 56 0 23 0;
#X connect 57 0 32 0;
#X connect 58 0 23 0;
#X connect 59 0 32 0;
#X connect 60 0 23 0;
#X connect 61 0 32 0;
#X connect 62 0 23 0;
#X connect 63 0 32 0;
#X connect 64 0 66 0;
#X connect 65 0 66 4;
#X connect 67 0 68 0;
#X connect 68 0 64 0;
#X connect 69 0 65 0;
#X restore 292 315 pd what_quest;
#N canvas 47 43 1209 727 why_quest 0;
#X obj 49 -34 inlet;
#X floatatom 32 28 5 0 0 0 - - -;
#X obj 188 -17 inlet;
#X text 150 -41 interrogation word incoming (set);
#X obj 33 -2 random 2;
#X obj 34 58 sel 0 1;
#X obj 44 144 shell;
#X obj 85 165 bng 25 250 50 0 empty empty empty 17 7 0 10 -204786 -1
-1;
#X msg 827 6 add2 are you;
#X msg 831 39 say are you;
#X obj 840 89 shell;
#X obj 881 110 bng 25 250 50 0 empty empty empty 17 7 0 10 -204786
-1 -1;
#X floatatom 51 236 5 0 0 0 - - -;
#X floatatom 863 183 5 0 0 0 - - -;
#X obj 43 368 shell;
#X obj 84 389 bng 25 250 50 0 empty empty empty 17 7 0 10 -204786 -1
-1;
#X obj 500 362 shell;
#X obj 541 383 bng 25 250 50 0 empty empty empty 17 7 0 10 -204786
-1 -1;
#X obj 50 207 random 2;
#X obj 43 266 sel 0 1;
#X obj 134 601 shell;
#X obj 175 622 bng 25 250 50 0 empty empty empty 17 7 0 10 -204786
-1 -1;
#X floatatom 50 444 5 0 0 0 - - -;
#X msg 642 622 text why don't you stay and help me?;
#X obj 50 420 random 3;
#X obj 42 465 sel 0 1 2;
#X obj 640 653 outlet;
#X floatatom 519 442 5 0 0 0 - - -;
#X obj 519 418 random 3;
#X obj 511 463 sel 0 1 2;
#X obj 517 592 shell;
#X obj 558 613 bng 25 250 50 0 empty empty empty 17 7 0 10 -204786
-1 -1;
#X obj 1097 577 shell;
#X obj 1138 598 bng 25 250 50 0 empty empty empty 17 7 0 10 -204786
-1 -1;
#X obj 884 555 shell;
#X obj 925 576 bng 25 250 50 0 empty empty empty 17 7 0 10 -204786
-1 -1;
#X obj 735 303 shell;
#X obj 785 301 bng 25 250 50 0 empty empty empty 17 7 0 10 -204786
-1 -1;
#X floatatom 802 362 5 0 0 0 - - -;
#X obj 802 338 random 3;
#X obj 794 383 sel 0 1 2;
#X obj 862 154 random 2;
#X obj 996 275 shell;
#X obj 1049 261 bng 25 250 50 0 empty empty empty 17 7 0 10 -204786
-1 -1;
#X floatatom 1066 322 5 0 0 0 - - -;
#X obj 1066 298 random 3;
#X obj 1058 343 sel 0 1 2;
#X obj 857 212 sel 0 1;
#X msg 34 90 add2 don't you;
#X msg 46 118 say don't you;
#X msg 25 309 add2 go;
#X msg 25 332 say go;
#X msg 488 302 add2 stay;
#X msg 484 329 say stay;
#X msg 18 490 add2 and help people?;
#X msg 23 514 say and help people?;
#X msg 107 545 add2 for a run?;
#X msg 213 485 add2 to sleep?;
#X msg 213 515 say to sleep?;
#X msg 363 539 add2 here?;
#X msg 367 564 say here?;
#X msg 491 493 add2 and help me?;
#X msg 491 518 say and help me?;
#X msg 584 541 add2 awake at night?;
#X msg 588 564 say awake at night?;
#X msg 741 243 add2 happy;
#X msg 740 270 say happy;
#X msg 962 221 add2 sad;
#X msg 963 251 say sad;
#X msg 650 413 add2 when people cry?;
#X msg 651 438 say when people cry?;
#X msg 730 464 add2 all the time?;
#X msg 728 492 say all the time?;
#X msg 841 416 add2 when it rains?;
#X msg 839 439 say when it rains?;
#X msg 909 362 add2 during breakfast?;
#X msg 904 388 say during breakfast?;
#X msg 973 459 add2 when i speak?;
#X msg 970 487 say when i speak?;
#X msg 1063 386 add2 at night?;
#X msg 1065 415 say at night?;
#X msg 109 569 say for a run?;
#X obj 473 164 bng 20 250 50 0 empty empty show 5 7 0 14 -232576 -1
-1;
#X obj 604 163 bng 20 250 50 0 empty empty no_show 5 7 0 14 -261234
-1 -1;
#X obj 344 305 delay 50;
#X obj 377 343 bng 15 250 50 0 empty empty empty 17 7 0 10 -232576
-1 -1;
#X obj 610 130 r reset;
#N canvas 156 155 914 577 answers_why 0;
#X obj 24 191 inlet;
#X obj 66 380 gemhead;
#X msg 87 460 font vera.ttf;
#X obj 350 443 loadbang;
#X msg 66 351 1;
#X msg 97 351 0;
#X floatatom 115 503 5 0 0 0 - - -;
#X msg 181 460 25;
#X obj 242 375 gemhead;
#X obj 428 374 gemhead;
#X obj 638 369 gemhead;
#X floatatom 294 499 5 0 0 0 - - -;
#X floatatom 476 504 5 0 0 0 - - -;
#X floatatom 689 503 5 0 0 0 - - -;
#X msg 242 347 1;
#X msg 274 346 0;
#X msg 428 345 1;
#X msg 460 344 0;
#X msg 638 340 1;
#X msg 670 339 0;
#X obj 40 222 bng 20 250 50 0 empty empty show_answers 10 7 0 12 -203904
-1 -1;
#X obj 694 201 bng 25 250 50 0 empty empty no_show -8 -8 0 14 -261234
-1 -1;
#X obj 66 407 translate 1 -6.15 -3 0;
#X obj 242 403 translate 1 -2.13 -3 0;
#X obj 428 402 translate 1 2.35 -3 0;
#X obj 638 397 translate 1 6.46 -3 0;
#X obj 719 162 inlet;
#X obj 118 23 inlet;
#X obj 276 21 inlet;
#X obj 412 22 inlet;
#X obj 66 519 text2d _;
#X obj 242 515 text2d _;
#X obj 428 520 text2d _;
#X obj 638 519 text2d _;
#X obj 88 53 bng 15 250 50 0 empty empty empty 17 7 0 10 -262144 -1
-1;
#X obj 256 48 bng 15 250 50 0 empty empty empty 17 7 0 10 -262144 -1
-1;
#X obj 385 44 bng 15 250 50 0 empty empty empty 17 7 0 10 -262144 -1
-1;
#X obj 662 64 r red_choice;
#X obj 694 83 r yellow_choice;
#X obj 747 60 r blue_choice;
#X obj 754 104 r green_choice;
#X text 600 22 lorsqu'une réponse est donnée \, l'affichage des réponses
se met à «off»;
#X obj 516 23 inlet;
#X obj 489 45 bng 15 250 50 0 empty empty empty 17 7 0 10 -262144 -1
-1;
#N canvas 503 230 476 438 answers_why_4 0;
#X obj 31 27 inlet;
#X obj 111 374 outlet;
#X obj 207 374 outlet;
#X obj 298 372 outlet;
#X obj 394 372 outlet;
#X obj 77 114 bng 15 250 50 0 empty empty empty 17 7 0 10 -262144 -1
-1;
#X obj 146 93 bng 15 250 50 0 empty empty empty 17 7 0 10 -262144 -1
-1;
#X obj 197 90 bng 15 250 50 0 empty empty empty 17 7 0 10 -262144 -1
-1;
#X obj 263 82 bng 15 250 50 0 empty empty empty 17 7 0 10 -262144 -1
-1;
#X msg 128 169 text Beyonce;
#X msg 227 262 text Garou;
#X msg 291 175 text Dwight Schrute;
#X msg 334 249 text Angelina Jolie;
#X obj 53 158 delay 20;
#X obj 39 189 bng 15 250 50 0 empty empty empty 17 7 0 10 -203904 -1
-1;
#X obj 42 329 outlet;
#X connect 0 0 5 0;
#X connect 0 0 6 0;
#X connect 0 0 7 0;
#X connect 0 0 8 0;
#X connect 5 0 9 0;
#X connect 5 0 13 0;
#X connect 6 0 10 0;
#X connect 7 0 11 0;
#X connect 8 0 12 0;
#X connect 9 0 1 0;
#X connect 10 0 2 0;
#X connect 11 0 3 0;
#X connect 12 0 4 0;
#X connect 13 0 14 0;
#X connect 14 0 15 0;
#X restore 493 126 pd answers_why_4;
#N canvas 503 230 476 438 answers_why_3 0;
#X obj 31 27 inlet;
#X obj 111 374 outlet;
#X obj 207 374 outlet;
#X obj 298 372 outlet;
#X obj 394 372 outlet;
#X obj 77 114 bng 15 250 50 0 empty empty empty 17 7 0 10 -262144 -1
-1;
#X obj 146 93 bng 15 250 50 0 empty empty empty 17 7 0 10 -262144 -1
-1;
#X obj 197 90 bng 15 250 50 0 empty empty empty 17 7 0 10 -262144 -1
-1;
#X obj 263 82 bng 15 250 50 0 empty empty empty 17 7 0 10 -262144 -1
-1;
#X msg 128 169 text Beyonce;
#X msg 227 262 text Garou;
#X msg 291 175 text Dwight Schrute;
#X msg 334 249 text Angelina Jolie;
#X obj 53 158 delay 20;
#X obj 39 189 bng 15 250 50 0 empty empty empty 17 7 0 10 -203904 -1
-1;
#X obj 42 329 outlet;
#X connect 0 0 5 0;
#X connect 0 0 6 0;
#X connect 0 0 7 0;
#X connect 0 0 8 0;
#X connect 5 0 9 0;
#X connect 5 0 13 0;
#X connect 6 0 10 0;
#X connect 7 0 11 0;
#X connect 8 0 12 0;
#X connect 9 0 1 0;
#X connect 10 0 2 0;
#X connect 11 0 3 0;
#X connect 12 0 4 0;
#X connect 13 0 14 0;
#X connect 14 0 15 0;
#X restore 413 164 pd answers_why_3;
#N canvas 540 225 460 441 answers_why_2 0;
#X obj 192 20 inlet;
#X obj 99 381 outlet;
#X obj 195 381 outlet;
#X obj 286 379 outlet;
#X obj 382 379 outlet;
#X obj 89 99 bng 15 250 50 0 empty empty empty 17 7 0 10 -262144 -1
-1;
#X obj 136 83 bng 15 250 50 0 empty empty empty 17 7 0 10 -262144 -1
-1;
#X obj 187 61 bng 15 250 50 0 empty empty empty 17 7 0 10 -262144 -1
-1;
#X obj 253 72 bng 15 250 50 0 empty empty empty 17 7 0 10 -262144 -1
-1;
#X msg 148 224 text Alanis Morissette;
#X msg 80 270 text Will Smith;
#X msg 253 257 text Michelle Obama;
#X msg 333 202 text Donald Trump;
#X obj 44 139 delay 20;
#X obj 30 170 bng 15 250 50 0 empty empty empty 17 7 0 10 -203904 -1
-1;
#X obj 33 310 outlet;
#X connect 0 0 7 0;
#X connect 0 0 6 0;
#X connect 0 0 5 0;
#X connect 0 0 8 0;
#X connect 5 0 10 0;
#X connect 5 0 13 0;
#X connect 6 0 9 0;
#X connect 7 0 11 0;
#X connect 8 0 12 0;
#X connect 9 0 2 0;
#X connect 10 0 1 0;
#X connect 11 0 3 0;
#X connect 12 0 4 0;
#X connect 13 0 14 0;
#X connect 14 0 15 0;
#X restore 246 110 pd answers_why_2;
#N canvas 547 161 445 344 answers_why_1 0;
#X obj 195 26 inlet;
#X obj 89 293 outlet;
#X obj 185 293 outlet;
#X obj 276 291 outlet;
#X obj 372 291 outlet;
#X obj 110 94 bng 15 250 50 0 empty empty empty 17 7 0 10 -262144 -1
-1;
#X obj 157 102 bng 15 250 50 0 empty empty empty 17 7 0 10 -262144
-1 -1;
#X obj 199 73 bng 15 250 50 0 empty empty empty 17 7 0 10 -262144 -1
-1;
#X obj 250 51 bng 15 250 50 0 empty empty empty 17 7 0 10 -262144 -1
-1;
#X msg 34 217 text Bruce Lee;
#X msg 111 194 text Gandalf;
#X msg 204 248 text Justin Trudeau;
#X msg 260 180 text Hermione Granger;
#X obj 34 129 delay 20;
#X obj 20 160 bng 15 250 50 0 empty empty empty 17 7 0 10 -203904 -1
-1;
#X obj 23 300 outlet;
#X connect 0 0 5 0;
#X connect 0 0 6 0;
#X connect 0 0 7 0;
#X connect 0 0 8 0;
#X connect 5 0 9 0;
#X connect 5 0 13 0;
#X connect 6 0 10 0;
#X connect 7 0 11 0;
#X connect 8 0 12 0;
#X connect 9 0 1 0;
#X connect 10 0 2 0;
#X connect 11 0 3 0;
#X connect 12 0 4 0;
#X connect 13 0 14 0;
#X connect 14 0 15 0;
#X restore 101 115 pd answers_why_1;
#X connect 0 0 20 0;
#X connect 1 0 22 0;
#X connect 2 0 30 0;
#X connect 2 0 31 0;
#X connect 2 0 32 0;
#X connect 2 0 33 0;
#X connect 3 0 2 0;
#X connect 3 0 7 0;
#X connect 3 0 5 0;
#X connect 3 0 15 0;
#X connect 3 0 17 0;
#X connect 3 0 19 0;
#X connect 4 0 1 0;
#X connect 5 0 1 0;
#X connect 6 0 30 1;
#X connect 7 0 6 0;
#X connect 7 0 11 0;
#X connect 7 0 12 0;
#X connect 7 0 13 0;
#X connect 8 0 23 0;
#X connect 9 0 24 0;
#X connect 10 0 25 0;
#X connect 11 0 31 1;
#X connect 12 0 32 1;
#X connect 13 0 33 1;
#X connect 14 0 8 0;
#X connect 15 0 8 0;
#X connect 16 0 9 0;
#X connect 17 0 9 0;
#X connect 18 0 10 0;
#X connect 19 0 10 0;
#X connect 20 0 4 0;
#X connect 20 0 18 0;
#X connect 20 0 16 0;
#X connect 20 0 14 0;
#X connect 21 0 19 0;
#X connect 21 0 17 0;
#X connect 21 0 15 0;
#X connect 21 0 5 0;
#X connect 22 0 30 0;
#X connect 23 0 31 0;
#X connect 24 0 32 0;
#X connect 25 0 33 0;
#X connect 26 0 21 0;
#X connect 27 0 34 0;
#X connect 28 0 35 0;
#X connect 29 0 36 0;
#X connect 34 0 47 0;
#X connect 35 0 46 0;
#X connect 36 0 45 0;
#X connect 37 0 21 0;
#X connect 38 0 21 0;
#X connect 39 0 21 0;
#X connect 40 0 21 0;
#X connect 42 0 43 0;
#X connect 43 0 44 0;
#X connect 44 0 20 0;
#X connect 44 1 30 0;
#X connect 44 2 31 0;
#X connect 44 3 32 0;
#X connect 44 4 33 0;
#X connect 45 0 20 0;
#X connect 45 1 30 0;
#X connect 45 2 31 0;
#X connect 45 3 32 0;
#X connect 45 4 33 0;
#X connect 46 0 20 0;
#X connect 46 1 30 0;
#X connect 46 2 31 0;
#X connect 46 3 32 0;
#X connect 46 4 33 0;
#X connect 47 0 20 0;
#X connect 47 1 30 0;
#X connect 47 2 31 0;
#X connect 47 3 32 0;
#X connect 47 4 33 0;
#X restore 496 207 pd answers_why;
#X connect 0 0 4 0;
#X connect 1 0 5 0;
#X connect 2 0 23 0;
#X connect 4 0 1 0;
#X connect 5 0 48 0;
#X connect 5 0 49 0;
#X connect 5 1 8 0;
#X connect 5 1 9 0;
#X connect 6 1 7 0;
#X connect 7 0 18 0;
#X connect 8 0 23 0;
#X connect 9 0 10 0;
#X connect 10 1 11 0;
#X connect 11 0 41 0;
#X connect 12 0 19 0;
#X connect 13 0 47 0;
#X connect 14 1 15 0;
#X connect 15 0 24 0;
#X connect 16 1 17 0;
#X connect 17 0 28 0;
#X connect 18 0 12 0;
#X connect 19 0 50 0;
#X connect 19 0 51 0;
#X connect 19 1 52 0;
#X connect 19 1 53 0;
#X connect 20 1 21 0;
#X connect 21 0 23 0;
#X connect 21 0 84 0;
#X connect 21 0 87 1;
#X connect 22 0 25 0;
#X connect 23 0 26 0;
#X connect 24 0 22 0;
#X connect 25 0 54 0;
#X connect 25 0 55 0;
#X connect 25 1 56 0;
#X connect 25 1 81 0;
#X connect 25 2 57 0;
#X connect 25 2 58 0;
#X connect 27 0 29 0;
#X connect 28 0 27 0;
#X connect 29 0 59 0;
#X connect 29 0 60 0;
#X connect 29 1 61 0;
#X connect 29 1 62 0;
#X connect 29 2 63 0;
#X connect 29 2 64 0;
#X connect 30 1 31 0;
#X connect 31 0 23 0;
#X connect 31 0 84 0;
#X connect 31 0 87 2;
#X connect 32 1 33 0;
#X connect 33 0 23 0;
#X connect 33 0 84 0;
#X connect 33 0 87 4;
#X connect 34 1 35 0;
#X connect 35 0 23 0;
#X connect 35 0 84 0;
#X connect 35 0 87 3;
#X connect 36 1 37 0;
#X connect 37 0 39 0;
#X connect 38 0 40 0;
#X connect 39 0 38 0;
#X connect 40 0 69 0;
#X connect 40 0 70 0;
#X connect 40 1 71 0;
#X connect 40 1 72 0;
#X connect 40 2 73 0;
#X connect 41 0 13 0;
#X connect 42 1 43 0;
#X connect 43 0 45 0;
#X connect 44 0 46 0;
#X connect 45 0 44 0;
#X connect 46 0 75 0;
#X connect 46 0 76 0;
#X connect 46 1 78 0;
#X connect 46 1 77 0;
#X connect 46 2 79 0;
#X connect 46 2 80 0;
#X connect 47 0 65 0;
#X connect 47 0 66 0;
#X connect 47 1 67 0;
#X connect 47 1 68 0;
#X connect 48 0 23 0;
#X connect 49 0 6 0;
#X connect 50 0 23 0;
#X connect 51 0 14 0;
#X connect 52 0 23 0;
#X connect 53 0 16 0;
#X connect 54 0 23 0;
#X connect 55 0 20 0;
#X connect 56 0 23 0;
#X connect 57 0 23 0;
#X connect 58 0 20 0;
#X connect 59 0 23 0;
#X connect 60 0 30 0;
#X connect 61 0 23 0;
#X connect 62 0 30 0;
#X connect 63 0 23 0;
#X connect 64 0 30 0;
#X connect 65 0 23 0;
#X connect 66 0 36 0;
#X connect 67 0 23 0;
#X connect 68 0 42 0;
#X connect 69 0 23 0;
#X connect 70 0 34 0;
#X connect 71 0 23 0;
#X connect 72 0 34 0;
#X connect 73 0 23 0;
#X connect 74 0 34 0;
#X connect 75 0 23 0;
#X connect 76 0 32 0;
#X connect 77 0 23 0;
#X connect 78 0 32 0;
#X connect 79 0 23 0;
#X connect 80 0 32 0;
#X connect 81 0 20 0;
#X connect 82 0 87 0;
#X connect 83 0 87 5;
#X connect 84 0 85 0;
#X connect 85 0 82 0;
#X connect 86 0 83 0;
#X restore 447 312 pd why_quest;
#N canvas 28 23 1252 748 how_quest 0;
#X obj 65 7 inlet;
#X floatatom 62 60 5 0 0 0 - - -;
#X obj 213 35 inlet;
#X text 175 11 interrogation word incoming (set);
#X obj 63 30 random 2;
#X obj 64 90 sel 0 1;
#X obj 74 176 shell;
#X obj 115 197 bng 25 250 50 0 empty empty empty 17 7 0 10 -204786
-1 -1;
#X obj 870 121 shell;
#X obj 911 142 bng 25 250 50 0 empty empty empty 17 7 0 10 -204786
-1 -1;
#X floatatom 81 268 5 0 0 0 - - -;
#X floatatom 893 215 5 0 0 0 - - -;
#X obj 73 400 shell;
#X obj 114 421 bng 25 250 50 0 empty empty empty 17 7 0 10 -204786
-1 -1;
#X obj 530 394 shell;
#X obj 571 415 bng 25 250 50 0 empty empty empty 17 7 0 10 -204786
-1 -1;
#X obj 80 239 random 2;
#X obj 73 298 sel 0 1;
#X obj 164 633 shell;
#X obj 205 654 bng 25 250 50 0 empty empty empty 17 7 0 10 -204786
-1 -1;
#X floatatom 80 476 5 0 0 0 - - -;
#X msg 672 654 text how do you know what to say?;
#X obj 80 452 random 3;
#X obj 72 497 sel 0 1 2;
#X obj 670 685 outlet;
#X floatatom 549 474 5 0 0 0 - - -;
#X obj 549 450 random 3;
#X obj 541 495 sel 0 1 2;
#X obj 547 624 shell;
#X obj 588 645 bng 25 250 50 0 empty empty empty 17 7 0 10 -204786
-1 -1;
#X obj 1127 609 shell;
#X obj 1168 630 bng 25 250 50 0 empty empty empty 17 7 0 10 -204786
-1 -1;
#X obj 914 587 shell;
#X obj 955 608 bng 25 250 50 0 empty empty empty 17 7 0 10 -204786
-1 -1;
#X obj 765 335 shell;
#X obj 815 333 bng 25 250 50 0 empty empty empty 17 7 0 10 -204786
-1 -1;
#X floatatom 832 394 5 0 0 0 - - -;
#X obj 832 370 random 3;
#X obj 824 415 sel 0 1 2;
#X obj 892 186 random 2;
#X obj 1026 307 shell;
#X obj 1079 293 bng 25 250 50 0 empty empty empty 17 7 0 10 -204786
-1 -1;
#X floatatom 1096 354 5 0 0 0 - - -;
#X obj 1096 330 random 3;
#X obj 1088 375 sel 0 1 2;
#X obj 887 244 sel 0 1;
#X msg 64 122 add2 do you;
#X msg 76 150 say do you;
#X msg 55 341 add2 make;
#X msg 55 364 say make;
#X msg 31 524 add2 people laugh?;
#X msg 36 548 say people laugh?;
#X msg 137 577 add2 chicken soup?;
#X msg 139 601 say chicken soup?;
#X msg 243 517 add2 people care?;
#X msg 243 547 say people care?;
#X msg 518 334 add2 know;
#X msg 514 361 say know;
#X msg 360 574 add2 it's true?;
#X msg 364 599 say it's true?;
#X msg 503 525 add2 what to say?;
#X msg 503 550 say what to say?;
#X msg 614 573 add2 the answer?;
#X msg 618 596 say the answer?;
#X msg 857 38 add2 can i;
#X msg 771 275 add2 be;
#X msg 770 302 say be;
#X msg 680 445 add2 a better computer?;
#X msg 681 470 say a better computer?;
#X msg 760 496 add2 more like you?;
#X msg 758 524 say more like you?;
#X msg 871 448 add2 happy all the time?;
#X msg 869 471 say happy all the time?;
#X msg 992 253 add2 have;
#X msg 993 283 say have;
#X msg 939 394 add2 a lot of friends?;
#X msg 934 420 say a lot of friends?;
#X msg 1003 491 add2 time to do everything?;
#X msg 1000 519 say time to do everything?;
#X msg 1093 418 add2 a lot of money?;
#X msg 1095 447 say a lot of money?;
#X msg 861 71 say can i;
#X obj 528 218 bng 20 250 50 0 empty empty show 5 7 0 14 -232576 -1
-1;
#X obj 659 217 bng 20 250 50 0 empty empty no_show 5 7 0 14 -261234
-1 -1;
#X obj 399 359 delay 50;
#X obj 432 397 bng 15 250 50 0 empty empty empty 17 7 0 10 -232576
-1 -1;
#X obj 665 184 r reset;
#N canvas 156 155 914 577 answers_how 0;
#X obj 24 191 inlet;
#X obj 66 380 gemhead;
#X msg 87 460 font vera.ttf;
#X obj 350 443 loadbang;
#X msg 66 351 1;
#X msg 97 351 0;
#X floatatom 115 503 5 0 0 0 - - -;
#X msg 181 460 25;
#X obj 242 375 gemhead;
#X obj 428 374 gemhead;
#X obj 638 369 gemhead;
#X floatatom 294 499 5 0 0 0 - - -;
#X floatatom 476 504 5 0 0 0 - - -;
#X floatatom 689 503 5 0 0 0 - - -;
#X msg 242 347 1;
#X msg 274 346 0;
#X msg 428 345 1;
#X msg 460 344 0;
#X msg 638 340 1;
#X msg 670 339 0;
#X obj 40 222 bng 20 250 50 0 empty empty show_answers 10 7 0 12 -203904
-1 -1;
#X obj 694 201 bng 25 250 50 0 empty empty no_show -8 -8 0 14 -261234
-1 -1;
#X obj 66 407 translate 1 -6.15 -3 0;
#X obj 242 403 translate 1 -2.13 -3 0;
#X obj 428 402 translate 1 2.35 -3 0;
#X obj 638 397 translate 1 6.46 -3 0;
#X obj 719 162 inlet;
#X obj 118 23 inlet;
#X obj 276 21 inlet;
#X obj 412 22 inlet;
#X obj 66 519 text2d _;
#X obj 242 515 text2d _;
#X obj 428 520 text2d _;
#X obj 638 519 text2d _;
#X obj 88 53 bng 15 250 50 0 empty empty empty 17 7 0 10 -262144 -1
-1;
#X obj 256 48 bng 15 250 50 0 empty empty empty 17 7 0 10 -262144 -1
-1;
#X obj 385 44 bng 15 250 50 0 empty empty empty 17 7 0 10 -262144 -1
-1;
#X obj 662 64 r red_choice;
#X obj 694 83 r yellow_choice;
#X obj 747 60 r blue_choice;
#X obj 754 104 r green_choice;
#X text 600 22 lorsqu'une réponse est donnée \, l'affichage des réponses
se met à «off»;
#X obj 516 23 inlet;
#X obj 489 45 bng 15 250 50 0 empty empty empty 17 7 0 10 -262144 -1
-1;
#N canvas 503 230 476 438 answers_how_4 0;
#X obj 31 27 inlet;
#X obj 111 374 outlet;
#X obj 207 374 outlet;
#X obj 298 372 outlet;
#X obj 394 372 outlet;
#X obj 77 114 bng 15 250 50 0 empty empty empty 17 7 0 10 -262144 -1
-1;
#X obj 146 93 bng 15 250 50 0 empty empty empty 17 7 0 10 -262144 -1
-1;
#X obj 197 90 bng 15 250 50 0 empty empty empty 17 7 0 10 -262144 -1
-1;
#X obj 263 82 bng 15 250 50 0 empty empty empty 17 7 0 10 -262144 -1
-1;
#X msg 128 169 text Beyonce;
#X msg 227 262 text Garou;
#X msg 291 175 text Dwight Schrute;
#X msg 334 249 text Angelina Jolie;
#X obj 53 158 delay 20;
#X obj 39 189 bng 15 250 50 0 empty empty empty 17 7 0 10 -203904 -1
-1;
#X obj 42 329 outlet;
#X connect 0 0 5 0;
#X connect 0 0 6 0;
#X connect 0 0 7 0;
#X connect 0 0 8 0;
#X connect 5 0 9 0;
#X connect 5 0 13 0;
#X connect 6 0 10 0;
#X connect 7 0 11 0;
#X connect 8 0 12 0;
#X connect 9 0 1 0;
#X connect 10 0 2 0;
#X connect 11 0 3 0;
#X connect 12 0 4 0;
#X connect 13 0 14 0;
#X connect 14 0 15 0;
#X restore 493 126 pd answers_how_4;
#N canvas 503 230 476 438 answers_how_3 0;
#X obj 31 27 inlet;
#X obj 111 374 outlet;
#X obj 207 374 outlet;
#X obj 298 372 outlet;
#X obj 394 372 outlet;
#X obj 77 114 bng 15 250 50 0 empty empty empty 17 7 0 10 -262144 -1
-1;
#X obj 146 93 bng 15 250 50 0 empty empty empty 17 7 0 10 -262144 -1
-1;
#X obj 197 90 bng 15 250 50 0 empty empty empty 17 7 0 10 -262144 -1
-1;
#X obj 263 82 bng 15 250 50 0 empty empty empty 17 7 0 10 -262144 -1
-1;
#X msg 128 169 text Beyonce;
#X msg 227 262 text Garou;
#X msg 291 175 text Dwight Schrute;
#X msg 334 249 text Angelina Jolie;
#X obj 53 158 delay 20;
#X obj 39 189 bng 15 250 50 0 empty empty empty 17 7 0 10 -203904 -1
-1;
#X obj 42 329 outlet;
#X connect 0 0 5 0;
#X connect 0 0 6 0;
#X connect 0 0 7 0;
#X connect 0 0 8 0;
#X connect 5 0 9 0;
#X connect 5 0 13 0;
#X connect 6 0 10 0;
#X connect 7 0 11 0;
#X connect 8 0 12 0;
#X connect 9 0 1 0;
#X connect 10 0 2 0;
#X connect 11 0 3 0;
#X connect 12 0 4 0;
#X connect 13 0 14 0;
#X connect 14 0 15 0;
#X restore 413 164 pd answers_how_3;
#N canvas 540 225 460 441 answers_how_2 0;
#X obj 192 20 inlet;
#X obj 99 381 outlet;
#X obj 195 381 outlet;
#X obj 286 379 outlet;
#X obj 382 379 outlet;
#X obj 89 99 bng 15 250 50 0 empty empty empty 17 7 0 10 -262144 -1
-1;
#X obj 136 83 bng 15 250 50 0 empty empty empty 17 7 0 10 -262144 -1
-1;
#X obj 187 61 bng 15 250 50 0 empty empty empty 17 7 0 10 -262144 -1
-1;
#X obj 253 72 bng 15 250 50 0 empty empty empty 17 7 0 10 -262144 -1
-1;
#X msg 148 224 text Alanis Morissette;
#X msg 80 270 text Will Smith;
#X msg 253 257 text Michelle Obama;
#X msg 333 202 text Donald Trump;
#X obj 44 139 delay 20;
#X obj 30 170 bng 15 250 50 0 empty empty empty 17 7 0 10 -203904 -1
-1;
#X obj 33 310 outlet;
#X connect 0 0 7 0;
#X connect 0 0 6 0;
#X connect 0 0 5 0;
#X connect 0 0 8 0;
#X connect 5 0 10 0;
#X connect 5 0 13 0;
#X connect 6 0 9 0;
#X connect 7 0 11 0;
#X connect 8 0 12 0;
#X connect 9 0 2 0;
#X connect 10 0 1 0;
#X connect 11 0 3 0;
#X connect 12 0 4 0;
#X connect 13 0 14 0;
#X connect 14 0 15 0;
#X restore 246 110 pd answers_how_2;
#N canvas 547 161 445 344 answers_how_1 0;
#X obj 195 26 inlet;
#X obj 89 293 outlet;
#X obj 185 293 outlet;
#X obj 276 291 outlet;
#X obj 372 291 outlet;
#X obj 110 94 bng 15 250 50 0 empty empty empty 17 7 0 10 -262144 -1
-1;
#X obj 157 102 bng 15 250 50 0 empty empty empty 17 7 0 10 -262144
-1 -1;
#X obj 199 73 bng 15 250 50 0 empty empty empty 17 7 0 10 -262144 -1
-1;
#X obj 250 51 bng 15 250 50 0 empty empty empty 17 7 0 10 -262144 -1
-1;
#X msg 34 217 text Bruce Lee;
#X msg 111 194 text Gandalf;
#X msg 204 248 text Justin Trudeau;
#X msg 260 180 text Hermione Granger;
#X obj 34 129 delay 20;
#X obj 20 160 bng 15 250 50 0 empty empty empty 17 7 0 10 -203904 -1
-1;
#X obj 23 300 outlet;
#X connect 0 0 5 0;
#X connect 0 0 6 0;
#X connect 0 0 7 0;
#X connect 0 0 8 0;
#X connect 5 0 9 0;
#X connect 5 0 13 0;
#X connect 6 0 10 0;
#X connect 7 0 11 0;
#X connect 8 0 12 0;
#X connect 9 0 1 0;
#X connect 10 0 2 0;
#X connect 11 0 3 0;
#X connect 12 0 4 0;
#X connect 13 0 14 0;
#X connect 14 0 15 0;
#X restore 101 115 pd answers_how_1;
#X connect 0 0 20 0;
#X connect 1 0 22 0;
#X connect 2 0 30 0;
#X connect 2 0 31 0;
#X connect 2 0 32 0;
#X connect 2 0 33 0;
#X connect 3 0 2 0;
#X connect 3 0 7 0;
#X connect 3 0 5 0;
#X connect 3 0 15 0;
#X connect 3 0 17 0;
#X connect 3 0 19 0;
#X connect 4 0 1 0;
#X connect 5 0 1 0;
#X connect 6 0 30 1;
#X connect 7 0 6 0;
#X connect 7 0 11 0;
#X connect 7 0 12 0;
#X connect 7 0 13 0;
#X connect 8 0 23 0;
#X connect 9 0 24 0;
#X connect 10 0 25 0;
#X connect 11 0 31 1;
#X connect 12 0 32 1;
#X connect 13 0 33 1;
#X connect 14 0 8 0;
#X connect 15 0 8 0;
#X connect 16 0 9 0;
#X connect 17 0 9 0;
#X connect 18 0 10 0;
#X connect 19 0 10 0;
#X connect 20 0 4 0;
#X connect 20 0 18 0;
#X connect 20 0 16 0;
#X connect 20 0 14 0;
#X connect 21 0 19 0;
#X connect 21 0 17 0;
#X connect 21 0 15 0;
#X connect 21 0 5 0;
#X connect 22 0 30 0;
#X connect 23 0 31 0;
#X connect 24 0 32 0;
#X connect 25 0 33 0;
#X connect 26 0 21 0;
#X connect 27 0 34 0;
#X connect 28 0 35 0;
#X connect 29 0 36 0;
#X connect 34 0 47 0;
#X connect 35 0 46 0;
#X connect 36 0 45 0;
#X connect 37 0 21 0;
#X connect 38 0 21 0;
#X connect 39 0 21 0;
#X connect 40 0 21 0;
#X connect 42 0 43 0;
#X connect 43 0 44 0;
#X connect 44 0 20 0;
#X connect 44 1 30 0;
#X connect 44 2 31 0;
#X connect 44 3 32 0;
#X connect 44 4 33 0;
#X connect 45 0 20 0;
#X connect 45 1 30 0;
#X connect 45 2 31 0;
#X connect 45 3 32 0;
#X connect 45 4 33 0;
#X connect 46 0 20 0;
#X connect 46 1 30 0;
#X connect 46 2 31 0;
#X connect 46 3 32 0;
#X connect 46 4 33 0;
#X connect 47 0 20 0;
#X connect 47 1 30 0;
#X connect 47 2 31 0;
#X connect 47 3 32 0;
#X connect 47 4 33 0;
#X restore 551 261 pd answers_how;
#X connect 0 0 4 0;
#X connect 1 0 5 0;
#X connect 2 0 21 0;
#X connect 4 0 1 0;
#X connect 5 0 46 0;
#X connect 5 0 47 0;
#X connect 5 1 64 0;
#X connect 5 1 81 0;
#X connect 6 1 7 0;
#X connect 7 0 16 0;
#X connect 8 1 9 0;
#X connect 9 0 39 0;
#X connect 10 0 17 0;
#X connect 11 0 45 0;
#X connect 12 1 13 0;
#X connect 13 0 22 0;
#X connect 14 1 15 0;
#X connect 15 0 26 0;
#X connect 16 0 10 0;
#X connect 17 0 48 0;
#X connect 17 0 49 0;
#X connect 17 1 56 0;
#X connect 17 1 57 0;
#X connect 18 1 19 0;
#X connect 19 0 21 0;
#X connect 19 0 84 0;
#X connect 19 0 87 1;
#X connect 20 0 23 0;
#X connect 21 0 24 0;
#X connect 22 0 20 0;
#X connect 23 0 50 0;
#X connect 23 0 51 0;
#X connect 23 1 52 0;
#X connect 23 1 53 0;
#X connect 23 2 54 0;
#X connect 23 2 55 0;
#X connect 25 0 27 0;
#X connect 26 0 25 0;
#X connect 27 0 58 0;
#X connect 27 0 59 0;
#X connect 27 1 60 0;
#X connect 27 1 61 0;
#X connect 27 2 62 0;
#X connect 27 2 63 0;
#X connect 28 1 29 0;
#X connect 29 0 21 0;
#X connect 29 0 84 0;
#X connect 29 0 87 2;
#X connect 30 1 31 0;
#X connect 31 0 21 0;
#X connect 31 0 84 0;
#X connect 31 0 87 4;
#X connect 32 1 33 0;
#X connect 33 0 21 0;
#X connect 33 0 84 0;
#X connect 33 0 87 3;
#X connect 34 1 35 0;
#X connect 35 0 37 0;
#X connect 36 0 38 0;
#X connect 37 0 36 0;
#X connect 38 0 67 0;
#X connect 38 0 68 0;
#X connect 38 1 69 0;
#X connect 38 1 70 0;
#X connect 38 2 71 0;
#X connect 38 2 72 0;
#X connect 39 0 11 0;
#X connect 40 1 41 0;
#X connect 41 0 43 0;
#X connect 42 0 44 0;
#X connect 43 0 42 0;
#X connect 44 0 75 0;
#X connect 44 0 76 0;
#X connect 44 1 78 0;
#X connect 44 1 77 0;
#X connect 44 2 79 0;
#X connect 44 2 80 0;
#X connect 45 0 65 0;
#X connect 45 0 66 0;
#X connect 45 1 73 0;
#X connect 45 1 74 0;
#X connect 46 0 21 0;
#X connect 47 0 6 0;
#X connect 48 0 21 0;
#X connect 49 0 12 0;
#X connect 50 0 21 0;
#X connect 51 0 18 0;
#X connect 52 0 21 0;
#X connect 53 0 18 0;
#X connect 54 0 21 0;
#X connect 55 0 18 0;
#X connect 56 0 21 0;
#X connect 57 0 14 0;
#X connect 58 0 21 0;
#X connect 59 0 28 0;
#X connect 60 0 21 0;
#X connect 61 0 28 0;
#X connect 62 0 21 0;
#X connect 63 0 28 0;
#X connect 64 0 21 0;
#X connect 65 0 21 0;
#X connect 66 0 34 0;
#X connect 67 0 21 0;
#X connect 68 0 32 0;
#X connect 69 0 21 0;
#X connect 70 0 32 0;
#X connect 71 0 21 0;
#X connect 72 0 32 0;
#X connect 73 0 21 0;
#X connect 74 0 40 0;
#X connect 75 0 21 0;
#X connect 76 0 30 0;
#X connect 77 0 21 0;
#X connect 78 0 30 0;
#X connect 79 0 21 0;
#X connect 80 0 30 0;
#X connect 81 0 8 0;
#X connect 82 0 87 0;
#X connect 83 0 87 5;
#X connect 84 0 85 0;
#X connect 85 0 82 0;
#X connect 86 0 83 0;
#X restore 586 316 pd how_quest;
#N canvas 27 23 1224 738 where_quest 0;
#X obj 75 17 inlet;
#X floatatom 72 70 5 0 0 0 - - -;
#X obj 223 45 inlet;
#X text 185 21 interrogation word incoming (set);
#X obj 73 40 random 2;
#X obj 74 100 sel 0 1;
#X obj 84 186 shell;
#X obj 125 207 bng 25 250 50 0 empty empty empty 17 7 0 10 -204786
-1 -1;
#X obj 880 131 shell;
#X obj 921 152 bng 25 250 50 0 empty empty empty 17 7 0 10 -204786
-1 -1;
#X floatatom 91 278 5 0 0 0 - - -;
#X floatatom 903 225 5 0 0 0 - - -;
#X obj 83 410 shell;
#X obj 124 431 bng 25 250 50 0 empty empty empty 17 7 0 10 -204786
-1 -1;
#X obj 540 404 shell;
#X obj 581 425 bng 25 250 50 0 empty empty empty 17 7 0 10 -204786
-1 -1;
#X obj 90 249 random 2;
#X obj 83 308 sel 0 1;
#X obj 174 643 shell;
#X obj 215 664 bng 25 250 50 0 empty empty empty 17 7 0 10 -204786
-1 -1;
#X floatatom 90 486 5 0 0 0 - - -;
#X msg 682 664 text where do you like to hide?;
#X obj 90 462 random 3;
#X obj 82 507 sel 0 1 2;
#X obj 680 695 outlet;
#X floatatom 559 484 5 0 0 0 - - -;
#X obj 559 460 random 3;
#X obj 551 505 sel 0 1 2;
#X obj 557 634 shell;
#X obj 598 655 bng 25 250 50 0 empty empty empty 17 7 0 10 -204786
-1 -1;
#X obj 1137 619 shell;
#X obj 1178 640 bng 25 250 50 0 empty empty empty 17 7 0 10 -204786
-1 -1;
#X obj 924 597 shell;
#X obj 965 618 bng 25 250 50 0 empty empty empty 17 7 0 10 -204786
-1 -1;
#X obj 775 345 shell;
#X obj 825 343 bng 25 250 50 0 empty empty empty 17 7 0 10 -204786
-1 -1;
#X floatatom 842 404 5 0 0 0 - - -;
#X obj 842 380 random 3;
#X obj 834 425 sel 0 1 2;
#X obj 902 196 random 2;
#X obj 1036 317 shell;
#X obj 1089 303 bng 25 250 50 0 empty empty empty 17 7 0 10 -204786
-1 -1;
#X floatatom 1106 364 5 0 0 0 - - -;
#X obj 1106 340 random 3;
#X obj 1098 385 sel 0 1 2;
#X obj 897 254 sel 0 1;
#X msg 74 132 add2 do you;
#X msg 86 160 say do you;
#X msg 867 48 add2 can i;
#X msg 65 351 add2 like;
#X msg 65 374 say like;
#X msg 41 534 add2 to go?;
#X msg 46 558 say to go?;
#X msg 147 587 add2 to hide?;
#X msg 149 611 say to hide?;
#X msg 253 527 add2 to live?;
#X msg 253 557 say to live?;
#X msg 781 285 add2 find;
#X msg 780 312 say find;
#X msg 528 344 add2 hate;
#X msg 524 371 say hate;
#X msg 370 584 add2 to spend time?;
#X msg 374 609 say to spend time?;
#X msg 513 535 add2 to be lost?;
#X msg 513 560 say to be lost?;
#X msg 624 583 add2 the temperature?;
#X msg 628 606 say the temperature?;
#X msg 1002 263 add2 be;
#X msg 1003 293 say be;
#X msg 690 455 add2 love?;
#X msg 691 480 say love?;
#X msg 770 506 add2 good music?;
#X msg 768 534 say good music?;
#X msg 881 458 add2 the secret of happiness?;
#X msg 879 481 say the secret of happiness?;
#X msg 949 404 add2 alone?;
#X msg 944 430 say alone?;
#X msg 871 81 say can i;
#X msg 1013 501 add2 useful?;
#X msg 1010 529 say useful?;
#X msg 1069 418 add2 the best computer?;
#X msg 1071 447 say the best computer?;
#X obj 538 228 bng 20 250 50 0 empty empty show 5 7 0 14 -232576 -1
-1;
#X obj 669 227 bng 20 250 50 0 empty empty no_show 5 7 0 14 -261234
-1 -1;
#X obj 409 369 delay 50;
#X obj 442 407 bng 15 250 50 0 empty empty empty 17 7 0 10 -232576
-1 -1;
#X obj 675 194 r reset;
#N canvas 156 155 914 577 answers_where 0;
#X obj 24 191 inlet;
#X obj 66 380 gemhead;
#X msg 87 460 font vera.ttf;
#X obj 350 443 loadbang;
#X msg 66 351 1;
#X msg 97 351 0;
#X floatatom 115 503 5 0 0 0 - - -;
#X msg 181 460 25;
#X obj 242 375 gemhead;
#X obj 428 374 gemhead;
#X obj 638 369 gemhead;
#X floatatom 294 499 5 0 0 0 - - -;
#X floatatom 476 504 5 0 0 0 - - -;
#X floatatom 689 503 5 0 0 0 - - -;
#X msg 242 347 1;
#X msg 274 346 0;
#X msg 428 345 1;
#X msg 460 344 0;
#X msg 638 340 1;
#X msg 670 339 0;
#X obj 40 222 bng 20 250 50 0 empty empty show_answers 10 7 0 12 -203904
-1 -1;
#X obj 694 201 bng 25 250 50 0 empty empty no_show -8 -8 0 14 -261234
-1 -1;
#X obj 66 407 translate 1 -6.15 -3 0;
#X obj 242 403 translate 1 -2.13 -3 0;
#X obj 428 402 translate 1 2.35 -3 0;
#X obj 638 397 translate 1 6.46 -3 0;
#X obj 719 162 inlet;
#X obj 118 23 inlet;
#X obj 276 21 inlet;
#X obj 412 22 inlet;
#X obj 66 519 text2d _;
#X obj 242 515 text2d _;
#X obj 428 520 text2d _;
#X obj 638 519 text2d _;
#X obj 88 53 bng 15 250 50 0 empty empty empty 17 7 0 10 -262144 -1
-1;
#X obj 256 48 bng 15 250 50 0 empty empty empty 17 7 0 10 -262144 -1
-1;
#X obj 385 44 bng 15 250 50 0 empty empty empty 17 7 0 10 -262144 -1
-1;
#X obj 662 64 r red_choice;
#X obj 694 83 r yellow_choice;
#X obj 747 60 r blue_choice;
#X obj 754 104 r green_choice;
#X text 600 22 lorsqu'une réponse est donnée \, l'affichage des réponses
se met à «off»;
#X obj 516 23 inlet;
#X obj 489 45 bng 15 250 50 0 empty empty empty 17 7 0 10 -262144 -1
-1;
#N canvas 547 161 445 344 answers_where_1 0;
#X obj 195 26 inlet;
#X obj 89 293 outlet;
#X obj 185 293 outlet;
#X obj 276 291 outlet;
#X obj 372 291 outlet;
#X obj 110 94 bng 15 250 50 0 empty empty empty 17 7 0 10 -262144 -1
-1;
#X obj 157 102 bng 15 250 50 0 empty empty empty 17 7 0 10 -262144
-1 -1;
#X obj 199 73 bng 15 250 50 0 empty empty empty 17 7 0 10 -262144 -1
-1;
#X obj 250 51 bng 15 250 50 0 empty empty empty 17 7 0 10 -262144 -1
-1;
#X msg 34 217 text Bruce Lee;
#X msg 111 194 text Gandalf;
#X msg 204 248 text Justin Trudeau;
#X msg 260 180 text Hermione Granger;
#X obj 34 129 delay 20;
#X obj 20 160 bng 15 250 50 0 empty empty empty 17 7 0 10 -203904 -1
-1;
#X obj 23 300 outlet;
#X connect 0 0 5 0;
#X connect 0 0 6 0;
#X connect 0 0 7 0;
#X connect 0 0 8 0;
#X connect 5 0 9 0;
#X connect 5 0 13 0;
#X connect 6 0 10 0;
#X connect 7 0 11 0;
#X connect 8 0 12 0;
#X connect 9 0 1 0;
#X connect 10 0 2 0;
#X connect 11 0 3 0;
#X connect 12 0 4 0;
#X connect 13 0 14 0;
#X connect 14 0 15 0;
#X restore 101 115 pd answers_where_1;
#N canvas 540 225 460 441 answers_where_2 0;
#X obj 192 20 inlet;
#X obj 99 381 outlet;
#X obj 195 381 outlet;
#X obj 286 379 outlet;
#X obj 382 379 outlet;
#X obj 89 99 bng 15 250 50 0 empty empty empty 17 7 0 10 -262144 -1
-1;
#X obj 136 83 bng 15 250 50 0 empty empty empty 17 7 0 10 -262144 -1
-1;
#X obj 187 61 bng 15 250 50 0 empty empty empty 17 7 0 10 -262144 -1
-1;
#X obj 253 72 bng 15 250 50 0 empty empty empty 17 7 0 10 -262144 -1
-1;
#X msg 148 224 text Alanis Morissette;
#X msg 80 270 text Will Smith;
#X msg 253 257 text Michelle Obama;
#X msg 333 202 text Donald Trump;
#X obj 44 139 delay 20;
#X obj 30 170 bng 15 250 50 0 empty empty empty 17 7 0 10 -203904 -1
-1;
#X obj 33 310 outlet;
#X connect 0 0 7 0;
#X connect 0 0 6 0;
#X connect 0 0 5 0;
#X connect 0 0 8 0;
#X connect 5 0 10 0;
#X connect 5 0 13 0;
#X connect 6 0 9 0;
#X connect 7 0 11 0;
#X connect 8 0 12 0;
#X connect 9 0 2 0;
#X connect 10 0 1 0;
#X connect 11 0 3 0;
#X connect 12 0 4 0;
#X connect 13 0 14 0;
#X connect 14 0 15 0;
#X restore 246 110 pd answers_where_2;
#N canvas 503 230 476 438 answers_where_3 0;
#X obj 31 27 inlet;
#X obj 111 374 outlet;
#X obj 207 374 outlet;
#X obj 298 372 outlet;
#X obj 394 372 outlet;
#X obj 77 114 bng 15 250 50 0 empty empty empty 17 7 0 10 -262144 -1
-1;
#X obj 146 93 bng 15 250 50 0 empty empty empty 17 7 0 10 -262144 -1
-1;
#X obj 197 90 bng 15 250 50 0 empty empty empty 17 7 0 10 -262144 -1
-1;
#X obj 263 82 bng 15 250 50 0 empty empty empty 17 7 0 10 -262144 -1
-1;
#X msg 128 169 text Beyonce;
#X msg 227 262 text Garou;
#X msg 291 175 text Dwight Schrute;
#X msg 334 249 text Angelina Jolie;
#X obj 53 158 delay 20;
#X obj 39 189 bng 15 250 50 0 empty empty empty 17 7 0 10 -203904 -1
-1;
#X obj 42 329 outlet;
#X connect 0 0 5 0;
#X connect 0 0 6 0;
#X connect 0 0 7 0;
#X connect 0 0 8 0;
#X connect 5 0 9 0;
#X connect 5 0 13 0;
#X connect 6 0 10 0;
#X connect 7 0 11 0;
#X connect 8 0 12 0;
#X connect 9 0 1 0;
#X connect 10 0 2 0;
#X connect 11 0 3 0;
#X connect 12 0 4 0;
#X connect 13 0 14 0;
#X connect 14 0 15 0;
#X restore 413 164 pd answers_where_3;
#N canvas 503 230 476 438 answers_where_4 0;
#X obj 31 27 inlet;
#X obj 111 374 outlet;
#X obj 207 374 outlet;
#X obj 298 372 outlet;
#X obj 394 372 outlet;
#X obj 77 114 bng 15 250 50 0 empty empty empty 17 7 0 10 -262144 -1
-1;
#X obj 146 93 bng 15 250 50 0 empty empty empty 17 7 0 10 -262144 -1
-1;
#X obj 197 90 bng 15 250 50 0 empty empty empty 17 7 0 10 -262144 -1
-1;
#X obj 263 82 bng 15 250 50 0 empty empty empty 17 7 0 10 -262144 -1
-1;
#X msg 128 169 text Beyonce;
#X msg 227 262 text Garou;
#X msg 291 175 text Dwight Schrute;
#X msg 334 249 text Angelina Jolie;
#X obj 53 158 delay 20;
#X obj 39 189 bng 15 250 50 0 empty empty empty 17 7 0 10 -203904 -1
-1;
#X obj 42 329 outlet;
#X connect 0 0 5 0;
#X connect 0 0 6 0;
#X connect 0 0 7 0;
#X connect 0 0 8 0;
#X connect 5 0 9 0;
#X connect 5 0 13 0;
#X connect 6 0 10 0;
#X connect 7 0 11 0;
#X connect 8 0 12 0;
#X connect 9 0 1 0;
#X connect 10 0 2 0;
#X connect 11 0 3 0;
#X connect 12 0 4 0;
#X connect 13 0 14 0;
#X connect 14 0 15 0;
#X restore 493 126 pd answers_where_4;
#X connect 0 0 20 0;
#X connect 1 0 22 0;
#X connect 2 0 30 0;
#X connect 2 0 31 0;
#X connect 2 0 32 0;
#X connect 2 0 33 0;
#X connect 3 0 2 0;
#X connect 3 0 7 0;
#X connect 3 0 5 0;
#X connect 3 0 15 0;
#X connect 3 0 17 0;
#X connect 3 0 19 0;
#X connect 4 0 1 0;
#X connect 5 0 1 0;
#X connect 6 0 30 1;
#X connect 7 0 6 0;
#X connect 7 0 11 0;
#X connect 7 0 12 0;
#X connect 7 0 13 0;
#X connect 8 0 23 0;
#X connect 9 0 24 0;
#X connect 10 0 25 0;
#X connect 11 0 31 1;
#X connect 12 0 32 1;
#X connect 13 0 33 1;
#X connect 14 0 8 0;
#X connect 15 0 8 0;
#X connect 16 0 9 0;
#X connect 17 0 9 0;
#X connect 18 0 10 0;
#X connect 19 0 10 0;
#X connect 20 0 4 0;
#X connect 20 0 18 0;
#X connect 20 0 16 0;
#X connect 20 0 14 0;
#X connect 21 0 19 0;
#X connect 21 0 17 0;
#X connect 21 0 15 0;
#X connect 21 0 5 0;
#X connect 22 0 30 0;
#X connect 23 0 31 0;
#X connect 24 0 32 0;
#X connect 25 0 33 0;
#X connect 26 0 21 0;
#X connect 27 0 34 0;
#X connect 28 0 35 0;
#X connect 29 0 36 0;
#X connect 34 0 44 0;
#X connect 35 0 45 0;
#X connect 36 0 46 0;
#X connect 37 0 21 0;
#X connect 38 0 21 0;
#X connect 39 0 21 0;
#X connect 40 0 21 0;
#X connect 42 0 43 0;
#X connect 43 0 47 0;
#X connect 44 0 20 0;
#X connect 44 1 30 0;
#X connect 44 2 31 0;
#X connect 44 3 32 0;
#X connect 44 4 33 0;
#X connect 45 0 20 0;
#X connect 45 1 30 0;
#X connect 45 2 31 0;
#X connect 45 3 32 0;
#X connect 45 4 33 0;
#X connect 46 0 20 0;
#X connect 46 1 30 0;
#X connect 46 2 31 0;
#X connect 46 3 32 0;
#X connect 46 4 33 0;
#X connect 47 0 20 0;
#X connect 47 1 30 0;
#X connect 47 2 31 0;
#X connect 47 3 32 0;
#X connect 47 4 33 0;
#X restore 561 271 pd answers_where;
#X connect 0 0 4 0;
#X connect 1 0 5 0;
#X connect 2 0 21 0;
#X connect 4 0 1 0;
#X connect 5 0 46 0;
#X connect 5 0 47 0;
#X connect 5 1 48 0;
#X connect 5 1 77 0;
#X connect 6 1 7 0;
#X connect 7 0 16 0;
#X connect 8 1 9 0;
#X connect 9 0 39 0;
#X connect 10 0 17 0;
#X connect 11 0 45 0;
#X connect 12 1 13 0;
#X connect 13 0 22 0;
#X connect 14 1 15 0;
#X connect 15 0 26 0;
#X connect 16 0 10 0;
#X connect 17 0 49 0;
#X connect 17 0 50 0;
#X connect 17 1 59 0;
#X connect 17 1 60 0;
#X connect 18 1 19 0;
#X connect 19 0 21 0;
#X connect 19 0 84 0;
#X connect 19 0 87 1;
#X connect 20 0 23 0;
#X connect 21 0 24 0;
#X connect 22 0 20 0;
#X connect 23 0 51 0;
#X connect 23 0 52 0;
#X connect 23 1 53 0;
#X connect 23 1 54 0;
#X connect 23 2 55 0;
#X connect 23 2 56 0;
#X connect 25 0 27 0;
#X connect 26 0 25 0;
#X connect 27 0 61 0;
#X connect 27 0 62 0;
#X connect 27 1 63 0;
#X connect 27 1 64 0;
#X connect 27 2 65 0;
#X connect 27 2 66 0;
#X connect 28 1 29 0;
#X connect 29 0 21 0;
#X connect 29 0 84 0;
#X connect 29 0 87 2;
#X connect 30 1 31 0;
#X connect 31 0 21 0;
#X connect 31 0 84 0;
#X connect 31 0 87 4;
#X connect 32 1 33 0;
#X connect 33 0 21 0;
#X connect 33 0 84 0;
#X connect 33 0 87 3;
#X connect 34 1 35 0;
#X connect 35 0 37 0;
#X connect 36 0 38 0;
#X connect 37 0 36 0;
#X connect 38 0 69 0;
#X connect 38 0 70 0;
#X connect 38 1 71 0;
#X connect 38 1 72 0;
#X connect 38 2 73 0;
#X connect 38 2 74 0;
#X connect 39 0 11 0;
#X connect 40 1 41 0;
#X connect 41 0 43 0;
#X connect 42 0 44 0;
#X connect 43 0 42 0;
#X connect 44 0 75 0;
#X connect 44 0 76 0;
#X connect 44 1 79 0;
#X connect 44 1 78 0;
#X connect 44 2 80 0;
#X connect 44 2 81 0;
#X connect 45 0 58 0;
#X connect 45 0 57 0;
#X connect 45 1 67 0;
#X connect 45 1 68 0;
#X connect 46 0 21 0;
#X connect 47 0 6 0;
#X connect 48 0 21 0;
#X connect 49 0 21 0;
#X connect 50 0 12 0;
#X connect 51 0 21 0;
#X connect 52 0 18 0;
#X connect 53 0 21 0;
#X connect 54 0 18 0;
#X connect 55 0 21 0;
#X connect 56 0 18 0;
#X connect 57 0 21 0;
#X connect 58 0 34 0;
#X connect 59 0 21 0;
#X connect 60 0 14 0;
#X connect 61 0 21 0;
#X connect 62 0 28 0;
#X connect 63 0 21 0;
#X connect 64 0 28 0;
#X connect 65 0 21 0;
#X connect 66 0 28 0;
#X connect 67 0 21 0;
#X connect 68 0 40 0;
#X connect 69 0 21 0;
#X connect 70 0 32 0;
#X connect 71 0 21 0;
#X connect 72 0 32 0;
#X connect 73 0 21 0;
#X connect 74 0 32 0;
#X connect 75 0 21 0;
#X connect 76 0 30 0;
#X connect 77 0 8 0;
#X connect 78 0 21 0;
#X connect 79 0 30 0;
#X connect 80 0 21 0;
#X connect 81 0 30 0;
#X connect 82 0 87 0;
#X connect 83 0 87 5;
#X connect 84 0 85 0;
#X connect 85 0 82 0;
#X connect 86 0 83 0;
#X restore 731 315 pd where_quest;
#X obj 57 41 delay 2000;
#X obj 33 100 random 5;
#X connect 0 0 10 0;
#X connect 1 0 13 0;
#X connect 2 0 37 0;
#X connect 3 0 15 0;
#X connect 4 0 17 0;
#X connect 5 0 9 0;
#X connect 6 1 7 0;
#X connect 7 0 30 0;
#X connect 8 0 19 0;
#X connect 9 0 22 0;
#X connect 9 0 21 0;
#X connect 9 1 23 0;
#X connect 9 1 0 0;
#X connect 9 2 24 0;
#X connect 9 2 1 0;
#X connect 9 3 25 0;
#X connect 9 3 3 0;
#X connect 9 4 26 0;
#X connect 9 4 4 0;
#X connect 9 5 27 0;
#X connect 9 5 8 0;
#X connect 10 1 11 0;
#X connect 11 0 31 0;
#X connect 12 0 36 0;
#X connect 13 1 14 0;
#X connect 14 0 32 0;
#X connect 15 1 16 0;
#X connect 16 0 33 0;
#X connect 17 1 18 0;
#X connect 18 0 34 0;
#X connect 19 1 20 0;
#X connect 20 0 35 0;
#X connect 21 0 6 0;
#X connect 22 0 30 1;
#X connect 23 0 31 1;
#X connect 24 0 32 1;
#X connect 25 0 33 1;
#X connect 26 0 34 1;
#X connect 27 0 35 1;
#X connect 30 0 28 0;
#X connect 31 0 28 0;
#X connect 32 0 28 0;
#X connect 33 0 28 0;
#X connect 34 0 28 0;
#X connect 35 0 28 0;
#X connect 36 0 2 0;
#X connect 37 0 5 0;
#X restore 251 278 pd questions_aléatoires;
#X text 101 225 say/ text/ font/ erase/ next;
#X obj 79 164 inlet;
#X text 79 154 reset;
#X obj 71 465 textoutline _;
#X obj 270 340 bng 15 250 50 0 empty empty empty 17 7 0 10 -232576
-1 -1;
#X text 124 162 red;
#X text 158 139 yellow;
#X text 213 164 blue;
#X text 248 143 green;
#X obj 365 14 inlet;
#X obj 371 42 counter 0 1;
#X floatatom 369 66 5 0 0 0 - - -;
#X obj 360 89 sel 0 1;
#X text 264 258 à développer...;
#X msg 211 448 14;
#X obj 207 503 r reset;
#X connect 1 0 7 0;
#X connect 2 0 0 0;
#X connect 3 0 28 1;
#X connect 4 0 28 0;
#X connect 5 0 4 0;
#X connect 5 0 21 0;
#X connect 6 0 0 0;
#X connect 7 0 11 0;
#X connect 8 0 7 1;
#X connect 9 0 7 2;
#X connect 10 0 7 3;
#X connect 11 0 28 0;
#X connect 12 0 14 0;
#X connect 13 0 0 0;
#X connect 14 0 15 0;
#X connect 14 1 28 0;
#X connect 14 2 3 0;
#X connect 14 3 21 0;
#X connect 16 0 15 0;
#X connect 16 1 28 0;
#X connect 16 2 3 0;
#X connect 16 3 21 0;
#X connect 16 4 24 0;
#X connect 17 0 16 0;
#X connect 18 0 16 1;
#X connect 19 0 16 2;
#X connect 20 0 16 3;
#X connect 21 0 28 0;
#X connect 24 0 28 0;
#X connect 24 0 29 0;
#X connect 26 0 14 1;
#X connect 29 0 39 0;
#X connect 34 0 35 0;
#X connect 35 0 36 0;
#X connect 36 0 37 0;
#X connect 37 0 2 0;
#X connect 37 1 13 0;
#X connect 39 0 28 1;
#X connect 40 0 21 0;
