#N canvas 138 23 1075 739 10;
#X floatatom 97 287 5 0 20000 0 - - -;
#X obj 97 306 sig~;
#X obj 84 506 *~;
#X obj 167 366 hsl 100 20 0 1 0 0 empty empty empty -2 -8 0 10 -203904
-1 -1 0 0;
#X floatatom 164 391 5 0 0 0 - - -;
#X obj 164 432 line~;
#X obj 113 506 *~;
#X obj 85 536 dac~;
#X msg 164 410 \$1 20;
#X obj 96 18 loadbang;
#X msg 97 262 60;
#X obj 317 508 *~;
#X obj 401 364 hsl 100 20 0 1 0 0 empty empty empty -2 -8 0 10 -203904
-1 -1 0 0;
#X floatatom 398 389 5 0 0 0 - - -;
#X obj 398 430 line~;
#X obj 346 508 *~;
#X obj 317 540 dac~;
#X msg 398 408 \$1 20;
#X obj 544 506 *~;
#X obj 615 365 hsl 100 20 0 1 0 0 empty empty empty -2 -8 0 10 -203904
-1 -1 0 0;
#X floatatom 612 390 5 0 0 0 - - -;
#X obj 612 431 line~;
#X obj 573 506 *~;
#X obj 544 538 dac~;
#X msg 612 409 \$1 20;
#X obj 776 510 *~;
#X obj 856 363 hsl 100 20 0 1 0 0 empty empty empty -2 -8 0 10 -203904
-1 -1 0 0;
#X floatatom 853 388 5 0 0 0 - - -;
#X obj 853 429 line~;
#X obj 805 510 *~;
#X obj 776 542 dac~;
#X msg 853 407 \$1 20;
#X obj 97 339 s_osc 1 sine;
#X obj 244 32 bng 30 250 50 0 empty empty reset -15 14 0 20 -261234
-1 -1;
#X obj 163 80 inlet;
#X obj 397 81 inlet;
#X obj 611 81 inlet;
#X obj 852 76 inlet;
#X obj 331 337 s_osc 2 sine;
#X obj 545 332 s_osc 3 sine;
#X obj 786 332 s_osc 4 sine;
#X floatatom 331 288 5 0 20000 0 - - -;
#X obj 331 307 sig~;
#X floatatom 545 283 5 0 20000 0 - - -;
#X obj 545 302 sig~;
#X floatatom 786 280 5 0 20000 0 - - -;
#X obj 786 299 sig~;
#X msg 331 261 240;
#X msg 786 253 480;
#X obj 208 300 s red_choice;
#X obj 24 628 r red_choice;
#X obj 433 299 s yellow_choice;
#X obj 78 604 r yellow_choice;
#X obj 670 295 s blue_choice;
#X obj 164 614 r blue_choice;
#X obj 895 306 s green_choice;
#X obj 276 621 r green_choice;
#X obj 28 27 inlet;
#X obj 170 52 bng 20 250 50 0 empty empty empty 17 7 0 10 -258113 -1
-1;
#X obj 404 56 bng 20 250 50 0 empty empty empty 17 7 0 10 -257985 -1
-1;
#X obj 615 52 bng 20 250 50 0 empty empty empty 17 7 0 10 -4160 -1
-1;
#X obj 857 48 bng 20 250 50 0 empty empty empty 17 7 0 10 -4034 -1
-1;
#X msg 128 84 0;
#X msg 579 81 0;
#X msg 822 78 0;
#X msg 367 81 0;
#X msg 545 255 360;
#X obj 199 266 delay 500;
#X obj 423 267 delay 500;
#X obj 649 265 delay 500;
#X obj 887 276 delay 500;
#X obj 163 105 counter;
#X floatatom 163 127 5 0 0 0 - - -;
#X obj 163 175 bng 15 250 50 0 empty empty empty 17 7 0 10 -262144
-1 -1;
#X obj 394 109 counter;
#X floatatom 394 131 5 0 0 0 - - -;
#X obj 394 179 bng 15 250 50 0 empty empty empty 17 7 0 10 -262144
-1 -1;
#X obj 604 112 counter;
#X floatatom 604 134 5 0 0 0 - - -;
#X obj 604 182 bng 15 250 50 0 empty empty empty 17 7 0 10 -262144
-1 -1;
#X obj 852 103 counter;
#X floatatom 852 125 5 0 0 0 - - -;
#X obj 852 173 bng 15 250 50 0 empty empty empty 17 7 0 10 -262144
-1 -1;
#X obj 982 682 e_reverb;
#X obj 988 648 e_chorus;
#X obj 163 149 sel 0 1;
#X obj 522 190 bng 20 250 50 0 empty empty empty 17 7 0 10 -262130
-1 -1;
#X text 515 214 vide;
#X obj 394 153 sel 0 1;
#X obj 604 156 sel 0 1;
#X obj 852 147 sel 0 1;
#X obj 459 688 counter;
#X text 423 667 counter global;
#X obj 247 672 bng 25 250 50 0 empty empty empty 17 7 0 10 -4032 -1
-1;
#X floatatom 460 710 5 0 0 0 - - -;
#X obj 987 542 catch~;
#X obj 989 579 throw~;
#X obj 77 398 spigot~;
#X obj 124 375 tgl 15 0 empty empty empty 17 7 0 10 -262144 -1 -1 0
1;
#X obj 312 394 spigot~;
#X obj 359 371 tgl 15 0 empty empty empty 17 7 0 10 -262144 -1 -1 0
1;
#X obj 536 396 spigot~;
#X obj 583 373 tgl 15 0 empty empty empty 17 7 0 10 -262144 -1 -1 0
1;
#X obj 760 393 spigot~;
#X obj 807 370 tgl 15 0 empty empty empty 17 7 0 10 -262144 -1 -1 0
1;
#N canvas 451 182 731 517 red_traitements 0;
#X obj 53 96 e_tremolo;
#X msg 156 112 dry 0;
#X obj 53 57 inlet~;
#X obj 41 185 outlet~;
#X obj 356 28 loadbang;
#X obj 108 185 outlet~;
#X text 122 20 tremolo;
#X obj 245 256 c_adsr;
#X msg 130 85 freq 0.02;
#X connect 0 0 3 0;
#X connect 0 0 5 0;
#X connect 1 0 0 1;
#X connect 2 0 0 0;
#X connect 4 0 8 0;
#X connect 4 0 1 0;
#X connect 8 0 0 1;
#X restore 134 457 pd red_traitements;
#N canvas 433 100 472 540 yellow_traitements 0;
#X obj 52 95 e_tremolo;
#X msg 155 111 dry 0;
#X obj 42 54 inlet~;
#X obj 43 476 outlet~;
#X obj 360 29 loadbang;
#X obj 126 478 outlet~;
#X msg 129 84 freq 4.2;
#X text 27 17 tremolo;
#N canvas 535 28 625 552 yellow_delai 0;
#X obj 25 32 inlet~;
#X obj 31 515 outlet~;
#X obj 84 525 outlet~;
#X obj 46 293 e_fbdelay delai2 2000;
#X msg 184 231 feedback \$1;
#X obj 184 177 / 100;
#X obj 184 71 vsl 15 100 0 100 0 0 empty empty feedback 0 -9 1 10 -262144
-1 -1 8712 0;
#X obj 431 75 vsl 15 100 0 2000 0 0 empty empty delay_time(ms) 0 -9
1 10 -262144 -1 -1 8781 0;
#X msg 431 231 delay \$1;
#X floatatom 438 184 8 0 0 0 - - -;
#X floatatom 201 201 5 0 0 0 - - -;
#X obj 507 47 vsl 15 128 0 127 0 0 empty empty delay_frequency 0 -9
1 10 -262144 -1 -1 8000 0;
#X msg 507 231 delayfreq \$1;
#X obj 507 181 mtof;
#X floatatom 545 184 5 0 0 1 pitch - -;
#X obj 271 39 vsl 15 128 0 127 0 0 empty empty lowpass_cutoff_fr. 0
-9 1 10 -262144 -1 -1 12000 0;
#X obj 271 173 mtof;
#X floatatom 285 201 8 0 0 0 - - -;
#X msg 271 231 lpfreq \$1;
#X floatatom 523 211 8 0 0 1 freq - -;
#X msg 352 231 input \$1;
#X obj 352 177 / 100;
#X obj 352 71 vsl 15 100 0 100 0 0 empty empty inputlevel 0 -9 1 10
-262144 -1 -1 9504 0;
#X floatatom 369 201 5 0 0 0 - - -;
#X obj 105 236 sig~ 0;
#X obj 105 130 vsl 15 100 0 2000 0 0 empty empty delay_time(ms) -10
-9 1 10 -262144 -1 -1 0 0;
#X obj 237 308 hsl 50 15 0 1 0 0 empty empty empty -2 -8 0 10 -262144
-1 -1 0 0;
#X floatatom 234 326 5 0 0 0 - - -;
#X msg 234 343 dry \$1;
#X obj 526 328 loadbang;
#X msg 335 360 0;
#X msg 251 9 120;
#X msg 353 31 96;
#X msg 426 38 1650;
#X msg 500 14 80;
#X msg 182 35 88;
#X obj 476 379 tgl 15 0 empty empty empty 17 7 0 10 -262144 -1 -1 0
1;
#X obj 317 411 random 1800;
#X obj 316 433 + 20;
#X obj 427 422 metro 1500;
#X obj 104 29 inlet;
#X msg 452 349 0;
#X obj 534 369 r yellow_6;
#N canvas 375 122 677 485 yellow_pitch 0;
#X obj 53 28 inlet~;
#X obj 58 408 outlet~;
#X obj 163 409 outlet~;
#X obj 91 209 e_pitchshift;
#X msg 206 142 pitch \$1;
#X floatatom 206 121 5 0 0 0 - - -;
#X msg 224 94 7;
#X obj 258 35 loadbang;
#X obj 449 60 r yellow_9;
#X obj 310 358 line 0 3500;
#X floatatom 337 334 5 0 0 0 - - -;
#X floatatom 383 335 5 0 0 0 - - -;
#X floatatom 305 384 5 0 0 0 - - -;
#X obj 516 111 tgl 15 0 empty empty empty 17 7 0 10 -262144 -1 -1 0
1;
#X obj 509 139 metro 3500;
#X floatatom 569 114 5 0 0 0 - - -;
#X floatatom 504 198 5 0 0 0 - - -;
#X obj 504 166 random 4;
#X obj 506 232 sel 0 1 2 3;
#X msg 456 323 12 1500;
#X msg 418 293 5 3000;
#X msg 304 254 7 3500;
#X msg 357 281 15 1000;
#X obj 544 60 inlet;
#X msg 529 87 0;
#X text 550 35 reset;
#X obj 375 84 bng 15 250 50 0 empty empty empty 17 7 0 10 -262144 -1
-1;
#X obj 372 106 delay 3600;
#X connect 0 0 3 0;
#X connect 3 0 1 0;
#X connect 3 0 2 0;
#X connect 4 0 3 1;
#X connect 5 0 4 0;
#X connect 6 0 5 0;
#X connect 7 0 6 0;
#X connect 8 0 13 0;
#X connect 9 0 12 0;
#X connect 10 0 9 1;
#X connect 11 0 9 2;
#X connect 12 0 5 0;
#X connect 13 0 14 0;
#X connect 14 0 17 0;
#X connect 15 0 14 1;
#X connect 16 0 18 0;
#X connect 17 0 16 0;
#X connect 18 0 21 0;
#X connect 18 1 22 0;
#X connect 18 2 20 0;
#X connect 18 3 19 0;
#X connect 19 0 9 0;
#X connect 20 0 9 0;
#X connect 21 0 9 0;
#X connect 22 0 9 0;
#X connect 23 0 24 0;
#X connect 23 0 26 0;
#X connect 24 0 13 0;
#X connect 26 0 27 0;
#X connect 27 0 6 0;
#X restore 155 487 pd yellow_pitch;
#X obj 108 447 spigot~;
#X obj 173 419 tgl 15 0 empty empty empty 17 7 0 10 -262144 -1 -1 0
1;
#X obj 153 388 r yellow_8;
#X text 103 9 reset;
#X connect 0 0 3 0;
#X connect 3 0 1 0;
#X connect 3 0 2 0;
#X connect 3 0 44 0;
#X connect 4 0 3 2;
#X connect 5 0 4 0;
#X connect 5 0 10 0;
#X connect 6 0 5 0;
#X connect 7 0 8 0;
#X connect 7 0 9 0;
#X connect 8 0 3 2;
#X connect 11 0 13 0;
#X connect 11 0 14 0;
#X connect 12 0 3 2;
#X connect 13 0 12 0;
#X connect 13 0 19 0;
#X connect 15 0 16 0;
#X connect 16 0 18 0;
#X connect 16 0 17 0;
#X connect 18 0 3 2;
#X connect 20 0 3 2;
#X connect 21 0 23 0;
#X connect 21 0 20 0;
#X connect 22 0 21 0;
#X connect 24 0 3 1;
#X connect 25 0 24 0;
#X connect 26 0 27 0;
#X connect 27 0 28 0;
#X connect 28 0 3 2;
#X connect 29 0 30 0;
#X connect 29 0 35 0;
#X connect 29 0 31 0;
#X connect 29 0 32 0;
#X connect 29 0 33 0;
#X connect 29 0 34 0;
#X connect 30 0 26 0;
#X connect 31 0 15 0;
#X connect 32 0 22 0;
#X connect 33 0 7 0;
#X connect 34 0 11 0;
#X connect 35 0 6 0;
#X connect 36 0 39 0;
#X connect 37 0 38 0;
#X connect 38 0 7 0;
#X connect 39 0 37 0;
#X connect 40 0 41 0;
#X connect 40 0 43 1;
#X connect 41 0 36 0;
#X connect 41 0 45 0;
#X connect 42 0 36 0;
#X connect 43 0 1 0;
#X connect 43 1 2 0;
#X connect 44 0 1 0;
#X connect 44 0 2 0;
#X connect 44 1 43 0;
#X connect 45 0 44 1;
#X connect 46 0 45 0;
#X restore 131 224 pd yellow_delai;
#X obj 53 173 spigot~;
#X obj 102 142 tgl 15 0 empty empty empty 17 7 0 10 -262144 -1 -1 0
1;
#X obj 122 33 inlet;
#X obj 218 22 inlet;
#X msg 218 68 0;
#X text 214 6 reset;
#X connect 0 0 9 0;
#X connect 1 0 0 1;
#X connect 2 0 0 0;
#X connect 4 0 6 0;
#X connect 4 0 1 0;
#X connect 6 0 0 1;
#X connect 8 0 3 0;
#X connect 8 1 5 0;
#X connect 9 0 3 0;
#X connect 9 0 5 0;
#X connect 9 1 8 0;
#X connect 10 0 9 1;
#X connect 11 0 10 0;
#X connect 12 0 13 0;
#X connect 13 0 10 0;
#X connect 13 0 8 1;
#X restore 364 454 pd yellow_traitements;
#N canvas 367 87 755 534 blue_traitements 0;
#X obj 55 100 e_tremolo;
#X msg 158 116 dry 0;
#X obj 61 60 inlet~;
#X obj 43 189 outlet~;
#X obj 364 31 loadbang;
#X obj 119 191 outlet~;
#X msg 132 89 freq 1.6;
#X text 142 40 tremolo;
#X connect 0 0 3 0;
#X connect 0 0 5 0;
#X connect 1 0 0 1;
#X connect 2 0 0 0;
#X connect 4 0 6 0;
#X connect 4 0 1 0;
#X connect 6 0 0 1;
#X restore 578 459 pd blue_traitements;
#N canvas 408 164 695 516 green_traitements 0;
#X obj 64 100 e_tremolo;
#X msg 167 116 dry 0;
#X msg 141 89 freq 2.3;
#X obj 65 60 inlet~;
#X obj 52 189 outlet~;
#X obj 368 31 loadbang;
#X obj 121 191 outlet~;
#X text 152 50 tremolo;
#X connect 0 0 4 0;
#X connect 0 0 6 0;
#X connect 1 0 0 1;
#X connect 2 0 0 1;
#X connect 3 0 0 0;
#X connect 5 0 2 0;
#X connect 5 0 1 0;
#X restore 812 455 pd green_traitements;
#X obj 74 113 s red_now;
#X obj 312 120 s yellow_now;
#X obj 529 118 s blue_now;
#X obj 770 111 s green_now;
#N canvas 609 222 460 322 envoi_sel 0;
#X obj 236 200 gate 4;
#X floatatom 227 173 5 0 4 0 - - -;
#X obj 148 99 r red_now;
#X obj 176 120 r yellow_now;
#X obj 213 97 r blue_now;
#X obj 261 118 r green_now;
#X msg 146 141 1;
#X msg 189 145 2;
#X msg 232 147 3;
#X msg 276 146 4;
#X obj 79 232 bng 15 250 50 0 empty empty empty 17 7 0 10 -258113 -1
-1;
#X obj 169 236 bng 15 250 50 0 empty empty empty 17 7 0 10 -257985
-1 -1;
#X obj 265 234 bng 15 250 50 0 empty empty empty 17 7 0 10 -4160 -1
-1;
#X obj 355 227 bng 15 250 50 0 empty empty empty 17 7 0 10 -4034 -1
-1;
#X obj 347 60 inlet;
#X obj 35 276 outlet;
#X obj 148 278 outlet;
#X obj 258 274 outlet;
#X obj 366 273 outlet;
#X connect 0 0 10 0;
#X connect 0 1 11 0;
#X connect 0 2 12 0;
#X connect 0 3 13 0;
#X connect 1 0 0 0;
#X connect 2 0 6 0;
#X connect 3 0 7 0;
#X connect 4 0 8 0;
#X connect 5 0 9 0;
#X connect 6 0 1 0;
#X connect 7 0 1 0;
#X connect 8 0 1 0;
#X connect 9 0 1 0;
#X connect 10 0 15 0;
#X connect 11 0 16 0;
#X connect 12 0 17 0;
#X connect 13 0 18 0;
#X connect 14 0 0 1;
#X restore 634 683 pd envoi_sel;
#X msg 628 309 0;
#X obj 519 702 sel 4;
#X obj 959 613 demultiplex~;
#X text 610 15 - counter pour chaque bouton;
#X text 606 33 - trame de fond composée/sinus solistes;
#X text 654 713 - courbes de volumes \, réponses non-immédiates;
#N canvas 59 127 703 490 samples 0;
#N canvas 0 22 450 278 (subpatch) 0;
#X array office 1.41488e+06 float 2;
#X coords 0 1 1.41488e+06 -1 75 50 1 0 0;
#X restore 22 264 graph;
#X obj 369 349 soundfiler;
#X obj 594 186 loadbang;
#X obj 23 180 tabplay~ office;
#X obj 213 377 dac~;
#X obj 188 349 *~;
#X obj 230 346 *~;
#X obj 297 274 hsl 100 20 0 2 0 0 empty empty empty -2 -8 0 10 -262144
-1 -1 1980 0;
#X floatatom 291 302 5 0 0 0 - - -;
#X msg 283 326 \$1 20;
#X obj 285 349 line~;
#X obj 26 81 bng 25 250 50 0 empty empty empty 17 7 0 10 -204800 -1
-1;
#X obj 171 75 bng 25 250 50 0 empty empty empty 17 7 0 10 -204800 -1
-1;
#X obj 315 79 bng 25 250 50 0 empty empty empty 17 7 0 10 -204800 -1
-1;
#X obj 449 80 bng 25 250 50 0 empty empty empty 17 7 0 10 -204800 -1
-1;
#X msg 478 222 read -resize office.wav office;
#X msg 479 255 read -resize galaxie.wav galaxie;
#X msg 476 284 read -resize bears_beets.wav beets;
#N canvas 0 22 450 278 (subpatch) 0;
#X array galaxie 584850 float 2;
#X coords 0 1 584850 -1 75 50 1 0 0;
#X restore 22 339 graph;
#N canvas 0 22 450 278 (subpatch) 0;
#X array beets 91875 float 2;
#X coords 0 1 91875 -1 75 50 1 0 0;
#X restore 602 47 graph;
#N canvas 0 22 450 278 (subpatch) 0;
#X array no 27562 float 2;
#X coords 0 1 27562 -1 75 50 1 0 0;
#X restore 599 120 graph;
#X obj 159 183 tabplay~ galaxie;
#X obj 301 183 tabplay~ beets;
#X obj 443 178 tabplay~ no;
#X msg 261 217 stop;
#X msg 478 314 read -resize no.wav no;
#X obj 26 136 spigot;
#X obj 104 103 tgl 20 0 empty empty empty 17 7 0 10 -262144 -1 -1 0
1;
#X obj 156 136 spigot;
#X obj 244 109 tgl 20 0 empty empty empty 17 7 0 10 -262144 -1 -1 0
1;
#X obj 315 135 spigot;
#X obj 403 108 tgl 20 0 empty empty empty 17 7 0 10 -262144 -1 -1 0
1;
#X obj 430 137 spigot;
#X obj 531 121 tgl 20 0 empty empty empty 17 7 0 10 -262144 -1 -1 0
1;
#X obj 66 65 bng 15 250 50 0 empty empty empty 17 7 0 10 -262144 -1
-1;
#X obj 18 15 r yellow_choice;
#X obj 64 42 r office;
#X obj 216 56 bng 15 250 50 0 empty empty empty 17 7 0 10 -262144 -1
-1;
#X obj 218 33 r galaxie;
#X obj 439 352 soundfiler;
#X obj 516 354 soundfiler;
#X obj 586 357 soundfiler;
#X floatatom 363 381 10 0 0 0 - - -;
#X floatatom 434 387 10 0 0 0 - - -;
#X floatatom 513 387 10 0 0 0 - - -;
#X floatatom 589 381 10 0 0 0 - - -;
#X obj 550 11 bng 30 250 50 0 empty empty stop 4 10 0 10 -258113 -1
-1;
#X floatatom 360 451 8 0 0 0 - - -;
#X floatatom 435 455 8 0 0 0 - - -;
#X floatatom 518 455 8 0 0 0 - - -;
#X floatatom 593 459 8 0 0 0 - - -;
#X obj 360 406 / 44.1;
#X msg 367 250 0.4;
#X obj 435 410 / 44.1;
#X obj 518 410 / 44.1;
#X obj 593 414 / 44.1;
#X obj 356 86 bng 15 250 50 0 empty empty empty 17 7 0 10 -262144 -1
-1;
#X obj 355 38 r beets;
#X obj 484 59 bng 15 250 50 0 empty empty empty 17 7 0 10 -262144 -1
-1;
#X obj 486 36 r no;
#X obj 156 13 r blue_choice;
#X obj 34 420 s wait_office;
#X obj 83 452 s wait_galaxie;
#X obj 165 423 s wait_beets;
#X obj 228 451 s wait_no;
#X obj 311 17 r red_choice;
#X obj 444 13 r green_choice;
#X msg 551 84 0;
#X obj 543 64 inlet;
#X text 546 49 reset;
#X connect 1 0 42 0;
#X connect 2 0 15 0;
#X connect 2 0 16 0;
#X connect 2 0 17 0;
#X connect 2 0 25 0;
#X connect 2 0 52 0;
#X connect 3 0 5 0;
#X connect 3 0 6 0;
#X connect 3 1 27 0;
#X connect 5 0 4 0;
#X connect 6 0 4 1;
#X connect 7 0 8 0;
#X connect 8 0 9 0;
#X connect 9 0 10 0;
#X connect 10 0 6 1;
#X connect 10 0 5 1;
#X connect 11 0 26 0;
#X connect 12 0 28 0;
#X connect 13 0 30 0;
#X connect 14 0 32 0;
#X connect 15 0 1 0;
#X connect 16 0 39 0;
#X connect 17 0 40 0;
#X connect 21 0 5 0;
#X connect 21 0 6 0;
#X connect 21 1 29 0;
#X connect 22 0 5 0;
#X connect 22 0 6 0;
#X connect 22 1 31 0;
#X connect 23 0 5 0;
#X connect 23 0 6 0;
#X connect 23 1 33 0;
#X connect 24 0 3 0;
#X connect 24 0 21 0;
#X connect 24 0 22 0;
#X connect 24 0 23 0;
#X connect 25 0 41 0;
#X connect 26 0 3 0;
#X connect 27 0 26 1;
#X connect 28 0 21 0;
#X connect 29 0 28 1;
#X connect 30 0 22 0;
#X connect 31 0 30 1;
#X connect 32 0 23 0;
#X connect 33 0 32 1;
#X connect 34 0 27 0;
#X connect 35 0 11 0;
#X connect 36 0 34 0;
#X connect 37 0 29 0;
#X connect 38 0 37 0;
#X connect 39 0 43 0;
#X connect 40 0 44 0;
#X connect 41 0 45 0;
#X connect 42 0 51 0;
#X connect 43 0 53 0;
#X connect 44 0 54 0;
#X connect 45 0 55 0;
#X connect 46 0 24 0;
#X connect 47 0 61 0;
#X connect 48 0 62 0;
#X connect 49 0 63 0;
#X connect 50 0 64 0;
#X connect 51 0 47 0;
#X connect 52 0 7 0;
#X connect 53 0 48 0;
#X connect 54 0 49 0;
#X connect 55 0 50 0;
#X connect 56 0 31 0;
#X connect 57 0 56 0;
#X connect 58 0 33 0;
#X connect 59 0 58 0;
#X connect 60 0 12 0;
#X connect 65 0 13 0;
#X connect 66 0 14 0;
#X connect 67 0 33 0;
#X connect 67 0 31 0;
#X connect 67 0 29 0;
#X connect 67 0 27 0;
#X connect 68 0 67 0;
#X restore 947 51 pd samples;
#X obj 8 214 s all_colours;
#X obj 149 531 counter;
#X obj 401 529 counter;
#X obj 662 525 counter;
#X obj 877 524 counter;
#X floatatom 146 552 5 0 0 0 - - -;
#X floatatom 401 553 5 0 0 0 - - -;
#X floatatom 660 546 5 0 0 0 - - -;
#X floatatom 879 548 5 0 0 0 - - -;
#X obj 152 504 r red_now;
#X obj 403 505 r yellow_now;
#X obj 658 501 r blue_now;
#X obj 880 502 r green_now;
#X obj 144 572 sel 2;
#X obj 658 573 sel 2;
#X obj 877 570 sel 2;
#X obj 427 601 s yellow_6;
#X obj 437 621 s yellow_8;
#X msg 395 220 0.04;
#X msg 610 222 0.04;
#X msg 854 224 0.02;
#X msg 157 216 0.12;
#X obj 401 577 sel 2 4 6 8 9;
#X obj 459 645 s yellow_9;
#X text 937 79 sons-surprises;
#X obj 25 656 QA_GestionQuestions;
#X connect 0 0 1 0;
#X connect 1 0 32 0;
#X connect 2 0 7 0;
#X connect 3 0 4 0;
#X connect 4 0 8 0;
#X connect 5 0 2 1;
#X connect 5 0 6 1;
#X connect 6 0 7 1;
#X connect 8 0 5 0;
#X connect 9 0 10 0;
#X connect 9 0 33 0;
#X connect 9 0 47 0;
#X connect 9 0 66 0;
#X connect 9 0 48 0;
#X connect 10 0 0 0;
#X connect 11 0 16 0;
#X connect 12 0 13 0;
#X connect 13 0 17 0;
#X connect 14 0 11 1;
#X connect 14 0 15 1;
#X connect 15 0 16 1;
#X connect 17 0 14 0;
#X connect 18 0 23 0;
#X connect 19 0 20 0;
#X connect 20 0 24 0;
#X connect 21 0 18 1;
#X connect 21 0 22 1;
#X connect 22 0 23 1;
#X connect 24 0 21 0;
#X connect 25 0 30 0;
#X connect 26 0 27 0;
#X connect 27 0 31 0;
#X connect 28 0 25 1;
#X connect 28 0 29 1;
#X connect 29 0 30 1;
#X connect 31 0 28 0;
#X connect 32 0 97 0;
#X connect 33 0 62 0;
#X connect 33 0 65 0;
#X connect 33 0 63 0;
#X connect 33 0 64 0;
#X connect 33 0 71 3;
#X connect 33 0 74 3;
#X connect 33 0 77 3;
#X connect 33 0 80 3;
#X connect 33 0 114 0;
#X connect 33 0 91 3;
#X connect 33 0 122 3;
#X connect 33 0 123 3;
#X connect 33 0 124 3;
#X connect 33 0 125 3;
#X connect 33 0 106 2;
#X connect 33 0 120 0;
#X connect 34 0 71 0;
#X connect 34 0 109 0;
#X connect 35 0 74 0;
#X connect 35 0 110 0;
#X connect 36 0 77 0;
#X connect 36 0 111 0;
#X connect 37 0 80 0;
#X connect 37 0 112 0;
#X connect 38 0 99 0;
#X connect 39 0 101 0;
#X connect 40 0 103 0;
#X connect 41 0 42 0;
#X connect 42 0 38 0;
#X connect 43 0 44 0;
#X connect 44 0 39 0;
#X connect 45 0 46 0;
#X connect 46 0 40 0;
#X connect 47 0 41 0;
#X connect 48 0 45 0;
#X connect 50 0 93 0;
#X connect 50 0 146 2;
#X connect 52 0 93 0;
#X connect 52 0 146 3;
#X connect 54 0 93 0;
#X connect 54 0 146 4;
#X connect 56 0 93 0;
#X connect 56 0 146 5;
#X connect 57 0 33 0;
#X connect 62 0 3 0;
#X connect 63 0 19 0;
#X connect 64 0 26 0;
#X connect 65 0 12 0;
#X connect 66 0 43 0;
#X connect 67 0 49 0;
#X connect 67 0 121 0;
#X connect 68 0 51 0;
#X connect 68 0 121 0;
#X connect 69 0 53 0;
#X connect 69 0 121 0;
#X connect 70 0 55 0;
#X connect 70 0 121 0;
#X connect 71 0 72 0;
#X connect 72 0 85 0;
#X connect 73 0 142 0;
#X connect 74 0 75 0;
#X connect 75 0 88 0;
#X connect 76 0 139 0;
#X connect 77 0 78 0;
#X connect 78 0 89 0;
#X connect 79 0 140 0;
#X connect 80 0 81 0;
#X connect 81 0 90 0;
#X connect 82 0 141 0;
#X connect 85 0 86 0;
#X connect 85 1 73 0;
#X connect 85 2 67 0;
#X connect 88 0 86 0;
#X connect 88 1 76 0;
#X connect 88 2 68 0;
#X connect 89 0 86 0;
#X connect 89 1 79 0;
#X connect 89 2 69 0;
#X connect 90 0 86 0;
#X connect 90 1 82 0;
#X connect 90 2 70 0;
#X connect 91 0 94 0;
#X connect 93 0 91 0;
#X connect 94 0 115 0;
#X connect 97 0 2 0;
#X connect 97 0 6 0;
#X connect 97 1 105 0;
#X connect 98 0 97 1;
#X connect 99 0 11 0;
#X connect 99 0 15 0;
#X connect 99 1 106 0;
#X connect 100 0 99 1;
#X connect 101 0 18 0;
#X connect 101 0 22 0;
#X connect 101 1 107 0;
#X connect 102 0 101 1;
#X connect 103 0 25 0;
#X connect 103 0 29 0;
#X connect 103 1 108 0;
#X connect 104 0 103 1;
#X connect 105 0 2 0;
#X connect 105 1 6 0;
#X connect 106 0 11 0;
#X connect 106 1 15 0;
#X connect 107 0 18 0;
#X connect 107 1 22 0;
#X connect 108 0 25 0;
#X connect 108 1 29 0;
#X connect 113 0 98 0;
#X connect 113 1 100 0;
#X connect 113 2 102 0;
#X connect 113 3 104 0;
#X connect 114 0 104 0;
#X connect 114 0 102 0;
#X connect 114 0 100 0;
#X connect 114 0 98 0;
#X connect 122 0 126 0;
#X connect 123 0 127 0;
#X connect 124 0 128 0;
#X connect 125 0 129 0;
#X connect 126 0 134 0;
#X connect 127 0 143 0;
#X connect 128 0 135 0;
#X connect 129 0 136 0;
#X connect 130 0 122 0;
#X connect 131 0 123 0;
#X connect 132 0 124 0;
#X connect 133 0 125 0;
#X connect 134 0 98 0;
#X connect 135 0 102 0;
#X connect 136 0 104 0;
#X connect 139 0 12 0;
#X connect 139 0 68 0;
#X connect 140 0 19 0;
#X connect 140 0 69 0;
#X connect 141 0 26 0;
#X connect 141 0 70 0;
#X connect 142 0 3 0;
#X connect 142 0 67 0;
#X connect 143 0 100 0;
#X connect 143 1 106 1;
#X connect 143 2 137 0;
#X connect 143 3 138 0;
#X connect 143 4 144 0;
