#N canvas 147 23 1013 616 10;
#X floatatom 96 300 5 0 20000 0 - - -;
#X obj 96 319 sig~;
#X obj 96 462 *~;
#X obj 166 379 hsl 100 20 0 1 0 0 empty empty empty -2 -8 0 10 -203904
-1 -1 0 0;
#X floatatom 163 404 5 0 0 0 - - -;
#X obj 163 445 line~;
#X obj 125 462 *~;
#X obj 96 494 dac~;
#X msg 163 423 \$1 20;
#X obj 84 18 loadbang;
#X msg 96 275 60;
#X obj 15 174 line 60 50;
#X msg 91 147 60 500;
#X obj 330 460 *~;
#X obj 400 377 hsl 100 20 0 1 0 0 empty empty empty -2 -8 0 10 -203904
-1 -1 0 0;
#X floatatom 397 402 5 0 0 0 - - -;
#X obj 397 443 line~;
#X obj 359 460 *~;
#X obj 330 492 dac~;
#X msg 397 421 \$1 20;
#X obj 544 461 *~;
#X obj 614 378 hsl 100 20 0 1 0 0 empty empty empty -2 -8 0 10 -203904
-1 -1 0 0;
#X floatatom 611 403 5 0 0 0 - - -;
#X obj 611 444 line~;
#X obj 573 461 *~;
#X obj 544 493 dac~;
#X msg 611 422 \$1 20;
#X obj 785 459 *~;
#X obj 855 376 hsl 100 20 0 1 0 0 empty empty empty -2 -8 0 10 -203904
-1 -1 0 0;
#X floatatom 852 401 5 0 0 0 - - -;
#X obj 852 442 line~;
#X obj 814 459 *~;
#X obj 785 491 dac~;
#X msg 852 420 \$1 20;
#X obj 96 352 s_osc 1 sine;
#X msg 15 147 120 24000;
#X obj 214 35 bng 25 250 50 0 empty empty reset 2 7 0 12 -261234 -1
-1;
#X obj 183 131 inlet;
#X obj 408 127 inlet;
#X obj 650 125 inlet;
#X obj 869 121 inlet;
#X obj 330 350 s_osc 2 sine;
#X obj 544 345 s_osc 3 sine;
#X obj 785 345 s_osc 4 sine;
#X floatatom 330 301 5 0 20000 0 - - -;
#X obj 330 320 sig~;
#X floatatom 544 296 5 0 20000 0 - - -;
#X obj 544 315 sig~;
#X floatatom 785 293 5 0 20000 0 - - -;
#X obj 785 312 sig~;
#X msg 330 274 240;
#X msg 544 268 240;
#X msg 785 266 480;
#X obj 233 488 freeverb~;
#N canvas 994 23 286 443 control_red 0;
#X obj 104 56 inlet;
#X obj 110 400 outlet;
#X obj 104 172 tgl 25 0 empty empty empty 17 7 0 10 -262144 -1 -1 0
1;
#X obj 104 237 bng 20 250 50 0 empty empty empty 17 7 0 10 -232576
-1 -1;
#X msg 104 345 0;
#X obj 104 264 counter 0 1;
#X floatatom 104 286 5 0 0 0 - - -;
#X obj 104 305 sel 0 1;
#X obj 127 326 bng 15 250 50 0 empty empty empty 17 7 0 10 -261682
-1 -1;
#X obj 104 326 bng 15 250 50 0 empty empty empty 17 7 0 10 -262130
-1 -1;
#X obj 104 89 counter 0 1;
#X floatatom 104 111 5 0 0 0 - - -;
#X obj 104 130 sel 0 1;
#X obj 127 151 bng 15 250 50 0 empty empty empty 17 7 0 10 -261682
-1 -1;
#X obj 104 151 bng 15 250 50 0 empty empty empty 17 7 0 10 -262130
-1 -1;
#X obj 165 147 delay 20;
#X msg 165 169 0;
#X obj 163 42 inlet;
#X obj 104 213 metro 125;
#X msg 127 345 0.4;
#X obj 192 359 outlet;
#X connect 0 0 10 0;
#X connect 2 0 18 0;
#X connect 3 0 5 0;
#X connect 4 0 1 0;
#X connect 5 0 6 0;
#X connect 6 0 7 0;
#X connect 7 0 9 0;
#X connect 7 1 8 0;
#X connect 8 0 19 0;
#X connect 9 0 4 0;
#X connect 10 0 11 0;
#X connect 11 0 12 0;
#X connect 12 0 14 0;
#X connect 12 1 13 0;
#X connect 12 1 15 0;
#X connect 13 0 2 0;
#X connect 14 0 2 0;
#X connect 14 0 20 0;
#X connect 15 0 16 0;
#X connect 16 0 1 0;
#X connect 17 0 10 2;
#X connect 18 0 3 0;
#X connect 19 0 1 0;
#X restore 172 266 pd control_red;
#N canvas 763 115 308 441 control_yellow 0;
#X obj 109 178 tgl 25 0 empty empty empty 17 7 0 10 -262144 -1 -1 0
1;
#X obj 109 243 bng 20 250 50 0 empty empty empty 17 7 0 10 -232576
-1 -1;
#X msg 109 351 0;
#X obj 109 270 counter 0 1;
#X floatatom 109 292 5 0 0 0 - - -;
#X obj 109 311 sel 0 1;
#X obj 132 332 bng 15 250 50 0 empty empty empty 17 7 0 10 -261682
-1 -1;
#X obj 109 332 bng 15 250 50 0 empty empty empty 17 7 0 10 -262130
-1 -1;
#X obj 109 94 counter 0 1;
#X floatatom 109 116 5 0 0 0 - - -;
#X obj 109 135 sel 0 1;
#X obj 132 156 bng 15 250 50 0 empty empty empty 17 7 0 10 -261682
-1 -1;
#X obj 109 156 bng 15 250 50 0 empty empty empty 17 7 0 10 -262130
-1 -1;
#X obj 170 152 delay 20;
#X msg 170 174 0;
#X obj 109 219 metro 140;
#X obj 109 53 inlet;
#X obj 173 31 inlet;
#X obj 114 395 outlet;
#X msg 132 351 0.08;
#X obj 202 369 outlet;
#X connect 0 0 15 0;
#X connect 1 0 3 0;
#X connect 2 0 18 0;
#X connect 3 0 4 0;
#X connect 4 0 5 0;
#X connect 5 0 7 0;
#X connect 5 1 6 0;
#X connect 6 0 19 0;
#X connect 7 0 2 0;
#X connect 8 0 9 0;
#X connect 9 0 10 0;
#X connect 10 0 12 0;
#X connect 10 1 11 0;
#X connect 10 1 13 0;
#X connect 11 0 0 0;
#X connect 12 0 0 0;
#X connect 12 0 20 0;
#X connect 13 0 14 0;
#X connect 14 0 18 0;
#X connect 15 0 1 0;
#X connect 16 0 8 0;
#X connect 17 0 8 2;
#X connect 19 0 18 0;
#X restore 393 183 pd control_yellow;
#N canvas 832 62 252 430 control_blue 0;
#X obj 78 164 tgl 25 0 empty empty empty 17 7 0 10 -262144 -1 -1 0
1;
#X obj 78 229 bng 20 250 50 0 empty empty empty 17 7 0 10 -232576 -1
-1;
#X msg 78 337 0;
#X obj 78 256 counter 0 1;
#X floatatom 78 278 5 0 0 0 - - -;
#X obj 78 297 sel 0 1;
#X obj 101 318 bng 15 250 50 0 empty empty empty 17 7 0 10 -261682
-1 -1;
#X obj 78 318 bng 15 250 50 0 empty empty empty 17 7 0 10 -262130 -1
-1;
#X obj 78 81 counter 0 1;
#X floatatom 78 103 5 0 0 0 - - -;
#X obj 78 122 sel 0 1;
#X obj 101 143 bng 15 250 50 0 empty empty empty 17 7 0 10 -261682
-1 -1;
#X obj 78 143 bng 15 250 50 0 empty empty empty 17 7 0 10 -262130 -1
-1;
#X obj 141 139 delay 20;
#X msg 141 161 0;
#X obj 78 205 metro 187;
#X obj 78 51 inlet;
#X obj 146 23 inlet;
#X obj 88 388 outlet;
#X msg 101 337 0.09;
#X obj 172 326 outlet;
#X connect 0 0 15 0;
#X connect 1 0 3 0;
#X connect 2 0 18 0;
#X connect 3 0 4 0;
#X connect 4 0 5 0;
#X connect 5 0 7 0;
#X connect 5 1 6 0;
#X connect 6 0 19 0;
#X connect 7 0 2 0;
#X connect 8 0 9 0;
#X connect 9 0 10 0;
#X connect 10 0 12 0;
#X connect 10 1 11 0;
#X connect 10 1 13 0;
#X connect 11 0 0 0;
#X connect 12 0 0 0;
#X connect 12 0 20 0;
#X connect 13 0 14 0;
#X connect 14 0 18 0;
#X connect 15 0 1 0;
#X connect 16 0 8 0;
#X connect 17 0 8 2;
#X connect 19 0 18 0;
#X restore 637 191 pd control_blue;
#N canvas 816 107 267 410 control_green 0;
#X obj 93 153 tgl 25 0 empty empty empty 17 7 0 10 -262144 -1 -1 0
1;
#X obj 93 218 bng 20 250 50 0 empty empty empty 17 7 0 10 -232576 -1
-1;
#X msg 93 326 0;
#X obj 93 245 counter 0 1;
#X floatatom 93 267 5 0 0 0 - - -;
#X obj 93 286 sel 0 1;
#X obj 116 307 bng 15 250 50 0 empty empty empty 17 7 0 10 -261682
-1 -1;
#X obj 93 307 bng 15 250 50 0 empty empty empty 17 7 0 10 -262130 -1
-1;
#X obj 93 69 counter 0 1;
#X floatatom 93 91 5 0 0 0 - - -;
#X obj 93 110 sel 0 1;
#X obj 116 131 bng 15 250 50 0 empty empty empty 17 7 0 10 -261682
-1 -1;
#X obj 93 131 bng 15 250 50 0 empty empty empty 17 7 0 10 -262130 -1
-1;
#X obj 152 127 delay 20;
#X msg 152 149 0;
#X obj 93 194 metro 211;
#X obj 93 39 inlet;
#X obj 155 23 inlet;
#X obj 100 377 outlet;
#X msg 116 326 0.007;
#X obj 197 330 outlet;
#X connect 0 0 15 0;
#X connect 1 0 3 0;
#X connect 2 0 18 0;
#X connect 3 0 4 0;
#X connect 4 0 5 0;
#X connect 5 0 7 0;
#X connect 5 1 6 0;
#X connect 6 0 19 0;
#X connect 7 0 2 0;
#X connect 8 0 9 0;
#X connect 9 0 10 0;
#X connect 10 0 12 0;
#X connect 10 1 11 0;
#X connect 10 1 13 0;
#X connect 11 0 0 0;
#X connect 12 0 0 0;
#X connect 12 0 20 0;
#X connect 13 0 14 0;
#X connect 14 0 18 0;
#X connect 15 0 1 0;
#X connect 16 0 8 0;
#X connect 17 0 8 2;
#X connect 19 0 18 0;
#X restore 824 204 pd control_green;
#X obj 220 321 s red_choice;
#X obj 374 556 r red_choice;
#X obj 484 220 s yellow_choice;
#X obj 428 532 r yellow_choice;
#X obj 712 228 s blue_choice;
#X obj 514 542 r blue_choice;
#X obj 907 250 s green_choice;
#X obj 626 549 r green_choice;
#X obj 375 584 QA_GestionQuestions;
#X connect 0 0 1 0;
#X connect 1 0 34 0;
#X connect 2 0 7 0;
#X connect 3 0 4 0;
#X connect 4 0 8 0;
#X connect 5 0 2 1;
#X connect 5 0 6 1;
#X connect 6 0 7 1;
#X connect 8 0 5 0;
#X connect 9 0 10 0;
#X connect 9 0 36 0;
#X connect 9 0 50 0;
#X connect 9 0 51 0;
#X connect 9 0 52 0;
#X connect 10 0 0 0;
#X connect 11 0 0 0;
#X connect 12 0 11 0;
#X connect 13 0 18 0;
#X connect 14 0 15 0;
#X connect 15 0 19 0;
#X connect 16 0 13 1;
#X connect 16 0 17 1;
#X connect 17 0 18 1;
#X connect 19 0 16 0;
#X connect 20 0 25 0;
#X connect 21 0 22 0;
#X connect 22 0 26 0;
#X connect 23 0 20 1;
#X connect 23 0 24 1;
#X connect 24 0 25 1;
#X connect 26 0 23 0;
#X connect 27 0 32 0;
#X connect 28 0 29 0;
#X connect 29 0 33 0;
#X connect 30 0 27 1;
#X connect 30 0 31 1;
#X connect 31 0 32 1;
#X connect 33 0 30 0;
#X connect 34 0 2 0;
#X connect 34 0 6 0;
#X connect 35 0 11 0;
#X connect 36 0 54 1;
#X connect 36 0 55 1;
#X connect 36 0 56 1;
#X connect 36 0 57 1;
#X connect 37 0 54 0;
#X connect 38 0 55 0;
#X connect 39 0 56 0;
#X connect 40 0 57 0;
#X connect 41 0 13 0;
#X connect 41 0 17 0;
#X connect 42 0 24 0;
#X connect 42 0 20 0;
#X connect 43 0 31 0;
#X connect 43 0 27 0;
#X connect 44 0 45 0;
#X connect 45 0 41 0;
#X connect 46 0 47 0;
#X connect 47 0 42 0;
#X connect 48 0 49 0;
#X connect 49 0 43 0;
#X connect 50 0 44 0;
#X connect 51 0 46 0;
#X connect 52 0 48 0;
#X connect 54 0 3 0;
#X connect 54 1 58 0;
#X connect 55 0 14 0;
#X connect 55 1 60 0;
#X connect 56 0 21 0;
#X connect 56 1 62 0;
#X connect 57 0 28 0;
#X connect 57 1 64 0;
#X connect 59 0 66 1;
#X connect 61 0 66 2;
#X connect 63 0 66 3;
#X connect 65 0 66 4;
